<?xml version="1.0" standalone="no"?>
<!DOCTYPE svg PUBLIC "-//W3C//DTD SVG 20010904//EN"
 "http://www.w3.org/TR/2001/REC-SVG-20010904/DTD/svg10.dtd">
<svg version="1.0" xmlns="http://www.w3.org/2000/svg"
 width="700.000000pt" height="700.000000pt" viewBox="0 0 700.000000 700.000000"
 preserveAspectRatio="xMidYMid meet">
<metadata>
Created by potrace 1.14, written by Peter Selinger 2001-2017
</metadata>
<g transform="translate(0.000000,700.000000) scale(0.100000,-0.100000)"
fill="#000000" stroke="none">
<path d="M6181 5718 c-9 -121 -17 -183 -29 -205 -15 -31 -15 -34 4 -60 l20
-28 -90 -302 c-75 -253 -93 -303 -108 -303 -10 0 -18 3 -18 6 0 14 -91 400
-98 417 -5 13 -24 -53 -58 -200 -46 -197 -53 -218 -72 -221 -30 -5 -31 -52 -2
-52 19 0 20 -7 20 -165 0 -158 -1 -165 -20 -165 -15 0 -20 -7 -20 -25 0 -18 5
-25 20 -25 19 0 20 -7 20 -225 0 -218 -1 -225 -20 -225 -18 0 -20 -7 -20 -85
0 -78 2 -85 20 -85 19 0 20 -7 20 -175 0 -168 -1 -175 -20 -175 -15 0 -20 -7
-20 -25 0 -18 5 -25 20 -25 17 0 20 -7 20 -50 0 -43 -3 -50 -20 -50 -15 0 -20
-7 -20 -25 0 -18 5 -25 20 -25 19 0 20 -7 20 -195 0 -188 -1 -195 -20 -195
-15 0 -20 -7 -20 -26 0 -21 4 -25 20 -21 18 5 20 0 20 -49 0 -47 -2 -54 -20
-54 -15 0 -20 -7 -20 -25 0 -18 5 -25 20 -25 19 0 20 -7 20 -214 0 -213 0
-214 -22 -220 -13 -3 -227 -6 -475 -6 l-453 0 0 21 c0 21 -3 22 -82 16 -46 -4
-102 -7 -125 -7 -32 0 -43 -4 -43 -15 0 -13 -57 -15 -452 -15 l-452 0 -78 77
-79 76 -77 -76 -77 -77 -448 0 c-440 0 -447 0 -447 20 0 19 -7 20 -125 20
-118 0 -125 -1 -125 -20 0 -20 -7 -20 -432 -20 -238 0 -443 3 -455 6 -23 6
-23 7 -23 220 0 207 1 214 20 214 15 0 20 7 20 25 0 18 -5 25 -20 25 -17 0
-20 7 -20 49 0 40 3 50 20 54 12 3 20 14 20 26 0 14 -6 21 -20 21 -19 0 -20 7
-20 199 0 183 1 199 17 197 12 0 19 7 21 22 3 17 -2 22 -17 22 -18 0 -21 6
-21 50 0 43 3 50 20 50 15 0 20 7 20 25 0 18 -5 25 -20 25 -19 0 -20 7 -20
175 0 168 1 175 20 175 18 0 20 7 20 85 0 78 -2 85 -20 85 -19 0 -20 7 -20
225 0 218 1 225 20 225 15 0 20 7 20 25 0 18 -5 25 -20 25 -19 0 -20 7 -20
165 0 158 1 165 20 165 15 0 20 7 20 25 0 19 -5 25 -22 25 -22 0 -26 13 -72
215 -28 118 -53 215 -56 215 -3 0 -28 -97 -56 -215 -69 -301 -64 -303 -181 88
-79 265 -88 304 -76 322 15 23 17 67 3 81 -5 5 -15 85 -22 178 -6 92 -15 159
-19 149 -4 -10 -10 -77 -14 -148 -4 -72 -13 -148 -21 -170 -18 -52 -17 -70 2
-90 15 -15 10 -39 -73 -318 -75 -253 -93 -302 -108 -302 -15 0 -26 32 -69 218
-34 147 -53 213 -58 200 -7 -17 -98 -403 -98 -417 0 -3 -9 -6 -20 -6 -15 0
-20 -7 -20 -25 0 -18 5 -25 20 -25 19 0 20 -7 20 -165 0 -158 -1 -165 -20
-165 -15 0 -20 -7 -20 -25 0 -18 5 -25 20 -25 19 0 20 -7 20 -225 0 -218 -1
-225 -20 -225 -18 0 -20 -7 -20 -85 0 -78 2 -85 20 -85 19 0 20 -7 20 -179 0
-174 -1 -179 -20 -174 -16 4 -20 0 -20 -21 0 -19 5 -26 20 -26 17 0 20 -7 20
-50 0 -43 -3 -50 -20 -50 -15 0 -20 -7 -20 -26 0 -21 4 -25 20 -21 20 5 20 0
20 -194 0 -192 -1 -199 -20 -199 -15 0 -20 -7 -20 -26 0 -21 4 -25 20 -21 18
5 20 0 20 -49 0 -47 -2 -54 -20 -54 -15 0 -20 -7 -20 -26 0 -21 4 -25 20 -21
20 5 20 0 20 -218 0 -218 0 -223 -20 -218 -16 4 -20 0 -20 -21 0 -19 5 -26 20
-26 19 0 20 -7 20 -140 l0 -139 -127 -3 -128 -3 -3 -377 -2 -378 690 0 690 0
0 380 0 380 2000 0 2000 0 -3 -378 -2 -377 693 -3 692 -2 -2 377 -3 378 -112
3 -113 3 0 139 c0 135 1 140 21 140 15 0 20 5 17 23 -2 14 -9 21 -21 21 -16
-2 -17 15 -17 221 0 218 0 223 20 218 16 -4 20 0 20 21 0 19 -5 26 -20 26 -18
0 -20 7 -20 54 0 49 2 54 20 49 16 -4 20 0 20 21 0 19 -5 26 -20 26 -19 0 -20
7 -20 199 0 194 0 199 20 194 16 -4 20 0 20 21 0 19 -5 26 -20 26 -17 0 -20 7
-20 50 0 43 3 50 20 50 15 0 20 7 20 26 0 21 -4 25 -20 21 -19 -5 -20 0 -20
178 0 178 1 183 20 178 19 -5 20 0 20 81 0 79 -2 86 -20 86 -19 0 -20 7 -20
225 0 218 1 225 20 225 15 0 20 7 20 25 0 18 -5 25 -20 25 -19 0 -20 7 -20
165 0 158 1 165 20 165 15 0 20 7 20 25 0 18 -5 25 -19 25 -23 0 -19 -14 -76
234 -25 110 -47 202 -49 204 -2 2 -16 -48 -31 -110 -83 -356 -75 -329 -98
-326 -18 3 -32 41 -110 302 l-88 299 17 33 c17 31 17 35 1 66 -11 23 -20 83
-27 198 -7 91 -13 166 -14 168 -2 1 -9 -75 -15 -170z m-5309 -858 c41 -32 55
-84 59 -210 l4 -115 -114 -3 -113 -3 4 123 c3 94 8 131 22 158 36 69 90 89
138 50z m5376 0 c46 -43 56 -79 60 -207 l4 -123 -111 0 -111 0 0 121 c0 91 4
129 16 155 33 70 99 94 142 54z m-5628 -255 c0 -140 -2 -165 -15 -165 -13 0
-15 25 -15 165 0 140 2 165 15 165 13 0 15 -25 15 -165z m450 -4 l0 -168 -25
5 -25 4 0 164 0 164 25 0 25 0 0 -169z m4930 5 c0 -155 -1 -164 -20 -169 -19
-5 -20 0 -20 164 0 162 1 169 20 169 19 0 20 -7 20 -164z m449 -1 l3 -165 -26
0 -26 0 0 165 c0 164 0 165 23 165 22 0 22 -2 26 -165z m-5379 -436 l0 -230
-22 3 c-23 3 -23 3 -26 225 l-2 222 22 4 c13 2 24 5 26 6 1 0 2 -103 2 -230z
m-450 -4 c0 -193 -2 -225 -15 -225 -13 0 -15 32 -15 225 0 193 2 225 15 225
13 0 15 -32 15 -225z m5378 3 c-3 -203 -5 -223 -20 -226 -17 -3 -18 13 -18
222 0 220 1 226 20 226 20 0 20 -5 18 -222z m450 0 c-3 -223 -3 -223 -25 -226
l-23 -3 0 225 0 226 25 0 25 0 -2 -222z m-5728 -58 l0 -40 -45 0 -45 0 0 40 0
40 45 0 45 0 0 -40z m150 0 l0 -40 -45 0 -45 0 0 40 0 40 45 0 45 0 0 -40z
m140 0 l0 -40 -45 0 -45 0 0 40 0 40 45 0 45 0 0 -40z m5080 0 l0 -40 -40 0
-40 0 0 40 0 40 40 0 40 0 0 -40z m150 0 l0 -40 -45 0 c-44 0 -45 0 -45 33 0
43 5 47 52 47 38 0 38 0 38 -40z m140 0 l0 -40 -40 0 -40 0 0 40 0 40 40 0 40
0 0 -40z m-5660 -100 l0 -40 -45 0 -45 0 0 40 0 40 45 0 45 0 0 -40z m150 0
l0 -40 -45 0 -45 0 0 40 0 40 45 0 45 0 0 -40z m140 0 l0 -40 -45 0 -45 0 0
40 0 40 45 0 45 0 0 -40z m5080 0 l0 -40 -40 0 -40 0 0 40 0 40 40 0 40 0 0
-40z m150 -1 l0 -40 -42 3 c-42 3 -43 4 -46 41 l-3 37 45 0 46 0 0 -41z m140
1 l0 -40 -40 0 -40 0 0 40 0 40 40 0 40 0 0 -40z m-5760 -415 c0 -149 -2 -175
-15 -175 -13 0 -15 26 -15 175 0 149 2 175 15 175 13 0 15 -26 15 -175z m450
-4 l0 -178 -25 5 -25 4 0 167 c0 92 3 171 7 174 3 4 15 7 25 7 17 0 18 -12 18
-179z m4928 3 c2 -165 2 -172 -18 -177 -20 -5 -20 -1 -20 175 0 166 1 179 18
176 15 -3 17 -21 20 -174z m446 130 c3 -26 6 -105 6 -175 l0 -129 -25 0 -25 0
0 175 c0 164 1 175 19 175 14 0 20 -10 25 -46z m-5733 -94 c5 0 9 -18 9 -40
l0 -40 -45 0 -45 0 0 39 c0 33 4 40 23 44 12 2 28 3 35 1 8 -2 18 -4 23 -4z
m297 -38 l3 -43 -43 3 c-42 3 -43 4 -46 40 -3 33 -1 37 25 41 52 8 58 4 61
-41z m5066 42 c11 -4 16 -19 16 -45 0 -39 0 -39 -40 -39 -40 0 -40 0 -40 39 0
29 5 41 18 44 27 7 29 7 46 1z m306 -39 l0 -45 -40 0 c-40 0 -40 0 -40 39 0
41 0 41 68 50 8 1 12 -14 12 -44z m-5512 -2 c-3 -37 -4 -38 -45 -41 l-43 -3 0
40 0 41 46 0 45 0 -3 -37z m5372 -3 c0 -40 0 -40 -39 -40 -41 0 -51 11 -51 56
0 22 4 24 45 24 l45 0 0 -40z m-5520 -90 l0 -40 -45 0 -45 0 0 40 0 40 45 0
45 0 0 -40z m148 -2 l3 -38 -45 0 -46 0 0 41 0 40 43 -3 c41 -3 42 -4 45 -40z
m142 2 l0 -40 -45 0 -45 0 0 40 0 40 45 0 45 0 0 -40z m5080 0 l0 -40 -40 0
-40 0 0 40 0 40 40 0 40 0 0 -40z m150 0 l0 -40 -45 0 c-44 0 -45 0 -45 33 0
43 5 47 52 47 38 0 38 0 38 -40z m140 0 l0 -40 -40 0 -40 0 0 40 0 40 40 0 40
0 0 -40z m-5310 -179 c0 -57 -1 -58 -25 -53 -23 4 -25 9 -25 52 0 42 3 49 23
53 12 2 23 5 25 6 1 0 2 -25 2 -58z m-450 -1 c0 -38 -4 -50 -15 -50 -11 0 -15
12 -15 50 0 38 4 50 15 50 11 0 15 -12 15 -50z m5380 0 c0 -43 -3 -50 -20 -50
-17 0 -20 7 -20 50 0 43 3 50 20 50 17 0 20 -7 20 -50z m448 3 c-3 -41 -6 -48
-25 -51 -21 -3 -23 0 -23 47 0 48 2 51 26 51 24 0 25 -2 22 -47z m-5378 -293
l0 -200 -25 0 -25 0 0 193 c0 107 3 197 7 200 3 4 15 7 25 7 17 0 18 -13 18
-200z m4928 -4 c-3 -172 -5 -191 -20 -194 -17 -3 -18 11 -18 196 0 196 0 200
20 195 20 -5 20 -12 18 -197z m447 4 c0 -195 0 -195 -22 -198 l-23 -3 0 201 0
201 23 -3 c22 -3 22 -3 22 -198z m-5825 -5 c0 -167 -2 -195 -15 -195 -13 0
-15 28 -15 195 0 167 2 195 15 195 13 0 15 -28 15 -195z m100 -5 l0 -40 -45 0
-45 0 0 40 0 40 45 0 45 0 0 -40z m150 0 l0 -40 -45 0 -45 0 0 40 0 40 45 0
45 0 0 -40z m140 0 l0 -40 -45 0 -45 0 0 40 0 40 45 0 45 0 0 -40z m5080 0 l0
-40 -40 0 -40 0 0 40 0 40 40 0 40 0 0 -40z m150 0 l0 -40 -45 0 c-44 0 -45 0
-45 33 0 43 5 47 52 47 38 0 38 0 38 -40z m140 0 l0 -40 -40 0 -40 0 0 40 0
40 40 0 40 0 0 -40z m-5370 -102 l0 -39 -42 3 c-39 3 -43 6 -46 31 -5 46 2 53
47 49 40 -4 41 -5 41 -44z m5346 42 c21 0 24 -4 24 -40 l0 -40 -40 0 -40 0 0
46 c0 38 3 45 16 40 9 -3 27 -6 40 -6z m-5636 -40 l0 -40 -45 0 -45 0 0 40 0
40 45 0 45 0 0 -40z m148 3 c-3 -37 -4 -38 -45 -41 l-43 -3 0 40 0 41 46 0 45
0 -3 -37z m5222 -3 l0 -40 -40 0 -40 0 0 40 0 40 40 0 40 0 0 -40z m150 -1 l0
-40 -42 3 c-42 3 -43 4 -46 41 l-3 37 45 0 46 0 0 -41z m-5170 -188 c0 -57 -1
-58 -25 -53 -22 4 -25 9 -25 51 0 52 4 61 32 61 15 0 18 -8 18 -59z m4928 0
c-2 -34 -7 -47 -20 -49 -15 -3 -18 5 -18 51 0 51 2 55 20 50 18 -5 21 -12 18
-52z m447 4 c0 -44 -3 -50 -22 -53 -22 -3 -23 0 -23 53 0 53 1 56 23 53 19 -3
22 -9 22 -53z m-5825 -5 c0 -38 -4 -50 -15 -50 -11 0 -15 12 -15 50 0 38 4 50
15 50 11 0 15 -12 15 -50z m0 -315 c0 -193 -2 -225 -15 -225 -13 0 -15 32 -15
225 0 193 2 225 15 225 13 0 15 -32 15 -225z m450 -1 l0 -225 -22 3 c-23 3
-23 4 -26 213 -1 115 0 215 2 222 3 7 15 13 26 13 20 0 20 -6 20 -226z m4928
3 c2 -187 0 -218 -13 -223 -19 -8 -20 -44 0 -44 13 0 15 -22 15 -140 0 -133
-1 -140 -20 -140 -20 0 -20 7 -20 386 0 362 1 385 18 382 15 -3 17 -23 20
-221z m447 -2 l0 -220 -22 -3 -23 -3 0 226 0 226 23 -3 22 -3 0 -220z m-5725
135 l0 -40 -45 0 -45 0 0 40 0 40 45 0 45 0 0 -40z m150 0 l0 -40 -45 0 -45 0
0 40 0 40 45 0 45 0 0 -40z m140 0 l0 -40 -45 0 -45 0 0 40 0 40 45 0 45 0 0
-40z m5080 0 l0 -40 -40 0 -40 0 0 40 0 40 40 0 40 0 0 -40z m150 0 l0 -40
-45 0 c-44 0 -45 0 -45 33 0 43 5 47 52 47 38 0 38 0 38 -40z m140 0 l0 -40
-40 0 -40 0 0 40 0 40 40 0 40 0 0 -40z m-5660 -141 l0 -39 -45 0 -45 0 0 39
c0 33 4 40 23 43 52 8 67 -2 67 -43z m5361 41 c5 0 9 -18 9 -40 l0 -40 -40 0
c-40 0 -40 0 -40 39 0 40 16 54 48 45 8 -2 18 -4 23 -4z m-5213 -37 c-3 -37
-4 -38 -45 -41 l-43 -3 0 40 0 41 46 0 45 0 -3 -37z m142 -4 l0 -40 -42 3
c-42 3 -43 4 -46 41 l-3 37 45 0 46 0 0 -41z m5230 0 l0 -40 -42 3 c-42 3 -43
4 -46 41 l-3 37 45 0 46 0 0 -41z m140 1 l0 -40 -40 0 -40 0 0 40 0 40 40 0
40 0 0 -40z m-5660 -120 l0 -40 -45 0 -45 0 0 40 0 40 45 0 45 0 0 -40z m148
-2 l3 -38 -45 0 -46 0 0 41 0 40 43 -3 c41 -3 42 -4 45 -40z m142 2 l0 -40
-45 0 -45 0 0 40 0 40 45 0 45 0 0 -40z m5080 0 l0 -40 -40 0 -40 0 0 40 0 40
40 0 40 0 0 -40z m150 0 l0 -40 -45 0 c-44 0 -45 0 -45 33 0 43 5 47 52 47 38
0 38 0 38 -40z m140 0 l0 -40 -40 0 -40 0 0 40 0 40 40 0 40 0 0 -40z m-5760
-280 c0 -118 -2 -140 -15 -140 -13 0 -15 22 -15 140 0 118 2 140 15 140 13 0
15 -22 15 -140z m450 -6 c0 -145 0 -145 -22 -142 -22 3 -23 6 -26 146 l-3 142
26 0 25 0 0 -146z m248 110 l23 -36 -25 -39 c-15 -21 -28 -39 -31 -39 -3 0 -5
34 -5 75 0 41 3 75 8 75 4 0 17 -16 30 -36z m62 17 c-16 -30 -23 -31 -43 -5
l-18 24 36 0 c32 0 35 -2 25 -19z m88 -18 l23 -36 -27 -38 c-15 -22 -29 -39
-33 -39 -7 0 -51 66 -51 77 0 13 45 73 55 73 6 -1 20 -17 33 -37z m62 18 c-16
-31 -27 -33 -44 -6 l-16 25 35 0 c32 0 35 -2 25 -19z m91 -18 l26 -37 -26 -37
c-14 -21 -30 -38 -36 -38 -5 0 -22 17 -37 38 l-27 38 26 36 c14 21 31 37 37
37 6 0 23 -17 37 -37z m62 13 c-20 -26 -27 -25 -43 5 -10 17 -7 19 25 19 l36
0 -18 -24z m105 -13 l23 -36 -27 -38 c-15 -22 -33 -39 -40 -39 -8 0 -25 18
-40 39 l-25 39 23 36 c30 46 56 46 86 -1z m62 18 c-16 -31 -27 -33 -44 -6
l-16 25 35 0 c32 0 35 -2 25 -19z m98 -18 l23 -36 -27 -38 c-15 -22 -32 -39
-38 -39 -6 0 -23 18 -38 39 l-27 38 26 36 c33 46 52 46 81 0z m62 18 c-16 -31
-27 -33 -44 -6 l-16 25 35 0 c32 0 35 -2 25 -19z m98 -14 c12 -18 22 -36 22
-40 0 -18 -47 -77 -60 -76 -8 0 -27 17 -42 38 l-26 39 25 36 c32 45 52 45 81
3z m66 11 c-10 -13 -19 -24 -20 -25 0 -2 -10 8 -22 22 l-22 25 42 0 41 0 -19
-22z m340 0 c-10 -13 -19 -24 -20 -25 0 -2 -10 8 -22 22 l-22 25 42 0 41 0
-19 -22z m94 -13 c12 -19 22 -37 22 -41 0 -10 -52 -74 -61 -74 -5 0 -20 18
-35 39 l-25 39 23 36 c29 45 47 45 76 1z m62 16 c-16 -30 -23 -31 -43 -5 l-18
24 36 0 c32 0 35 -2 25 -19z m98 -16 c12 -19 22 -37 22 -41 0 -12 -53 -74 -64
-74 -11 0 -56 62 -56 77 0 16 46 73 60 73 8 0 25 -16 38 -35z m72 28 c0 -3 -7
-15 -16 -25 -16 -17 -18 -17 -30 0 -20 26 -17 32 16 32 17 0 30 -3 30 -7z m93
-30 l26 -36 -27 -38 c-15 -21 -34 -39 -42 -39 -14 0 -60 59 -60 77 0 17 47 73
61 73 9 0 28 -16 42 -37z m61 12 c-17 -27 -28 -25 -44 6 -10 17 -7 19 25 19
l35 0 -16 -25z m94 -10 c12 -19 22 -37 22 -41 0 -9 -52 -74 -60 -74 -4 0 -19
17 -34 39 l-27 38 23 36 c29 45 47 46 76 2z m72 28 c0 -3 -7 -15 -16 -25 -16
-17 -18 -17 -30 0 -20 26 -17 32 16 32 17 0 30 -3 30 -7z m67 1 c-3 -4 3 -18
13 -32 11 -13 20 -29 20 -33 0 -16 -44 -79 -55 -79 -10 0 -55 63 -55 77 0 19
47 73 64 73 11 0 16 -3 13 -6z m77 -16 c-10 -13 -19 -24 -20 -25 0 -2 -10 8
-22 22 l-22 25 42 0 41 0 -19 -22z m436 -3 c-23 -24 -23 -24 -37 -5 -8 11 -21
20 -29 20 -12 0 -11 -6 5 -29 26 -36 26 -39 -4 -76 l-25 -30 0 73 0 72 57 0
56 0 -23 -25z m108 -11 l23 -36 -25 -39 c-32 -48 -54 -49 -83 -3 -28 43 -28
45 -3 76 10 14 16 28 13 32 -3 3 7 6 23 6 22 0 34 -9 52 -36z m62 17 c-16 -30
-23 -31 -43 -5 l-18 24 36 0 c32 0 35 -2 25 -19z m102 -18 l25 -37 -26 -38
c-32 -47 -50 -47 -78 -3 -28 43 -28 49 -1 85 29 40 50 38 80 -7z m61 13 c-20
-26 -27 -25 -43 5 -10 17 -7 19 25 19 l36 0 -18 -24z m85 -11 c27 -43 27 -43
-6 -83 l-28 -34 -28 40 -27 40 23 36 c13 20 28 36 33 36 6 0 20 -16 33 -35z
m66 13 c-10 -13 -20 -25 -21 -27 -4 -6 -32 31 -33 42 0 4 16 7 37 7 l36 0 -19
-22z m104 -14 l23 -36 -25 -39 c-15 -21 -32 -39 -40 -39 -13 0 -66 61 -66 76
0 4 10 23 23 41 29 43 56 42 85 -3z m66 24 c-20 -35 -26 -39 -40 -21 -20 27
-17 33 17 33 21 0 28 -4 23 -12z m83 6 c-4 -4 3 -20 14 -36 l21 -29 -26 -39
c-15 -22 -32 -40 -39 -40 -11 0 -57 61 -57 77 0 4 10 22 23 40 14 22 30 33 46
33 13 0 21 -3 18 -6z m73 -8 c0 -29 -24 -35 -43 -10 l-18 24 31 0 c19 0 30 -5
30 -14z m324 -11 c-17 -27 -28 -25 -44 6 -10 17 -7 19 25 19 l35 0 -16 -25z
m104 -11 l23 -36 -25 -39 c-15 -21 -32 -39 -40 -39 -7 0 -25 17 -40 39 l-27
38 23 36 c30 47 56 47 86 1z m60 11 c-12 -14 -22 -24 -22 -22 -1 1 -10 12 -20
25 l-19 22 41 0 42 0 -22 -25z m82 14 c0 -6 9 -22 20 -36 l20 -25 -28 -39
c-15 -21 -31 -38 -37 -38 -5 0 -22 17 -37 38 l-26 39 25 36 c25 34 63 49 63
25z m74 -14 c-17 -27 -28 -25 -44 6 -10 17 -7 19 25 19 l35 0 -16 -25z m114
-12 l23 -36 -27 -38 c-15 -22 -34 -39 -44 -39 -10 0 -29 17 -44 39 l-27 38 23
36 c31 49 65 49 96 0z m60 12 c-12 -14 -23 -25 -24 -25 -1 0 -9 11 -18 25
l-16 25 40 0 40 0 -22 -25z m100 -12 l23 -36 -27 -38 c-15 -22 -32 -39 -38
-39 -6 0 -23 18 -38 39 l-27 38 26 36 c33 46 52 46 81 0z m60 12 c-12 -14 -23
-25 -24 -25 -1 0 -9 11 -18 25 l-16 25 40 0 40 0 -22 -25z m109 -14 l22 -38
-26 -36 c-14 -21 -33 -37 -42 -37 -9 0 -28 18 -43 39 l-27 38 26 36 c35 49 61
48 90 -2z m57 14 c-9 -14 -18 -25 -19 -25 -1 0 -10 11 -19 25 l-16 25 35 0 35
0 -16 -25z m54 -92 l-3 -37 -28 42 -28 43 28 36 28 37 3 -42 c2 -24 2 -59 0
-79z m697 -28 c0 -138 0 -140 -22 -143 -23 -3 -23 -3 -23 143 0 146 0 146 23
143 22 -3 22 -5 22 -143z m-3975 71 c0 -6 -7 -20 -15 -30 -14 -18 -15 -16 -15
30 1 45 2 48 15 30 8 -11 15 -25 15 -30z m858 -18 l-3 -23 -13 22 c-10 18 -10
27 0 43 l13 21 3 -21 c2 -11 2 -30 0 -42z m1496 -4 c-9 -13 -18 -24 -20 -24
-2 0 -4 21 -4 48 l1 47 19 -23 c18 -22 18 -25 4 -48z m-2634 19 c0 -20 -3 -24
-11 -16 -7 7 -9 19 -6 27 10 24 17 19 17 -11z m-814 -40 c21 -27 17 -33 -21
-33 l-35 0 16 25 c19 30 23 30 40 8z m152 -4 c17 -26 12 -31 -27 -27 -31 3
-31 4 -16 26 20 27 27 28 43 1z m156 -4 l16 -25 -35 0 c-39 0 -40 2 -23 30 16
26 22 25 42 -5z m164 4 c17 -26 12 -31 -27 -27 -31 3 -31 4 -16 26 20 27 27
28 43 1z m160 0 c17 -26 12 -31 -27 -27 -31 3 -31 4 -16 26 20 27 27 28 43 1z
m166 -4 l16 -25 -35 0 c-39 0 -40 2 -23 30 16 26 22 25 42 -5z m340 0 l16 -25
-35 0 c-39 0 -40 2 -23 30 16 26 22 25 42 -5z m152 8 c21 -27 17 -33 -21 -33
l-35 0 16 25 c19 30 23 30 40 8z m160 0 c21 -27 17 -33 -21 -33 l-35 0 16 25
c19 30 23 30 40 8z m172 -11 c14 -21 13 -22 -22 -22 -40 0 -41 2 -24 30 15 24
26 22 46 -8z m155 3 l18 -25 -41 0 -40 0 16 25 c20 31 24 31 47 0z m151 0 l16
-25 -35 0 c-39 0 -40 2 -23 30 16 26 22 25 42 -5z m436 6 c15 -29 13 -31 -25
-31 l-35 0 16 25 c20 30 30 31 44 6z m166 2 c21 -27 17 -33 -21 -33 l-35 0 16
25 c19 30 23 30 40 8z m168 -8 l16 -25 -35 0 c-39 0 -40 2 -23 30 16 26 22 25
42 -5z m150 0 l16 -25 -40 0 -40 0 16 25 c9 14 20 25 24 25 4 0 15 -11 24 -25z
m162 8 c21 -27 17 -33 -21 -33 l-35 0 16 25 c19 30 23 30 40 8z m158 1 c11
-28 7 -34 -24 -34 -30 0 -30 0 -14 25 19 29 29 31 38 9z m334 -12 c14 -21 13
-22 -22 -22 -40 0 -41 2 -24 30 15 24 26 22 46 -8z m158 11 c21 -27 17 -33
-21 -33 l-35 0 16 25 c19 30 23 30 40 8z m162 -11 c14 -21 13 -22 -22 -22 -40
0 -41 2 -24 30 15 24 26 22 46 -8z m170 7 c17 -26 12 -31 -27 -27 -31 3 -31 4
-16 26 20 27 27 28 43 1z m160 0 c17 -26 12 -31 -27 -27 -31 3 -31 4 -16 26
20 27 27 28 43 1z m168 -27 c-9 -2 -25 -2 -36 0 -20 3 -20 4 -4 27 l17 24 20
-24 c17 -21 17 -24 3 -27z"/>
</g>
</svg>
