<svg width="23" height="18" xmlns="http://www.w3.org/2000/svg"><path d="M4.406 11.646a.228.228 0 01-.151-.057l-3.8-3.384-.001 3.207a.227.227 0 11-.454 0l.001-3.713a.227.227 0 01.379-.17l3.8 3.383V7.756a.227.227 0 11.453 0v3.662a.227.227 0 01-.227.228zM7.039 10.801a.227.227 0 01-.228-.227V8.11c-.037-.056-.26-.184-.607-.184-.346 0-.646.29-.649.293a.227.227 0 01-.32-.321c.017-.018.432-.426.97-.426.52 0 1.06.234 1.06.625v2.477a.227.227 0 01-.226.227z" fill="#F6A500"/><path d="M5.851 10.664a.973.973 0 01-.486-.114c-.159-.09-.353-.283-.376-.682-.028-.482.17-.746.341-.882.566-.45 1.593-.168 1.708-.134a.227.227 0 11-.128.436c-.25-.073-.973-.205-1.297.053-.129.103-.185.267-.17.501.011.213.09.281.148.314.288.165.978-.086 1.267-.233a.227.227 0 11.206.404c-.085.044-.678.337-1.213.337zM22.576 10.801a.227.227 0 01-.228-.227V8.11c-.037-.056-.26-.184-.607-.184-.346 0-.646.29-.648.294a.227.227 0 01-.32-.322c.017-.018.431-.426.968-.426.522 0 1.062.234 1.062.625v2.477a.227.227 0 01-.227.227z" fill="#F6A500"/><path d="M21.389 10.664a.975.975 0 01-.487-.114c-.159-.09-.353-.283-.376-.682-.028-.482.17-.746.342-.882.565-.45 1.592-.168 1.707-.134a.227.227 0 11-.127.436c-.251-.072-.974-.205-1.298.053-.128.103-.184.267-.17.501.012.213.09.281.148.314.276.159.924-.059 1.267-.233a.227.227 0 01.207.404c-.085.044-.679.337-1.213.337zM8.8 12.356h-.053c-.387-.008-1.184-.153-1.184-.55a.227.227 0 01.44-.079c.15.11.82.282 1.313.088.309-.121.467-.358.482-.724.024-.571-.38-.75-1.04-.992-.6-.222-1.348-.497-1.348-1.386 0-.691.432-1.139 1.185-1.228.575-.067 1.494.11 1.587.495a.227.227 0 01-.43.143C9.61 8 8.84 7.81 8.317 8.016c-.304.121-.452.35-.452.697 0 .545.4.72 1.051.96.613.225 1.376.506 1.337 1.437-.033.784-.575 1.246-1.451 1.246zM12.077 11.43h-.937a.227.227 0 01-.227-.227V7.7a.227.227 0 11.454 0v3.277h.71a.227.227 0 110 .454z" fill="#F6A500"/><path d="M11.859 9.07h-1.476a.227.227 0 010-.454h1.476a.227.227 0 110 .455zM15.502 10.866a.227.227 0 01-.227-.227v-2.94a.227.227 0 01.455 0v2.94a.227.227 0 01-.228.227z" fill="#F6A500"/><path d="M17.62 10.878a.227.227 0 01-.227-.227V8.597c0-.091-.107-.369-.373-.51-.307-.161-.72-.076-1.197.25a.227.227 0 01-.256-.376c.79-.538 1.341-.446 1.665-.275.425.225.616.668.616.911v2.054a.227.227 0 01-.227.227zM18.295 12.24a.227.227 0 01-.227-.228V7.699a.227.227 0 01.454 0v4.313a.227.227 0 01-.227.227z" fill="#F6A500"/><path d="M20.617 12.214a.225.225 0 01-.151-.059l-2.053-1.835a.227.227 0 01-.009-.33l1.566-1.566a.227.227 0 01.321.321l-1.396 1.397 1.874 1.675a.227.227 0 01-.152.397z" fill="#F6A500"/><path d="M17.836 15.882a.219.219 0 01-.219-.219v-3.398a.219.219 0 11.438 0v3.398a.219.219 0 01-.22.219z" fill="#008ED4"/><path d="M19.57 15.856a.218.218 0 01-.17-.081l-1.484-1.835a.219.219 0 01.02-.297l1.412-1.337a.22.22 0 01.302.318l-1.266 1.198L19.74 15.5a.22.22 0 01-.17.357zM.227 15.883a.22.22 0 01-.22-.22v-3.364a.22.22 0 01.44 0v3.364a.22.22 0 01-.22.22zM2.625 15.883a.22.22 0 01-.22-.22v-3.364a.22.22 0 01.44 0v3.364a.22.22 0 01-.22.22z" fill="#008ED4"/><path d="M2.469 14.1H.3a.22.22 0 010-.439H2.47a.22.22 0 110 .44zM5.694 15.88a.217.217 0 01-.2-.13l-1.038-2.383-.969 2.359a.217.217 0 11-.402-.165l1.163-2.834a.217.217 0 01.4-.004l1.246 2.853a.217.217 0 01-.2.304z" fill="#008ED4"/><path d="M5.009 14.671H3.935a.218.218 0 110-.435H5.01a.218.218 0 110 .435zM10.568 13.464H8.53a.22.22 0 010-.438h2.04a.218.218 0 010 .438z" fill="#008ED4"/><path d="M9.54 15.881a.219.219 0 01-.219-.218v-2.35a.219.219 0 01.437 0v2.35c0 .12-.098.218-.218.218zM12.684 15.883h-1.608a.22.22 0 01-.22-.22v-3.695a.22.22 0 01.22-.221h1.626a.22.22 0 110 .442h-1.405v3.253h1.387a.22.22 0 110 .441z" fill="#008ED4"/><path d="M12.619 14.042H11.28a.221.221 0 010-.442h1.338a.221.221 0 110 .442zM13.372 15.813a.22.22 0 01-.22-.219v-4.361a.22.22 0 01.44 0v4.361a.22.22 0 01-.22.22zM15.499 15.882a.22.22 0 01-.22-.219v-4.361a.22.22 0 01.439 0v4.361a.22.22 0 01-.22.22z" fill="#008ED4"/><path d="M15.315 13.523h-1.769a.22.22 0 110-.438h1.77a.219.219 0 110 .438zM16.983 13.679h-.921a.218.218 0 01-.218-.218v-2.228a.218.218 0 11.436 0v.831h.739c.036 0 .07.009.102.025.018.01.45.245.45.763 0 .512-.459.786-.478.797a.218.218 0 01-.11.03zm-.703-.435h.635c.074-.058.22-.197.22-.392a.444.444 0 00-.18-.352h-.675v.744zM22.628 15.89a.227.227 0 01-.216-.157l-1.065-3.255-1.015 3.233a.228.228 0 01-.433-.136l1.227-3.91a.227.227 0 01.215-.159h.002c.098 0 .185.064.216.157l1.285 3.93a.227.227 0 01-.216.297z" fill="#008ED4"/><path d="M21.993 14.223h-1.17a.227.227 0 010-.454h1.17a.227.227 0 110 .454zM7.758 16.009a2.22 2.22 0 01-1.513-.602c-.488-.447-.803-1.105-.788-1.642a2.329 2.329 0 01-.014-.292 3.146 3.146 0 01.263-1.268c.051-.115.11-.222.176-.321.361-.547.93-.895 1.645-1.006l.022-.002c.136-.008.271-.004.403.012a2.04 2.04 0 011.133.523.232.232 0 11-.315.344 1.579 1.579 0 00-.876-.404 1.694 1.694 0 00-.306-.011c-.577.092-1.032.369-1.318.8-.052.08-.1.165-.14.254a2.697 2.697 0 00-.222 1.08c-.001.085.004.17.014.254l.001.038c-.014.33.179.878.637 1.298.281.259.757.549 1.421.465.085-.018.17-.043.252-.077.176-.071.344-.178.5-.316a.233.233 0 11.31.347c-.196.175-.41.31-.635.4-.112.046-.227.08-.343.104l-.016.003a2.241 2.241 0 01-.291.018z" fill="#008ED4"/><path d="M18.433 16.911H4.01a.227.227 0 010-.454h14.422a.227.227 0 010 .454z" fill="#F6A500"/><path d="M19.12 17.216H6.07a.227.227 0 010-.454h13.05a.227.227 0 110 .454zM13.728 10.892c-.792 0-1.436-.765-1.436-1.706s.644-1.707 1.436-1.707c.819 0 1.436.695 1.436 1.617a.22.22 0 01-.22.22l-2.208.001c.053.637.477 1.136.992 1.136.29 0 .767-.139.923-.311a.22.22 0 11.325.294c-.269.298-.898.456-1.248.456zm0-2.974c-.466 0-.859.41-.967.96l1.948-.002c-.082-.559-.476-.958-.98-.958z" fill="#F6A500"/><path d="M12.995 2.38a.114.114 0 01-.113-.107L12.775.66a.114.114 0 11.229-.015l.106 1.612a.114.114 0 01-.107.121h-.008z" fill="#008ED4"/><path d="M13.249.388a.388.388 0 11-.776.001.388.388 0 01.776 0zM12.99 2.262a.115.115 0 01-.067-.207l1.224-.894a.115.115 0 01.135.185l-1.224.894a.115.115 0 01-.067.022z" fill="#008ED4"/><path d="M14.885 1.059a.37.37 0 11-.742 0 .37.37 0 01.742 0zM9.735 4.923c-.43 0-.89-.044-1.172-.185-.397-.198-.82-.648-.864-1.122-.038-.334-.017-.698.42-.844.398-.145.955-.063 1.334.05-.098-.598-.09-1.646.44-1.949L9.901.87c.44-.2 1.366-.101 1.636.393.235.436.17 1.12.118 1.67-.01.12-.021.234-.028.338l-.229-.015c.008-.106.018-.222.03-.344.048-.52.11-1.165-.092-1.54-.19-.348-.944-.47-1.335-.296-.424.25-.416 1.31-.3 1.841.237.12.32.295.295.422-.017.089-.085.15-.169.153-.066 0-.224-.033-.314-.392l-.005-.017c-.387-.142-.962-.222-1.314-.094-.24.08-.31.238-.268.605.035.39.407.774.738.94.415.208 1.388.185 1.915.104l.035.226a6.27 6.27 0 01-.88.06z" fill="#008ED4"/><path d="M11.121 3.635C10.13 4.735 9.461 5.75 9.63 5.9c.168.152 1.108-.617 2.1-1.717.993-1.1 1.66-2.115 1.492-2.267-.168-.151-1.11.618-2.1 1.718z" fill="#008ED4"/><path d="M12.82 6.606c-.433 0-.857-.122-1.091-.262-.313-.18-.642-.564-.906-.873a3.917 3.917 0 00-.367-.4.115.115 0 01.146-.176c.107.09.24.246.395.427.253.296.567.664.848.824.337.203 1.378.42 1.87-.072.36-.36.236-.759.13-.964-.185-.36-.567-.633-.877-.641a.999.999 0 01-.113.007.114.114 0 01-.02-.227.854.854 0 01.121-.01c.363-.047 1.218-.3 1.504-.657.07-.087.096-.169.077-.25-.085-.385-1.079-.293-1.613-.244a5.167 5.167 0 01-.412.03.114.114 0 010-.23c.09 0 .23-.013.391-.028.689-.063 1.729-.16 1.858.423.034.151-.008.3-.122.442-.234.292-.769.52-1.21.645.25.134.478.359.62.635.229.444.166.893-.172 1.23-.272.272-.668.37-1.057.37z" fill="#008ED4"/></svg>