<svg width="44" height="13" viewBox="0 0 44 13" fill="none" xmlns="http://www.w3.org/2000/svg">
<path fill-rule="evenodd" clip-rule="evenodd" d="M8.33951 8.69208H7.18418L10.2248 1.5425L8.58316 1.54408L9.03829 0.478407C10.1977 0.47733 10.6734 0.478407 11.8326 0.478407C10.6879 3.17012 9.51437 5.9293 8.33944 8.69208H8.33951Z" fill="#37545D"/>
<path fill-rule="evenodd" clip-rule="evenodd" d="M4.7199 7.77781L5.32542 6.3593L4.1764 3.74512L0 3.74943C1.2114 6.58845 2.00801 8.45332 3.21991 11.2923L3.8212 9.88338L1.67478 4.85451L3.47138 4.85265L4.7199 7.77795V7.77781Z" fill="#37545D"/>
<path fill-rule="evenodd" clip-rule="evenodd" d="M7.83572 0.477905H9.03829L3.77878 12.6283L3.21992 11.2922L7.83572 0.477905Z" fill="#FF7103"/>
<path d="M13.2061 0.657221H14.5165V1.04142H13.5613V1.56841H14.0343C14.1646 1.56841 14.2732 1.58908 14.359 1.63029C14.445 1.67157 14.5185 1.7478 14.5793 1.8595C14.6402 1.97063 14.6709 2.10128 14.6709 2.25103C14.6709 2.40451 14.6403 2.53631 14.5786 2.64585C14.5173 2.75482 14.4475 2.83006 14.3687 2.87026C14.2903 2.91046 14.1784 2.93056 14.0336 2.93056H13.2061V0.657293V0.657221ZM13.5613 2.54628H13.9053C14.0152 2.54628 14.0928 2.53939 14.1372 2.52568C14.1817 2.5119 14.2209 2.48067 14.254 2.4315C14.287 2.38283 14.3034 2.32253 14.3034 2.25103C14.3034 2.14679 14.2743 2.07113 14.2168 2.02354C14.1589 1.97644 14.0604 1.95261 13.9208 1.95261H13.5613V2.54628V2.54628ZM15.0971 0.657221H16.3256V2.93049H15.9704V1.04142H15.4438V2.01191C15.4438 2.28972 15.4364 2.4839 15.4221 2.59338C15.4078 2.7035 15.3731 2.78964 15.3175 2.85109C15.2621 2.91247 15.1755 2.94319 15.0577 2.94319C15.016 2.94319 14.9409 2.93788 14.8315 2.9279V2.5717L14.9106 2.57328C14.9844 2.57328 15.0346 2.56057 15.06 2.53466C15.0857 2.50874 15.0984 2.44528 15.0984 2.34413L15.0971 1.95362V0.65715V0.657221ZM18.342 2.93049H17.9594L17.808 2.41298H17.1045L16.9588 2.93049H16.5833L17.2642 0.657221H17.6394L18.342 2.93049H18.342ZM17.6929 2.02878L17.4492 1.18737L17.2123 2.02878H17.6929ZM18.6206 0.65715H19.8086V1.04135H18.9758V2.93041H18.6206V0.65715ZM19.9585 1.80753C19.9585 1.57573 19.9854 1.38105 20.0389 1.22333C20.0786 1.10739 20.1333 1.00323 20.2021 0.91113C20.2712 0.819028 20.3467 0.750831 20.4287 0.705821C20.5381 0.646023 20.6643 0.6158 20.8073 0.6158C21.0662 0.6158 21.2727 0.720106 21.4281 0.928C21.5833 1.13647 21.6609 1.42598 21.6609 1.7969C21.6609 2.16474 21.5838 2.4526 21.4297 2.65999C21.2758 2.86796 21.0697 2.97169 20.8121 2.97169C20.5513 2.97169 20.3434 2.86846 20.1895 2.66157C20.0356 2.45519 19.9585 2.17048 19.9585 1.80746V1.80753ZM20.3235 1.79224C20.3235 2.04995 20.3697 2.24514 20.4615 2.37852C20.5534 2.51132 20.6702 2.57801 20.8114 2.57801C20.9531 2.57801 21.0689 2.51183 21.16 2.3801C21.2505 2.2478 21.296 2.04988 21.296 1.78578C21.296 1.52491 21.2519 1.33015 21.1633 1.20208C21.075 1.07358 20.9579 1.00948 20.8114 1.00948C20.6651 1.00948 20.5473 1.07459 20.4577 1.20431C20.3684 1.33438 20.3234 1.53022 20.3234 1.79224H20.3235ZM22.4041 2.93041V1.04135H21.8848V0.65715H23.2761V1.04135H22.7591V2.93041H22.404H22.4041ZM23.5783 0.65715H24.2796C24.4188 0.65715 24.5221 0.664543 24.5903 0.679332C24.6589 0.694766 24.7197 0.725921 24.7735 0.773013C24.8275 0.820608 24.8723 0.883636 24.9082 0.962386C24.9442 1.04128 24.9621 1.13015 24.9621 1.22807C24.9621 1.33388 24.9402 1.4318 24.896 1.52017C24.8519 1.60904 24.7919 1.67515 24.7164 1.71966C24.8229 1.76037 24.9045 1.82914 24.9621 1.92655C25.0192 2.02382 25.0479 2.13818 25.0479 2.26998C25.0479 2.37371 25.0295 2.47428 24.9923 2.5722C24.9552 2.66997 24.9045 2.74836 24.8399 2.80709C24.7759 2.8653 24.6967 2.90127 24.6025 2.91505C24.5437 2.92295 24.4012 2.92826 24.1753 2.93034H23.5782V0.657078L23.5783 0.65715ZM23.9335 1.03496V1.55886H24.1653C24.3029 1.55886 24.3886 1.55628 24.4221 1.55096C24.4824 1.54199 24.5303 1.515 24.565 1.46999C24.5997 1.42498 24.6169 1.36626 24.6169 1.29332C24.6169 1.2229 24.6017 1.16633 24.572 1.12233C24.5421 1.07839 24.4977 1.05205 24.4389 1.043C24.4038 1.03769 24.3029 1.03503 24.1369 1.03503H23.9336L23.9335 1.03496ZM23.9335 1.93667V2.54628H24.2617C24.389 2.54628 24.4703 2.54162 24.5046 2.53257C24.5572 2.51987 24.6001 2.48965 24.6331 2.44148C24.6662 2.39288 24.683 2.32877 24.683 2.24787C24.683 2.1791 24.6703 2.12138 24.6446 2.07379C24.6193 2.02619 24.5821 1.99116 24.534 1.96948C24.4858 1.9478 24.3809 1.93667 24.2196 1.93667H23.9335ZM25.2853 1.8076C25.2853 1.5758 25.3123 1.38112 25.3657 1.2234C25.4053 1.10747 25.46 1.0033 25.529 0.911202C25.598 0.8191 25.6736 0.750903 25.7557 0.705893C25.8651 0.646094 25.9913 0.615872 26.1342 0.615872C26.393 0.615872 26.5995 0.720178 26.7551 0.928072C26.9102 1.13654 26.9878 1.42606 26.9878 1.79698C26.9878 2.16481 26.9106 2.45268 26.7567 2.66007C26.6028 2.86803 26.3966 2.97176 26.139 2.97176C25.8782 2.97176 25.6703 2.86853 25.5164 2.66165C25.3625 2.45526 25.2854 2.17055 25.2854 1.80753L25.2853 1.8076ZM25.6503 1.79231C25.6503 2.05002 25.6964 2.24521 25.7883 2.37859C25.8801 2.5114 25.9969 2.57809 26.1382 2.57809C26.2798 2.57809 26.3958 2.5119 26.4868 2.38017C26.5774 2.24787 26.6227 2.04995 26.6227 1.78585C26.6227 1.52498 26.5786 1.33022 26.49 1.20215C26.4017 1.07366 26.2846 1.00955 26.1381 1.00955C25.9919 1.00955 25.874 1.07466 25.7845 1.20438C25.6951 1.33446 25.6502 1.53029 25.6502 1.79231H25.6503ZM27.3365 2.93049V0.657221H27.9043C28.1195 0.657221 28.2595 0.668348 28.3249 0.691105C28.4253 0.72549 28.5094 0.799502 28.5772 0.913786C28.645 1.02807 28.6788 1.17581 28.6788 1.35678C28.6788 1.49648 28.6592 1.61335 28.6204 1.70868C28.5812 1.80387 28.5319 1.87845 28.4718 1.93301C28.4118 1.987 28.3506 2.02303 28.2885 2.0404C28.2041 2.06208 28.0819 2.07321 27.9219 2.07321H27.6917V2.93049H27.3365V2.93049ZM27.6917 1.04142V1.68915H27.8847C28.024 1.68915 28.1167 1.67695 28.1636 1.65319C28.2105 1.62935 28.2473 1.59231 28.2738 1.54099C28.3003 1.49016 28.3138 1.43151 28.3138 1.36367C28.3138 1.28069 28.2951 1.21235 28.2578 1.15836C28.2202 1.10438 28.1734 1.07057 28.1159 1.05679C28.0738 1.04681 27.9892 1.04149 27.8619 1.04149H27.6917V1.04142ZM29.0475 0.657221H29.3783V2.17063L30.0886 0.657221H30.4413V2.93049H30.1106V1.44142L29.4003 2.93049H29.0474V0.657221H29.0475ZM31.2702 2.93049V1.04142H30.7509V0.657221H32.1422V1.04142H31.6253V2.93049H31.2702H31.2702ZM32.4444 2.93049V0.657221H33.7426V1.04142H32.7996V1.54623H33.6765V1.93043H32.7996V2.54636H33.7769V2.93056H32.4444V2.93049ZM34.2767 0.657221H35.5051V2.93049H35.1499V1.04142H34.6233V2.01191C34.6233 2.28972 34.6159 2.4839 34.6016 2.59338C34.5874 2.7035 34.5526 2.78964 34.4971 2.85109C34.4416 2.91247 34.3551 2.94319 34.2371 2.94319C34.1954 2.94319 34.1203 2.93788 34.0109 2.9279V2.5717L34.0901 2.57328C34.1639 2.57328 34.2142 2.56057 34.2395 2.53466C34.2652 2.50874 34.2779 2.44528 34.2779 2.34413L34.2766 1.95362V0.65715L34.2767 0.657221ZM35.949 0.657221H36.3041V1.56525H36.7773C37.0002 1.56525 37.1615 1.63302 37.2615 1.76848C37.3615 1.90401 37.4114 2.06646 37.4114 2.25591C37.4114 2.41104 37.3811 2.5427 37.3203 2.65124C37.26 2.76021 37.1908 2.83386 37.1129 2.87241C37.0353 2.91103 36.9231 2.93063 36.7765 2.93063H35.9491V0.657365L35.949 0.657221ZM36.3041 2.54628H36.6483C36.7597 2.54628 36.8373 2.53939 36.8801 2.52568C36.9231 2.5119 36.9618 2.48017 36.9957 2.431C37.0296 2.38182 37.0463 2.32138 37.0463 2.24952C37.0463 2.14572 37.0173 2.07012 36.9598 2.02188C36.9018 1.97379 36.8034 1.94938 36.6638 1.94938H36.3041V2.54628V2.54628ZM37.7748 2.93049V0.657221H38.13V1.55254H38.8207V0.657221H39.1759V2.93049H38.8207V1.93667H38.13V2.93049H37.7748ZM39.6259 0.657221H39.9811V1.56525H40.4542C40.5783 1.56525 40.6853 1.58758 40.7747 1.63144C40.864 1.67537 40.9388 1.75362 40.9988 1.86697C41.0584 1.98018 41.0882 2.1104 41.0882 2.25749C41.0882 2.41147 41.0571 2.54377 40.9951 2.6554C40.9326 2.7666 40.8636 2.84011 40.7873 2.87607C40.7112 2.91254 40.5998 2.93056 40.4534 2.93056H39.6259V0.657293V0.657221ZM39.9811 2.54628H40.3264C40.4362 2.54628 40.513 2.53939 40.5567 2.52568C40.5999 2.5119 40.6387 2.48017 40.6726 2.431C40.7065 2.38182 40.7232 2.32202 40.7232 2.25103C40.7232 2.15053 40.6955 2.07486 40.6405 2.02461C40.5848 1.97429 40.4848 1.94938 40.3407 1.94938H39.9812V2.54628H39.9811ZM41.2915 0.657221H41.6467V2.93049H41.2915V0.657221ZM42.0913 0.657221H42.422V2.17063L43.1324 0.657221H43.4851V2.93049H43.1543V1.44142L42.444 2.93049H42.0913V0.657221ZM42.9976 1.52588e-05H43.1617C43.1523 0.140214 43.114 0.250838 43.0474 0.330736C42.9809 0.410634 42.8947 0.450835 42.789 0.450835C42.6829 0.450835 42.5966 0.410634 42.5302 0.330736C42.4635 0.250838 42.4253 0.140214 42.4159 1.52588e-05H42.58C42.5857 0.0730222 42.6053 0.128585 42.6396 0.166129C42.6739 0.203746 42.7237 0.222195 42.789 0.222195C42.8539 0.222195 42.9037 0.203674 42.938 0.166129C42.9723 0.128657 42.9919 0.0730222 42.9977 1.52588e-05L42.9976 1.52588e-05Z" fill="#FF7103"/>
<path d="M14.3398 5.41962V5.6863H13.9607V5.41962C13.6551 5.40641 13.4398 5.31639 13.3139 5.15085C13.188 4.98466 13.1252 4.77727 13.1252 4.52803C13.1252 4.2655 13.1911 4.05546 13.3223 3.89674C13.454 3.73794 13.6667 3.65173 13.9607 3.63845V3.41304H14.3398V3.63845C14.6437 3.65173 14.8586 3.74067 14.9853 3.90513C15.1121 4.06924 15.1753 4.27771 15.1753 4.52953C15.1753 4.77985 15.1121 4.98732 14.9862 5.15243C14.8598 5.31696 14.6445 5.40641 14.3399 5.41962H14.3398ZM14.3398 5.03541C14.4408 5.03541 14.528 5.01531 14.601 4.97511C14.6735 4.93491 14.725 4.88093 14.7557 4.81259C14.7865 4.74489 14.8016 4.6454 14.8016 4.51417C14.8016 4.18654 14.6476 4.02258 14.3398 4.02258V5.03534V5.03541ZM13.9607 5.03541V4.02265C13.7975 4.02265 13.68 4.06558 13.6075 4.15172C13.535 4.23801 13.4989 4.36809 13.4989 4.54224C13.4989 4.87095 13.6529 5.03541 13.9607 5.03541V5.03541ZM15.4824 4.56342C15.4824 4.33162 15.5119 4.13693 15.5701 3.97922C15.6132 3.86328 15.6729 3.75912 15.748 3.66702C15.8233 3.57492 15.9055 3.50672 15.995 3.46171C16.1141 3.40191 16.2517 3.37169 16.4074 3.37169C16.6895 3.37169 16.9145 3.47599 17.084 3.68389C17.2531 3.89236 17.3377 4.18187 17.3377 4.55279C17.3377 4.92063 17.2535 5.20849 17.0858 5.41588C16.9181 5.62385 16.6934 5.72758 16.4127 5.72758C16.1285 5.72758 15.902 5.62435 15.7343 5.41746C15.5666 5.21108 15.4825 4.92637 15.4825 4.56335L15.4824 4.56342ZM15.8801 4.54813C15.8801 4.80584 15.9304 5.00103 16.0305 5.13441C16.1306 5.26721 16.2578 5.3339 16.4118 5.3339C16.5661 5.3339 16.6925 5.26772 16.7917 5.13599C16.8904 5.00368 16.9398 4.80577 16.9398 4.54167C16.9398 4.28079 16.8918 4.08604 16.7953 3.95797C16.6991 3.82947 16.5714 3.76537 16.4118 3.76537C16.2525 3.76537 16.124 3.83048 16.0266 3.96019C15.9291 4.09027 15.8802 4.28611 15.8802 4.54813H15.8801ZM17.7176 5.6863V3.41304H18.1047V4.30836H18.8574V3.41304H19.2444V5.6863H18.8574V4.69249H18.1047V5.6863H17.7176ZM19.8789 3.41304H21.1976V5.3021H21.3658V6.18163H21.0428V5.6863H19.8444V6.18163H19.5214V5.3021H19.6842C19.7633 5.10792 19.816 4.88251 19.8412 4.62637C19.8666 4.36967 19.8791 4.04541 19.8791 3.65316V3.41297L19.8789 3.41304ZM20.2473 3.79724C20.2473 4.48517 20.1939 4.98674 20.0872 5.30217H20.8106V3.79724H20.2474H20.2473Z" fill="#FF7103"/>
<path d="M13.2817 6.33303H14.7496V8.60629H14.3755V6.71723H13.6557V8.60629H13.2817V6.33303ZM15.1297 7.48341C15.1297 7.25161 15.1582 7.05692 15.2145 6.89921C15.2561 6.78327 15.3138 6.67911 15.3864 6.58701C15.4592 6.49491 15.5388 6.42671 15.6251 6.3817C15.7403 6.3219 15.8732 6.29168 16.0238 6.29168C16.2963 6.29168 16.5139 6.39599 16.6777 6.60388C16.8411 6.81235 16.9227 7.10186 16.9227 7.47278C16.9227 7.84062 16.8414 8.12848 16.6793 8.33587C16.5172 8.54384 16.3001 8.64757 16.0288 8.64757C15.7541 8.64757 15.5352 8.54434 15.3731 8.33745C15.211 8.13107 15.1297 7.84636 15.1297 7.48334L15.1297 7.48341ZM15.5142 7.46812C15.5142 7.72583 15.5628 7.92102 15.6595 8.0544C15.7562 8.1872 15.8792 8.25389 16.028 8.25389C16.1771 8.25389 16.2993 8.18771 16.3951 8.05598C16.4905 7.92367 16.5383 7.72576 16.5383 7.46166C16.5383 7.20078 16.4918 7.00603 16.3986 6.87796C16.3057 6.74946 16.1823 6.68536 16.028 6.68536C15.874 6.68536 15.7498 6.75047 15.6556 6.88019C15.5614 7.01026 15.5141 7.2061 15.5141 7.46812H15.5142ZM17.7054 8.60629V6.71723H17.1585V6.33303H18.6238V6.71723H18.0795V8.60629H17.7054H17.7054ZM20.4436 8.60629H20.0406L19.8811 8.08878H19.1403L18.9868 8.60629H18.5914L19.3086 6.33303H19.7037L20.4437 8.60629H20.4436ZM19.7599 7.70458L19.5032 6.86317L19.2538 7.70458H19.7599ZM20.7189 8.60629V6.33303H21.093V7.22835H21.8204V6.33303H22.1945V8.60629H21.8204V7.61248H21.093V8.60629H20.7189ZM22.6632 6.33303H23.0115V7.84643L23.7596 6.33303H24.1311V8.60629H23.7828V7.11722L23.0346 8.60629H22.6631V6.33303H22.6632ZM24.5888 8.60629V6.33303H24.9628V7.22835H25.6903V6.33303H26.0643V8.60629H25.6903V7.61248H24.9628V8.60629H24.5888ZM28.1919 8.60629H27.7891L27.6296 8.08878H26.8887L26.7352 8.60629H26.3397L27.0569 6.33303H27.452L28.192 8.60629H28.1919ZM27.5083 7.70458L27.2517 6.86317L27.0022 7.70458H27.5083Z" fill="#37545D"/>
<path d="M22.5717 3.41304H23.336C23.4876 3.41304 23.6002 3.42043 23.6745 3.43522C23.7493 3.45065 23.8155 3.48181 23.8743 3.5289C23.933 3.5765 23.9819 3.63953 24.0211 3.71828C24.0602 3.79717 24.0798 3.88604 24.0798 3.98396C24.0798 4.08977 24.0558 4.18769 24.0077 4.27606C23.9597 4.36493 23.8943 4.43104 23.812 4.47555C23.9281 4.51625 24.0171 4.58503 24.0799 4.68244C24.142 4.77971 24.1733 4.89407 24.1733 5.02587C24.1733 5.1296 24.1532 5.23017 24.1128 5.32809C24.0723 5.42586 24.0171 5.50425 23.9468 5.56297C23.8771 5.62119 23.7906 5.65716 23.688 5.67094C23.6239 5.67884 23.4686 5.68415 23.2226 5.68623H22.5718V3.41297L22.5717 3.41304ZM22.9587 3.79085V4.31475H23.2114C23.3613 4.31475 23.4548 4.31217 23.4912 4.30685C23.5571 4.29788 23.6091 4.27089 23.6469 4.22588C23.6848 4.18087 23.7034 4.12215 23.7034 4.04921C23.7034 3.97879 23.6871 3.92222 23.6545 3.87822C23.622 3.83428 23.5736 3.80794 23.5095 3.79889C23.4712 3.79358 23.3614 3.79092 23.1803 3.79092H22.9587V3.79085ZM22.9587 4.69256V5.30217H23.3164C23.4553 5.30217 23.5437 5.29751 23.5811 5.28846C23.6384 5.27576 23.6852 5.24553 23.7212 5.19737C23.7572 5.14877 23.7755 5.08466 23.7755 5.00376C23.7755 4.93499 23.7617 4.87727 23.7337 4.82968C23.7062 4.78208 23.6656 4.74705 23.6131 4.72537C23.5606 4.70369 23.4463 4.69256 23.2705 4.69256H22.9588H22.9587ZM24.6494 3.41304H25.9881V5.6863H25.601V3.79724H25.0272V4.76772C25.0272 5.04554 25.0191 5.23972 25.0036 5.34919C24.988 5.45931 24.9501 5.54546 24.8896 5.60691C24.8293 5.66829 24.7349 5.69901 24.6064 5.69901C24.561 5.69901 24.4791 5.6937 24.3598 5.68372V5.32751L24.4461 5.32909C24.5266 5.32909 24.5813 5.31639 24.6089 5.29047C24.637 5.26456 24.6509 5.2011 24.6509 5.09995L24.6494 4.70943V3.41297V3.41304ZM28.1856 5.6863H27.7687L27.6036 5.16879H26.8371L26.6783 5.6863H26.269L27.0111 3.41304H27.42L28.1856 5.6863H28.1856ZM27.4782 4.78459L27.2126 3.94318L26.9545 4.78459H27.4782ZM28.7244 3.41297H30.0431V5.30203H30.2112V6.18156H29.8883V5.68623H28.6899V6.18156H28.3669V5.30203H28.5297C28.6088 5.10785 28.6614 4.88244 28.6867 4.6263C28.7121 4.36959 28.7245 4.04533 28.7245 3.65309V3.4129L28.7244 3.41297ZM29.0928 3.79717C29.0928 4.4851 29.0394 4.98667 28.9327 5.3021H29.656V3.79717H29.0929H29.0928ZM30.5552 3.41297H30.9157V4.92637L31.6897 3.41297H32.0741V5.68623H31.7138V4.19716L30.9396 5.68623H30.5552V3.41297V3.41297ZM32.5421 5.68623V3.41297H33.1218L33.4644 4.96348L33.8029 3.41297H34.384V5.68623H34.0262L34.0249 3.89666L33.6481 5.68623H33.2762L32.9011 3.89666L32.8997 5.68623H32.542H32.5421ZM34.8553 3.41297H35.2156V4.92637L35.9896 3.41297H36.374V5.68623H36.0137V4.19716L35.2397 5.68623H34.8553V3.41297ZM36.8475 5.68623V3.41297H37.4663C37.7009 3.41297 37.8534 3.42409 37.9246 3.44685C38.034 3.48124 38.1257 3.55525 38.1995 3.66953C38.2734 3.78382 38.3103 3.93155 38.3103 4.11253C38.3103 4.25222 38.2889 4.36909 38.2466 4.46442C38.2039 4.55961 38.1501 4.6342 38.0847 4.68876C38.0193 4.74274 37.9526 4.77878 37.885 4.79615C37.7929 4.81783 37.6598 4.82896 37.4855 4.82896H37.2346V5.68623H36.8475V5.68623ZM37.2346 3.79717V4.4449H37.445C37.5968 4.4449 37.6978 4.43269 37.749 4.40893C37.8001 4.3851 37.8401 4.34806 37.869 4.29673C37.8979 4.24591 37.9126 4.18726 37.9126 4.11942C37.9126 4.03643 37.8922 3.96809 37.8517 3.91411C37.8107 3.86013 37.7596 3.82631 37.6969 3.81253C37.6511 3.80255 37.5589 3.79724 37.4201 3.79724H37.2347L37.2346 3.79717ZM40.194 5.68623H39.7772L39.6122 5.16872H38.8456L38.6868 5.68623H38.2775L39.0196 3.41297H39.4285L40.1941 5.68623H40.194ZM39.4866 4.78452L39.221 3.94311L38.9629 4.78452H39.4866Z" fill="#37545D"/>
<path d="M6.88498 11.4012H7.28411C7.27384 11.2508 7.2419 11.1256 7.18914 11.0259C7.1363 10.9262 7.06444 10.8763 6.97385 10.8763C6.90493 10.8763 6.84736 10.9069 6.80034 10.9675C6.75346 11.0282 6.72051 11.1087 6.70156 11.2093L6.44665 11.1162C6.47285 10.937 6.53014 10.7935 6.61922 10.6852C6.70802 10.5776 6.82353 10.5234 6.9661 10.5234C7.15138 10.5234 7.29631 10.6213 7.40062 10.817C7.50485 11.0127 7.55683 11.2676 7.55683 11.5818C7.55683 11.7953 7.53271 11.9788 7.48432 12.1326C7.43594 12.2865 7.36939 12.4059 7.28483 12.4906C7.20041 12.5753 7.09861 12.6176 6.97923 12.6176C6.689 12.6176 6.51025 12.4003 6.44313 11.9657L6.70156 11.8387C6.71484 11.9845 6.74758 12.0922 6.79984 12.1623C6.85231 12.2325 6.91477 12.2676 6.98742 12.2676C7.06294 12.2676 7.12704 12.2258 7.18052 12.1425C7.23393 12.0593 7.26839 11.9257 7.28411 11.7427H6.88498V11.4012V11.4012ZM8.55086 12.3439V12.581H8.29774V12.3439C8.09372 12.3322 7.95 12.2522 7.86594 12.105C7.78195 11.9573 7.74003 11.7729 7.74003 11.5513C7.74003 11.318 7.78403 11.1312 7.87154 10.9901C7.95955 10.849 8.10147 10.7723 8.29774 10.7606V10.5602H8.55086V10.7606C8.75365 10.7723 8.89715 10.8514 8.98179 10.9976C9.0665 11.1434 9.10857 11.3288 9.10857 11.5527C9.10857 11.7752 9.0665 11.9595 8.98237 12.1063C8.89809 12.2526 8.7543 12.3321 8.55086 12.3438V12.3439ZM8.55086 12.0024C8.61826 12.0024 8.67648 11.9846 8.72515 11.9488C8.77354 11.9131 8.80807 11.865 8.82845 11.8043C8.84906 11.7441 8.85918 11.6557 8.85918 11.539C8.85918 11.2479 8.75638 11.1021 8.55086 11.1021V12.0023V12.0024ZM8.29774 12.0024V11.1022C8.18884 11.1022 8.1103 11.1403 8.06192 11.2169C8.01353 11.2936 7.98948 11.4093 7.98948 11.5641C7.98948 11.8562 8.09221 12.0024 8.29766 12.0024L8.29774 12.0024ZM10.1009 12.3439V12.581H9.8479V12.3439C9.64388 12.3322 9.50009 12.2522 9.4161 12.105C9.33197 11.9573 9.29019 11.7729 9.29019 11.5513C9.29019 11.318 9.33412 11.1312 9.4217 10.9901C9.50957 10.849 9.65163 10.7723 9.8479 10.7606V10.5602H10.1009V10.7606C10.3037 10.7723 10.4472 10.8514 10.5319 10.9976C10.6164 11.1434 10.6587 11.3288 10.6587 11.5527C10.6587 11.7752 10.6164 11.9595 10.5324 12.1063C10.4481 12.2526 10.3044 12.3321 10.1009 12.3438V12.3439ZM10.1009 12.0024C10.1683 12.0024 10.2265 11.9846 10.2752 11.9488C10.3236 11.9131 10.358 11.865 10.3785 11.8043C10.3991 11.7441 10.4091 11.6557 10.4091 11.539C10.4091 11.2479 10.3063 11.1021 10.1008 11.1021V12.0023L10.1009 12.0024ZM9.8479 12.0024V11.1022C9.73892 11.1022 9.66046 11.1403 9.612 11.2169C9.56369 11.2936 9.53957 11.4093 9.53957 11.5641C9.53957 11.8562 9.64237 12.0024 9.8479 12.0024V12.0024ZM10.9171 12.581V10.5603H11.8615V10.9017H11.1755V11.3504H11.8134V11.6919H11.1755V12.2394H11.8865V12.5809H10.9171V12.581ZM12.1619 10.5603H12.4203V11.421C12.4776 11.4116 12.5165 11.3885 12.5367 11.3505C12.5568 11.3129 12.5883 11.208 12.6305 11.0358C12.6837 10.817 12.7374 10.6806 12.7912 10.6276C12.8446 10.5744 12.9305 10.5476 13.0493 10.5476C13.0552 10.5476 13.0677 10.5471 13.0867 10.5462V10.8482L13.0502 10.8468C12.9973 10.8468 12.9587 10.857 12.9344 10.8778C12.91 10.8984 12.8904 10.93 12.8754 10.9722C12.8601 11.0147 12.8379 11.1017 12.8085 11.2333C12.7927 11.3035 12.7758 11.3618 12.7574 11.4087C12.7393 11.4558 12.7069 11.5 12.6605 11.5414C12.7179 11.5668 12.7651 11.619 12.8025 11.6971C12.8399 11.7752 12.8809 11.8852 12.9255 12.0277L13.0992 12.5809H12.7963L12.6433 12.0607C12.641 12.0531 12.6359 12.0391 12.6284 12.018C12.6255 12.0108 12.6148 11.9788 12.5964 11.923C12.5637 11.8232 12.537 11.7612 12.5162 11.7362C12.4951 11.7113 12.4633 11.6986 12.4203 11.6977V12.581H12.1619V10.5603V10.5603ZM13.6297 12.581V10.9017H13.252V10.5603H14.2641V10.9017H13.8881V12.581H13.6297ZM14.4875 10.5603H14.7281V11.9055L15.2449 10.5603H15.5014V12.581H15.2608V11.2574L14.7441 12.581H14.4874V10.5603H14.4875ZM15.8175 10.5603H16.3278C16.4291 10.5603 16.5042 10.5669 16.5538 10.5801C16.6037 10.5936 16.648 10.6215 16.6871 10.6633C16.7263 10.7056 16.7589 10.7615 16.7851 10.8317C16.8113 10.9018 16.8243 10.9808 16.8243 11.0678C16.8243 11.1619 16.8082 11.2489 16.7762 11.3275C16.7441 11.4065 16.7004 11.4653 16.6455 11.5048C16.723 11.541 16.7823 11.6022 16.8243 11.6887C16.8658 11.7753 16.8866 11.877 16.8866 11.994C16.8866 12.0862 16.8734 12.1755 16.8462 12.2627C16.8192 12.3497 16.7823 12.4192 16.7355 12.4715C16.6889 12.5232 16.6312 12.5552 16.5627 12.5675C16.5199 12.5745 16.4163 12.5792 16.252 12.581H15.8175V10.5603V10.5603ZM16.0759 10.8961V11.3618H16.2446C16.3447 11.3618 16.4071 11.3595 16.4314 11.3547C16.4754 11.3467 16.51 11.3227 16.5354 11.2827C16.5606 11.2427 16.5731 11.1905 16.5731 11.1256C16.5731 11.063 16.5621 11.0127 16.5403 10.9737C16.5187 10.9346 16.4864 10.9111 16.4436 10.9032C16.4181 10.8985 16.3447 10.8961 16.2238 10.8961H16.0759ZM16.0759 11.6976V12.2394H16.3147C16.4074 12.2394 16.4665 12.2352 16.4914 12.2272C16.5298 12.2159 16.5609 12.1891 16.5848 12.1463C16.609 12.103 16.6212 12.0461 16.6212 11.9741C16.6212 11.913 16.612 11.8617 16.5932 11.8194C16.5749 11.777 16.5479 11.746 16.5128 11.7267C16.4777 11.7074 16.4015 11.6976 16.2841 11.6976H16.0759ZM17.1571 12.581V10.5603H17.4153V11.3562H17.9179V10.5603H18.1762V12.581H17.9179V11.6976H17.4153V12.581H17.1571ZM19.6458 12.581H19.3677L19.2575 12.121H18.7458L18.6397 12.581H18.3664L18.8618 10.5603H19.1348L19.6459 12.581H19.6458ZM19.1738 11.7795L18.9964 11.0316L18.8242 11.7795H19.1738ZM20.5988 12.581V11.7372H20.5465C20.4648 11.7372 20.4075 11.7564 20.374 11.795C20.3404 11.8331 20.2834 11.9484 20.2022 12.1398L20.0175 12.581H19.7096L19.8652 12.1868C19.9264 12.0302 19.9754 11.9206 20.0116 11.858C20.0482 11.795 20.0938 11.7386 20.1485 11.6892C20.0301 11.6597 19.9445 11.5943 19.8919 11.4926C19.8394 11.391 19.8129 11.2697 19.8129 11.128C19.8129 11.0048 19.8326 10.8957 19.8718 10.8007C19.911 10.7056 19.9626 10.6417 20.0268 10.6092C20.0909 10.5768 20.1868 10.5603 20.3146 10.5603H20.8571V12.581H20.5988V12.581ZM20.5988 10.9017H20.3977C20.2956 10.9017 20.2285 10.9055 20.1964 10.9125C20.1643 10.92 20.1364 10.945 20.1132 10.9873C20.0901 11.0296 20.0784 11.0847 20.0784 11.1529C20.0784 11.2239 20.0897 11.2803 20.112 11.3222C20.1343 11.3641 20.1628 11.3899 20.1973 11.4003C20.2317 11.4102 20.3021 11.4153 20.4081 11.4153H20.5987V10.9017L20.5988 10.9017ZM22.4221 12.3439V12.581H22.1691V12.3439C21.9651 12.3322 21.8213 12.2522 21.7373 12.105C21.6532 11.9573 21.6114 11.7729 21.6114 11.5513C21.6114 11.318 21.6554 11.1312 21.7429 10.9901C21.8308 10.849 21.9729 10.7723 22.1691 10.7606V10.5602H22.4221V10.7606C22.6249 10.7723 22.7684 10.8514 22.8531 10.9976C22.9377 11.1434 22.9799 11.3288 22.9799 11.5527C22.9799 11.7752 22.9377 11.9595 22.8536 12.1063C22.7693 12.2526 22.6256 12.3321 22.4221 12.3438V12.3439ZM22.4221 12.0024C22.4895 12.0024 22.5477 11.9846 22.5965 11.9488C22.6448 11.9131 22.6792 11.865 22.6998 11.8043C22.7203 11.7441 22.7304 11.6557 22.7304 11.539C22.7304 11.2479 22.6276 11.1021 22.422 11.1021V12.0023L22.4221 12.0024ZM22.1691 12.0024V11.1022C22.0602 11.1022 21.9817 11.1403 21.9332 11.2169C21.8849 11.2936 21.8608 11.4093 21.8608 11.5641C21.8608 11.8562 21.9635 12.0024 22.1691 12.0024V12.0024ZM23.2419 10.5603H23.4825V11.9055L23.9993 10.5603H24.2558V12.581H24.0152V11.2574L23.4985 12.581H23.2419V10.5603V10.5603ZM24.6637 10.5603H25.5573V12.581H25.2989V10.9017H24.9158V11.7643C24.9158 12.0113 24.9104 12.1839 24.9 12.2813C24.8896 12.3791 24.8644 12.4559 24.824 12.5103C24.7835 12.565 24.7206 12.5922 24.6347 12.5922C24.6045 12.5922 24.5498 12.5876 24.4702 12.5785V12.262L24.5277 12.2635C24.5815 12.2635 24.6181 12.2522 24.6366 12.2292C24.6552 12.206 24.6645 12.1497 24.6645 12.0597L24.6636 11.7126V10.5603H24.6637ZM27.0242 12.581H26.7459L26.6357 12.121H26.1241L26.018 12.581H25.7447L26.2401 10.5603H26.5131L27.0242 12.581ZM26.552 11.7795L26.3747 11.0316L26.2024 11.7795H26.552ZM27.2144 12.581V10.5603H27.4726V11.3562H27.9752V10.5603H28.2335V12.581H27.9752V11.6976H27.4726V12.581H27.2144ZM28.8408 12.581V10.9017H28.4629V10.5603H29.4751V10.9017H29.0991V12.581H28.8407H28.8408ZM29.6949 12.581V10.5603H30.1081C30.2646 10.5603 30.3665 10.5702 30.4141 10.5903C30.4871 10.6209 30.5483 10.6867 30.5976 10.7883C30.6469 10.8899 30.6715 11.0212 30.6715 11.182C30.6715 11.3062 30.6572 11.4102 30.629 11.4948C30.6005 11.5795 30.5646 11.6457 30.5209 11.6943C30.4772 11.7422 30.4326 11.7742 30.3875 11.7897C30.326 11.809 30.2372 11.8189 30.1209 11.8189H29.9534V12.5809H29.6949V12.581ZM29.9534 10.9017V11.4775H30.0939C30.1951 11.4775 30.2626 11.4667 30.2967 11.4455C30.3308 11.4244 30.3575 11.3913 30.3768 11.3457C30.3962 11.3007 30.4059 11.2485 30.4059 11.1882C30.4059 11.1144 30.3922 11.0536 30.3652 11.0057C30.3379 10.9578 30.3038 10.9277 30.2619 10.9154C30.2313 10.9065 30.1698 10.9018 30.0772 10.9018H29.9533L29.9534 10.9017ZM30.8592 11.5829C30.8592 11.3768 30.8788 11.2038 30.9178 11.0636C30.9465 10.9605 30.9864 10.8679 31.0366 10.786C31.0867 10.7041 31.1417 10.6435 31.2014 10.6035C31.281 10.5503 31.3728 10.5236 31.4767 10.5236C31.6651 10.5236 31.8153 10.6162 31.9285 10.8011C32.0413 10.9865 32.0978 11.2437 32.0978 11.5735C32.0978 11.9004 32.0416 12.1564 31.9297 12.3406C31.8177 12.5256 31.6676 12.6177 31.4803 12.6177C31.2905 12.6177 31.1393 12.5261 31.0274 12.3421C30.9155 12.1587 30.8592 11.9056 30.8592 11.5829V11.5829ZM31.1247 11.5691C31.1247 11.7982 31.1583 11.9719 31.2251 12.0903C31.292 12.2084 31.3768 12.2676 31.4796 12.2676C31.5827 12.2676 31.6671 12.2088 31.7333 12.0918C31.7992 11.9742 31.8322 11.7982 31.8322 11.5635C31.8322 11.3317 31.8002 11.1585 31.7356 11.0447C31.6715 10.9305 31.5862 10.8735 31.4796 10.8735C31.3733 10.8735 31.2875 10.9313 31.2224 11.0466C31.1574 11.1623 31.1247 11.3363 31.1247 11.5691ZM32.355 10.5603H33.3689V12.581H33.1105V10.9017H32.6133V12.581H32.355V10.5603ZM33.6885 10.5603H33.9291V11.9055L34.4459 10.5603H34.7024V12.581H34.4619V11.2574L33.9451 12.581H33.6886V10.5603H33.6885ZM35.7812 12.581V11.7372H35.7289C35.6473 11.7372 35.5899 11.7564 35.5564 11.795C35.5228 11.8331 35.4658 11.9484 35.3847 12.1398L35.2 12.581H34.892L35.0476 12.1868C35.1089 12.0302 35.1578 11.9206 35.1942 11.858C35.2306 11.795 35.2763 11.7386 35.331 11.6892C35.2126 11.6597 35.127 11.5943 35.0744 11.4926C35.0219 11.391 34.9955 11.2697 34.9955 11.128C34.9955 11.0048 35.0151 10.8957 35.0543 10.8007C35.0935 10.7056 35.1452 10.6417 35.2093 10.6092C35.2735 10.5768 35.3694 10.5603 35.4971 10.5603H36.0397V12.581H35.7813L35.7812 12.581ZM35.7812 10.9017H35.5802C35.478 10.9017 35.4109 10.9055 35.3788 10.9125C35.3467 10.92 35.3188 10.945 35.2956 10.9873C35.2725 11.0296 35.2609 11.0847 35.2609 11.1529C35.2609 11.2239 35.2722 11.2803 35.2944 11.3222C35.3168 11.3641 35.3453 11.3899 35.3797 11.4003C35.4141 11.4102 35.4845 11.4153 35.5905 11.4153H35.7812V10.9017L35.7812 10.9017Z" fill="#37545D"/>
</svg>
