<svg width="44" height="13" viewBox="0 0 44 13" fill="none" xmlns="http://www.w3.org/2000/svg">
<path fill-rule="evenodd" clip-rule="evenodd" d="M8.33949 8.69211H7.18423L10.2248 1.54255L8.58316 1.54415L9.03828 0.478511C10.1977 0.477405 10.6734 0.478511 11.8326 0.478511C10.6879 3.17015 9.51443 5.92941 8.33949 8.69224V8.69211Z" fill="#272C41"/>
<path fill-rule="evenodd" clip-rule="evenodd" d="M4.7199 7.77781L5.32538 6.35933L4.17638 3.74514L0 3.74944C1.21145 6.58849 2.00797 8.45336 3.21991 11.2923L3.82121 9.8834L1.67481 4.85455L3.47145 4.8527L4.7199 7.77805V7.77781Z" fill="#272C41"/>
<path fill-rule="evenodd" clip-rule="evenodd" d="M7.83568 0.477898H9.03828L3.7788 12.6283L3.21991 11.2922L7.83568 0.477898Z" fill="#4BAAF3"/>
<path d="M13.2061 0.657266H14.5165V1.04145H13.5612V1.5685H14.0343C14.1646 1.5685 14.2731 1.58915 14.3589 1.63033C14.4449 1.67164 14.5184 1.74786 14.5793 1.85949C14.6402 1.97063 14.6708 2.10132 14.6708 2.25093C14.6708 2.40448 14.6402 2.53628 14.5784 2.64569C14.5172 2.75474 14.4474 2.82986 14.3686 2.87006C14.2901 2.91026 14.1783 2.9303 14.0333 2.9303H13.2058V0.65702L13.2061 0.657266ZM13.5612 2.54636H13.9053C14.0151 2.54636 14.0927 2.53947 14.1372 2.5257C14.1817 2.51193 14.2209 2.48071 14.254 2.43153C14.2869 2.38285 14.3034 2.32248 14.3034 2.25106C14.3034 2.1468 14.2743 2.0712 14.2169 2.02362C14.159 1.97653 14.0605 1.95268 13.9208 1.95268H13.5612V2.54636V2.54636ZM15.0971 0.657266H16.3257V2.93054H15.9705V1.04145H15.4439V2.01194C15.4439 2.28978 15.4366 2.4839 15.4222 2.59344C15.4079 2.7036 15.3731 2.78978 15.3175 2.85112C15.2621 2.91247 15.1756 2.94321 15.0577 2.94321C15.016 2.94321 14.9409 2.93792 14.8314 2.92796V2.57181L14.9106 2.5734C14.9844 2.5734 15.0347 2.56074 15.0599 2.5348C15.0857 2.50886 15.0983 2.44542 15.0983 2.34424L15.097 1.95379V0.657266H15.0971ZM18.342 2.93054H17.9594L17.8081 2.41309H17.1046L16.9589 2.93054H16.5835L17.2643 0.657266H17.6395L18.3421 2.93054H18.342ZM17.6929 2.0289L17.4492 1.1875L17.2123 2.0289H17.6929ZM18.6204 0.657266H19.8084V1.04145H18.9756V2.93054H18.6204V0.657266ZM19.9584 1.80761C19.9584 1.57587 19.9854 1.38114 20.0389 1.2234C20.0785 1.10747 20.1332 1.00334 20.2021 0.91126C20.2712 0.819178 20.3466 0.750946 20.4286 0.70595C20.5381 0.646202 20.6642 0.615958 20.8072 0.615958C21.0661 0.615958 21.2726 0.720211 21.428 0.928102C21.5832 1.13661 21.6609 1.42613 21.6609 1.79704C21.6609 2.16488 21.5837 2.4528 21.4296 2.6602C21.2757 2.86821 21.0697 2.97185 20.812 2.97185C20.5511 2.97185 20.3433 2.86871 20.1894 2.6618C20.0355 2.45538 19.9583 2.17065 19.9583 1.80774L19.9584 1.80761ZM20.3234 1.79237C20.3234 2.05005 20.3696 2.24528 20.4615 2.37867C20.5534 2.51144 20.6702 2.5782 20.8114 2.5782C20.9531 2.5782 21.0689 2.51206 21.16 2.38027C21.2506 2.24798 21.296 2.05005 21.296 1.78598C21.296 1.5251 21.2518 1.33036 21.1633 1.20226C21.0752 1.07379 20.9579 1.00961 20.8115 1.00961C20.6653 1.00961 20.5474 1.07477 20.4579 1.20447C20.3685 1.33454 20.3237 1.53038 20.3237 1.79237H20.3234ZM22.404 2.93054V1.04145H21.8847V0.657266H23.2761V1.04145H22.7592V2.93054H22.4042H22.404ZM23.5782 0.657266H24.2795C24.4187 0.657266 24.522 0.664643 24.5902 0.679518C24.6588 0.694886 24.7196 0.726112 24.7735 0.773198C24.8273 0.820776 24.8723 0.883844 24.9082 0.962648C24.9442 1.04158 24.962 1.13046 24.962 1.22832C24.962 1.33417 24.94 1.43203 24.8959 1.52043C24.8518 1.60931 24.7918 1.67545 24.7163 1.71996C24.8228 1.76065 24.9044 1.8295 24.962 1.92686C25.0191 2.02411 25.0479 2.13844 25.0479 2.27023C25.0479 2.374 25.0294 2.47456 24.9923 2.57242C24.9552 2.67028 24.9045 2.74859 24.84 2.80736C24.7759 2.86551 24.6967 2.90153 24.6024 2.9153C24.5437 2.92317 24.4012 2.92845 24.1754 2.93054H23.5781V0.657266H23.5782ZM23.9334 1.03506V1.55891H24.1651C24.3027 1.55891 24.3884 1.55632 24.422 1.55104C24.4823 1.54206 24.5302 1.51502 24.5648 1.47002C24.5995 1.42502 24.6167 1.36626 24.6167 1.29336C24.6167 1.22291 24.6015 1.16636 24.5718 1.12235C24.542 1.07846 24.4976 1.05203 24.4387 1.04305C24.4035 1.03776 24.3027 1.03506 24.1366 1.03506H23.9333H23.9334ZM23.9334 1.9367V2.54636H24.2617C24.3889 2.54636 24.4703 2.54169 24.5046 2.53271C24.5572 2.52005 24.6001 2.48981 24.6331 2.44161C24.6661 2.39305 24.683 2.32888 24.683 2.24798C24.683 2.17914 24.6703 2.12148 24.6446 2.0739C24.6193 2.02632 24.5822 1.99128 24.534 1.96965C24.4858 1.94789 24.3809 1.93682 24.2196 1.93682H23.9335L23.9334 1.9367ZM25.2853 1.80761C25.2853 1.57587 25.3123 1.38114 25.3657 1.2234C25.4052 1.10747 25.46 1.00334 25.5289 0.91126C25.5979 0.819178 25.6735 0.750946 25.7555 0.70595C25.8649 0.646202 25.9911 0.615958 26.134 0.615958C26.3928 0.615958 26.5994 0.720211 26.7549 0.928102C26.91 1.13661 26.9876 1.42613 26.9876 1.79704C26.9876 2.16488 26.9104 2.4528 26.7565 2.6602C26.6026 2.86821 26.3964 2.97185 26.1388 2.97185C25.8781 2.97185 25.6702 2.86871 25.5163 2.6618C25.3623 2.45538 25.2853 2.17065 25.2853 1.80774V1.80761ZM25.6503 1.79237C25.6503 2.05005 25.6964 2.24528 25.7883 2.37867C25.8802 2.51144 25.997 2.5782 26.1382 2.5782C26.2798 2.5782 26.3958 2.51206 26.4869 2.38027C26.5775 2.24798 26.6227 2.05005 26.6227 1.78598C26.6227 1.5251 26.5786 1.33036 26.4901 1.20226C26.4019 1.07379 26.2848 1.00961 26.1382 1.00961C25.992 1.00961 25.874 1.07477 25.7846 1.20447C25.6953 1.33454 25.6504 1.53038 25.6504 1.79237H25.6503ZM27.3364 2.93054V0.657266H27.9042C28.1194 0.657266 28.2594 0.668331 28.3248 0.691197C28.4253 0.725621 28.5093 0.79963 28.5771 0.913841C28.6448 1.02818 28.6786 1.17583 28.6786 1.35679C28.6786 1.49645 28.6591 1.61337 28.6202 1.70865C28.581 1.8038 28.5317 1.87843 28.4716 1.93289C28.4116 1.98686 28.3504 2.02288 28.2883 2.04034C28.2038 2.0621 28.0818 2.07316 27.9217 2.07316H27.6916V2.93042H27.3364V2.93054ZM27.6916 1.04145V1.6891H27.8846C28.0239 1.6891 28.1166 1.67693 28.1635 1.65308C28.2104 1.62923 28.2472 1.59222 28.2737 1.54083C28.3002 1.49006 28.3136 1.43129 28.3136 1.36355C28.3136 1.28057 28.2949 1.21222 28.2577 1.15825C28.2201 1.10427 28.1732 1.07047 28.1157 1.0567C28.0736 1.04674 27.9891 1.04145 27.8617 1.04145H27.6916V1.04145ZM29.0473 0.657266H29.3782V2.17065L30.0885 0.657266H30.4412V2.93054H30.1105V1.4415L29.4002 2.93054H29.0473V0.657266ZM31.2701 2.93054V1.04145H30.7508V0.657266H32.1421V1.04145H31.6253V2.93054H31.2702H31.2701ZM32.4443 2.93054V0.657266H33.7425V1.04145H32.7996V1.54624H33.6765V1.93043H32.7996V2.54636H33.7768V2.93054H32.4443ZM34.2766 0.657266H35.505V2.93054H35.1498V1.04145H34.6233V2.01194C34.6233 2.28978 34.6159 2.4839 34.6015 2.59344C34.5872 2.7036 34.5524 2.78978 34.497 2.85112C34.4416 2.91247 34.355 2.94321 34.237 2.94321C34.1953 2.94321 34.1202 2.93792 34.0108 2.92796V2.57181L34.0899 2.5734C34.1638 2.5734 34.214 2.56074 34.2393 2.5348C34.2651 2.50886 34.2777 2.44542 34.2777 2.34424L34.2764 1.95379V0.657266H34.2766ZM35.9489 0.657266H36.304V1.5653H36.7772C37.0001 1.5653 37.1612 1.63304 37.2614 1.76852C37.3614 1.904 37.4112 2.06652 37.4112 2.25597C37.4112 2.41112 37.3809 2.54279 37.3202 2.65122C37.2598 2.76027 37.1907 2.83379 37.1128 2.87239C37.0352 2.911 36.9228 2.93054 36.7764 2.93054H35.9489V0.657266V0.657266ZM36.304 2.54636H36.6482C36.7596 2.54636 36.8372 2.53947 36.8799 2.5257C36.9228 2.51193 36.9617 2.48022 36.9955 2.43104C37.0294 2.38186 37.0462 2.3215 37.0462 2.24958C37.0462 2.14582 37.0171 2.07021 36.9596 2.02202C36.9016 1.97395 36.8032 1.94949 36.6636 1.94949H36.3038V2.54636H36.304ZM37.7747 2.93054V0.657266H38.1299V1.55251H38.8205V0.657266H39.1757V2.93054H38.8205V1.9367H38.1299V2.93054H37.7747ZM39.6258 0.657266H39.981V1.5653H40.454C40.5781 1.5653 40.6852 1.58755 40.7745 1.63144C40.8638 1.67533 40.9387 1.75364 40.9987 1.86699C41.0583 1.98022 41.088 2.11041 41.088 2.25745C41.088 2.41149 41.0569 2.54378 40.995 2.65541C40.9325 2.76667 40.8634 2.84006 40.7872 2.87608C40.7112 2.91259 40.5999 2.93054 40.4533 2.93054H39.6258V0.657266ZM39.981 2.54636H40.3263C40.4361 2.54636 40.5129 2.53947 40.5566 2.5257C40.5997 2.51193 40.6386 2.48022 40.6725 2.43104C40.7064 2.38186 40.7232 2.32199 40.7232 2.25106C40.7232 2.15061 40.6955 2.07488 40.6403 2.0246C40.5847 1.97432 40.4847 1.94936 40.3404 1.94936H39.981V2.54623V2.54636ZM41.2914 0.657266H41.6466V2.93054H41.2914V0.657266ZM42.0912 0.657266H42.4219V2.17065L43.1323 0.657266H43.485V2.93054H43.1543V1.4415L42.4439 2.93054H42.0912V0.657266ZM42.9977 3.05176e-05H43.1617C43.1523 0.140182 43.114 0.250827 43.0473 0.330738C42.9808 0.410649 42.8946 0.45085 42.7889 0.45085C42.6828 0.45085 42.5966 0.410649 42.5301 0.330738C42.4635 0.250827 42.4253 0.140182 42.4158 3.05176e-05H42.5799C42.5856 0.0730567 42.6052 0.128625 42.6395 0.166122C42.6738 0.203742 42.7236 0.222183 42.7889 0.222183C42.8538 0.222183 42.9037 0.203742 42.9379 0.166122C42.9722 0.128625 42.9918 0.0730567 42.9977 3.05176e-05V3.05176e-05Z" fill="#4BAAF3"/>
<path d="M14.3398 5.41958V5.68624H13.9607V5.41958C13.655 5.40642 13.4398 5.31643 13.3139 5.15083C13.188 4.98462 13.1252 4.77722 13.1252 4.52802C13.1252 4.26554 13.1911 4.05544 13.3222 3.89673C13.4539 3.73789 13.6666 3.65171 13.9607 3.63843V3.41308H14.3398V3.63843C14.6437 3.65171 14.8586 3.74059 14.9854 3.90509C15.1121 4.06921 15.1753 4.27772 15.1753 4.5295C15.1753 4.7798 15.1121 4.98732 14.9862 5.15243C14.8598 5.31692 14.6446 5.40642 14.3398 5.41958V5.41958ZM14.3398 5.03539C14.4409 5.03539 14.528 5.01535 14.6011 4.97515C14.6735 4.93495 14.7251 4.88098 14.7557 4.81263C14.7864 4.74489 14.8016 4.64543 14.8016 4.51425C14.8016 4.18662 14.6475 4.02262 14.3398 4.02262V5.03539ZM13.9607 5.03539V4.02262C13.7975 4.02262 13.68 4.06552 13.6075 4.1517C13.5349 4.23801 13.4989 4.36808 13.4989 4.54216C13.4989 4.8709 13.6529 5.03539 13.9607 5.03539ZM15.4824 4.56343C15.4824 4.33169 15.5118 4.13695 15.5701 3.97922C15.6132 3.86329 15.6727 3.75916 15.7478 3.66707C15.8231 3.57499 15.9054 3.50676 15.9948 3.46176C16.1141 3.40202 16.2515 3.37177 16.4072 3.37177C16.6893 3.37177 16.9143 3.47603 17.0838 3.68392C17.2529 3.89242 17.3376 4.18195 17.3376 4.55285C17.3376 4.92069 17.2534 5.20861 17.0857 5.41601C16.918 5.62403 16.6932 5.72767 16.4126 5.72767C16.1283 5.72767 15.9019 5.62452 15.7342 5.41761C15.5664 5.2112 15.4824 4.92647 15.4824 4.56355V4.56343ZM15.8801 4.54818C15.8801 4.80586 15.9304 5.00109 16.0305 5.13448C16.1305 5.26726 16.2578 5.33401 16.4118 5.33401C16.5661 5.33401 16.6925 5.26787 16.7917 5.13608C16.8904 5.0038 16.9399 4.80586 16.9399 4.54179C16.9399 4.28091 16.8919 4.08618 16.7953 3.95807C16.6991 3.8296 16.5715 3.76543 16.4118 3.76543C16.2525 3.76543 16.1239 3.83058 16.0265 3.96029C15.929 4.09036 15.8801 4.2862 15.8801 4.54818V4.54818ZM17.7176 5.68636V3.41308H18.1047V4.30833H18.8575V3.41308H19.2445V5.68636H18.8575V4.69251H18.1047V5.68636H17.7176ZM19.8789 3.41308H21.1975V5.30217H21.3656V6.18168H21.0426V5.68636H19.8442V6.18168H19.5212V5.30217H19.684C19.763 5.10793 19.8157 4.88258 19.841 4.6265C19.8664 4.3698 19.8787 4.04548 19.8787 3.6533V3.41308H19.8789ZM20.2473 3.79727C20.2473 4.48511 20.194 4.98671 20.0872 5.30217H20.8105V3.79727H20.2473Z" fill="#4BAAF3"/>
<path d="M13.2817 6.33302H14.7496V8.6063H14.3755V6.7172H13.6558V8.6063H13.2817V6.33302ZM15.1298 7.48336C15.1298 7.25162 15.1583 7.05689 15.2146 6.89915C15.2562 6.78322 15.314 6.67909 15.3865 6.58701C15.4592 6.49493 15.5388 6.4267 15.6251 6.3817C15.7403 6.32195 15.8734 6.29171 16.0238 6.29171C16.2964 6.29171 16.514 6.39596 16.6778 6.60385C16.8411 6.81236 16.9229 7.10188 16.9229 7.47279C16.9229 7.84063 16.8416 8.12855 16.6795 8.33595C16.5173 8.54397 16.3003 8.6476 16.029 8.6476C15.7544 8.6476 15.5354 8.54446 15.3732 8.33755C15.2111 8.13113 15.1298 7.84641 15.1298 7.48349V7.48336ZM15.5143 7.46812C15.5143 7.7258 15.5628 7.92103 15.6597 8.05442C15.7564 8.18719 15.8794 8.25395 16.0281 8.25395C16.1773 8.25395 16.2995 8.18781 16.3952 8.05602C16.4906 7.92373 16.5385 7.7258 16.5385 7.46173C16.5385 7.20085 16.492 7.00611 16.3988 6.87801C16.3059 6.74954 16.1826 6.68536 16.0283 6.68536C15.8742 6.68536 15.75 6.75052 15.6559 6.88022C15.5617 7.01029 15.5144 7.20614 15.5144 7.46812H15.5143ZM17.7054 8.6063V6.7172H17.1584V6.33302H18.6238V6.7172H18.0795V8.6063H17.7054ZM20.4436 8.6063H20.0406L19.8812 8.08884H19.1404L18.9868 8.6063H18.5913L19.3085 6.33302H19.7037L20.4436 8.6063ZM19.76 7.70466L19.5033 6.86326L19.2538 7.70466H19.76ZM20.719 8.6063V6.33302H21.0931V7.22826H21.8206V6.33302H22.1947V8.6063H21.8206V7.61245H21.0931V8.6063H20.719ZM22.6633 6.33302H23.0117V7.84641L23.7598 6.33302H24.1313V8.6063H23.7831V7.11725L23.0348 8.6063H22.6633V6.33302ZM24.5889 8.6063V6.33302H24.963V7.22826H25.6905V6.33302H26.0646V8.6063H25.6905V7.61245H24.963V8.6063H24.5889V8.6063ZM28.1922 8.6063H27.7893L27.6298 8.08884H26.8889L26.7353 8.6063H26.3398L27.0571 6.33302H27.4522L28.1922 8.6063V8.6063ZM27.5085 7.70466L27.2519 6.86326L27.0025 7.70466H27.5086H27.5085Z" fill="#272C41"/>
<path d="M22.5717 3.41308H23.336C23.4876 3.41308 23.6002 3.42046 23.6745 3.43533C23.7492 3.4507 23.8155 3.48193 23.8743 3.52901C23.9329 3.57659 23.9818 3.63966 24.0211 3.71846C24.0602 3.79739 24.0797 3.88627 24.0797 3.98413C24.0797 4.08999 24.0557 4.18785 24.0077 4.27624C23.9597 4.36512 23.8943 4.43127 23.8119 4.47577C23.928 4.51646 24.0169 4.58531 24.0797 4.68268C24.1419 4.77992 24.1731 4.89426 24.1731 5.02605C24.1731 5.12981 24.1531 5.23037 24.1127 5.32823C24.0722 5.42609 24.017 5.50441 23.9467 5.56317C23.877 5.62132 23.7906 5.65734 23.6879 5.67111C23.6238 5.67898 23.4685 5.68427 23.2224 5.68636H22.5716V3.41308H22.5717ZM22.9587 3.79087V4.31472H23.2114C23.3612 4.31472 23.4548 4.31214 23.4912 4.30685C23.5571 4.29788 23.6091 4.27083 23.6468 4.22583C23.6847 4.18084 23.7034 4.12207 23.7034 4.04917C23.7034 3.97872 23.687 3.92217 23.6545 3.87816C23.622 3.83427 23.5734 3.80784 23.5095 3.79886C23.4712 3.79358 23.3614 3.79087 23.1803 3.79087H22.9586H22.9587ZM22.9587 4.69251V5.30217H23.3165C23.4553 5.30217 23.5438 5.2975 23.5812 5.28852C23.6385 5.27586 23.6853 5.24562 23.7213 5.19743C23.7574 5.14886 23.7757 5.08469 23.7757 5.0038C23.7757 4.93495 23.7619 4.87729 23.7339 4.82971C23.7062 4.78214 23.6658 4.7471 23.6133 4.72546C23.5608 4.7037 23.4464 4.69264 23.2706 4.69264H22.9589L22.9587 4.69251ZM24.6494 3.41296H25.9881V5.68623H25.601V3.79714H25.0272V4.76763C25.0272 5.04547 25.0191 5.23959 25.0035 5.34913C24.988 5.45929 24.9501 5.54547 24.8896 5.60682C24.8293 5.66816 24.7349 5.6989 24.6064 5.6989C24.561 5.6989 24.4791 5.69361 24.3599 5.68365V5.3275L24.4462 5.32909C24.5267 5.32909 24.5814 5.31643 24.609 5.29049C24.6371 5.26455 24.6509 5.20111 24.6509 5.09993L24.6495 4.70948V3.41296H24.6494ZM28.1855 5.68623H27.7686L27.6035 5.16878H26.837L26.6782 5.68623H26.2689L27.011 3.41296H27.4197L28.1854 5.68623H28.1855ZM27.4781 4.78459L27.2126 3.9432L26.9545 4.78459H27.4783H27.4781ZM28.7244 3.41296H30.043V5.30205H30.2111V6.18156H29.8881V5.68623H28.6897V6.18156H28.3667V5.30205H28.5295C28.6086 5.1078 28.6612 4.88245 28.6865 4.62637C28.712 4.36967 28.7242 4.04536 28.7242 3.65318V3.41296H28.7244ZM29.0928 3.79714C29.0928 4.48499 29.0395 4.98658 28.9328 5.30205H29.656V3.79714H29.0928V3.79714ZM30.5552 3.41296H30.9156V4.92634L31.6897 3.41296H32.0741V5.68623H31.7138V4.19719L30.9396 5.68623H30.5552V3.41296V3.41296ZM32.5421 5.68623V3.41296H33.1218L33.4644 4.96347L33.8029 3.41296H34.384V5.68623H34.0263L34.0249 3.8966L33.6481 5.68623H33.2762L32.9012 3.8966L32.8999 5.68623H32.5421ZM34.8552 3.41296H35.2157V4.92634L35.9897 3.41296H36.3742V5.68623H36.0138V4.19719L35.2397 5.68623H34.8552V3.41296V3.41296ZM36.8475 5.68623V3.41296H37.4662C37.7007 3.41296 37.8534 3.42402 37.9246 3.44689C38.034 3.48131 38.1257 3.55532 38.1995 3.66953C38.2733 3.78387 38.3102 3.93152 38.3102 4.11248C38.3102 4.25214 38.2888 4.36906 38.2465 4.46434C38.2039 4.55949 38.15 4.63412 38.0846 4.68858C38.0192 4.74255 37.9525 4.77857 37.885 4.79603C37.7929 4.81779 37.6598 4.82885 37.4854 4.82885H37.2345V5.68611H36.8474L36.8475 5.68623ZM37.2346 3.79714V4.44479H37.445C37.5968 4.44479 37.6977 4.43262 37.749 4.40877C37.8001 4.38492 37.8401 4.34791 37.869 4.29652C37.8979 4.24575 37.9126 4.18698 37.9126 4.11924C37.9126 4.03626 37.8922 3.96791 37.8518 3.91394C37.8108 3.85996 37.7597 3.82616 37.697 3.81239C37.6511 3.80243 37.5589 3.79714 37.4201 3.79714H37.2347H37.2346ZM40.194 5.68623H39.7771L39.6122 5.16878H38.8455L38.6867 5.68623H38.2774L39.0195 3.41296H39.4284L40.1939 5.68623H40.194ZM39.4866 4.78459L39.2211 3.9432L38.963 4.78459H39.4868H39.4866Z" fill="#272C41"/>
<path d="M6.88499 11.4012H7.28405C7.27373 11.2507 7.24189 11.1256 7.18902 11.0259C7.13628 10.9262 7.06436 10.8763 6.97375 10.8763C6.90491 10.8763 6.84725 10.9069 6.80029 10.9675C6.75345 11.0282 6.7205 11.1087 6.70144 11.2093L6.44659 11.1162C6.47277 10.937 6.53006 10.7935 6.6192 10.6853C6.70796 10.5776 6.82352 10.5235 6.96613 10.5235C7.1514 10.5235 7.29635 10.6214 7.4006 10.817C7.50485 11.0127 7.55686 11.2676 7.55686 11.5818C7.55686 11.7954 7.53276 11.9788 7.48432 12.1326C7.43588 12.2865 7.36937 12.4059 7.28479 12.4906C7.20033 12.5753 7.09854 12.6176 6.97916 12.6176C6.6889 12.6176 6.51015 12.4002 6.44302 11.9656L6.70144 11.8386C6.71472 11.9844 6.74742 12.0921 6.79979 12.1622C6.85229 12.2323 6.91474 12.2676 6.9874 12.2676C7.06289 12.2676 7.12706 12.2258 7.18054 12.1424C7.23389 12.0592 7.26844 11.9257 7.28418 11.7426H6.88511V11.4011L6.88499 11.4012ZM8.55095 12.3438V12.5809H8.29781V12.3438C8.09386 12.3321 7.95014 12.2521 7.86605 12.1049C7.78208 11.9573 7.74016 11.7729 7.74016 11.5513C7.74016 11.318 7.78417 11.1312 7.87171 10.9901C7.95973 10.849 8.1016 10.7723 8.29794 10.7606V10.5602H8.55107V10.7606C8.75392 10.7723 8.89739 10.8514 8.98197 10.9976C9.06668 11.1435 9.10872 11.3288 9.10872 11.5527C9.10872 11.7752 9.06668 11.9595 8.98247 12.1063C8.89813 12.2526 8.75441 12.3321 8.55095 12.3438V12.3438ZM8.55095 12.0023C8.61832 12.0023 8.67659 11.9844 8.72528 11.9487C8.77371 11.913 8.80814 11.8649 8.82855 11.8042C8.8492 11.744 8.85928 11.6556 8.85928 11.5389C8.85928 11.2478 8.7565 11.102 8.55095 11.102V12.0021V12.0023ZM8.29781 12.0023V11.1021C8.18889 11.1021 8.11045 11.1402 8.06202 11.2168C8.01358 11.2935 7.9896 11.4092 7.9896 11.564C7.9896 11.8561 8.09226 12.0023 8.29781 12.0023V12.0023ZM10.101 12.3438V12.5809H9.84796V12.3438C9.644 12.3321 9.50016 12.2521 9.4162 12.1049C9.33211 11.9573 9.29031 11.7729 9.29031 11.5513C9.29031 11.318 9.3342 11.1312 9.42185 10.9901C9.50975 10.849 9.65175 10.7723 9.84808 10.7606V10.5602H10.1011V10.7606C10.3039 10.7723 10.4474 10.8514 10.5321 10.9976C10.6167 11.1435 10.6589 11.3288 10.6589 11.5527C10.6589 11.7752 10.6167 11.9595 10.5326 12.1063C10.4483 12.2526 10.3046 12.3321 10.1011 12.3438H10.101ZM10.101 12.0023C10.1683 12.0023 10.2266 11.9844 10.2754 11.9487C10.3237 11.913 10.3583 11.8649 10.3787 11.8042C10.3992 11.744 10.4093 11.6556 10.4093 11.5389C10.4093 11.2478 10.3065 11.102 10.101 11.102V12.0021V12.0023ZM9.84796 12.0023V11.1021C9.73891 11.1021 9.6606 11.1402 9.61204 11.2168C9.56372 11.2935 9.53963 11.4092 9.53963 11.564C9.53963 11.8561 9.64241 12.0023 9.84796 12.0023ZM10.9172 12.5808V10.5602H11.8616V10.9017H11.1756V11.3504H11.8135V11.692H11.1756V12.2394H11.8865V12.5809H10.9172V12.5808ZM12.1619 10.5602H12.4204V11.421C12.4776 11.4117 12.5165 11.3886 12.5368 11.3504C12.5569 11.3128 12.5885 11.208 12.6306 11.0357C12.6838 10.817 12.7375 10.6807 12.7913 10.6276C12.8446 10.5743 12.9306 10.5475 13.0493 10.5475C13.0552 10.5475 13.0678 10.547 13.0867 10.5462V10.8481L13.0502 10.8468C12.9973 10.8468 12.9587 10.8571 12.9344 10.8777C12.91 10.8984 12.8904 10.93 12.8752 10.9723C12.86 11.0147 12.8377 11.1017 12.8085 11.2334C12.7926 11.3035 12.7758 11.3617 12.7573 11.4088C12.7393 11.4559 12.7068 11.5002 12.6605 11.5415C12.7179 11.5669 12.7651 11.6191 12.8024 11.6971C12.8398 11.7752 12.8809 11.8852 12.9254 12.0277L13.0991 12.5809H12.7962L12.6431 12.0608C12.6407 12.0532 12.6357 12.039 12.6282 12.018C12.6253 12.0109 12.6146 11.9789 12.5963 11.923C12.5636 11.8231 12.5369 11.7612 12.5161 11.7362C12.495 11.7113 12.4633 11.6986 12.4202 11.6977V12.5811H12.1618V10.5604L12.1619 10.5602ZM13.6297 12.5808V10.9016H13.252V10.5601H14.2641V10.9016H13.8881V12.5808H13.6297ZM14.4875 10.5602H14.7281V11.9055L15.2449 10.5602H15.5015V12.5808H15.2609V11.2573L14.7442 12.5808H14.4875V10.5602V10.5602ZM15.8174 10.5602H16.3277C16.429 10.5602 16.5042 10.5668 16.5537 10.58C16.6036 10.5936 16.6479 10.6214 16.6871 10.6632C16.7262 10.7055 16.7589 10.7616 16.7851 10.8316C16.8111 10.9017 16.8243 10.9808 16.8243 11.0677C16.8243 11.1617 16.8082 11.2488 16.7762 11.3273C16.7441 11.4064 16.7004 11.4651 16.6455 11.5046C16.723 11.5407 16.7824 11.602 16.8243 11.6885C16.8659 11.7751 16.8866 11.8767 16.8866 11.9938C16.8866 12.086 16.8734 12.1752 16.8462 12.2624C16.8191 12.3494 16.7823 12.419 16.7354 12.4712C16.6888 12.5229 16.6312 12.5549 16.5626 12.5672C16.5198 12.5742 16.4161 12.5789 16.252 12.5808H15.8174V10.5602V10.5602ZM16.0758 10.8959V11.3616H16.2445C16.3446 11.3616 16.407 11.3593 16.4313 11.3546C16.4753 11.3466 16.5099 11.3227 16.5353 11.2826C16.5605 11.2426 16.573 11.1904 16.573 11.1255C16.573 11.0629 16.5621 11.0126 16.5403 10.9735C16.5187 10.9344 16.4863 10.9109 16.4436 10.9029C16.4181 10.8983 16.3447 10.8958 16.2237 10.8958H16.0758V10.8959ZM16.0758 11.6975V12.2393H16.3146C16.4073 12.2393 16.4664 12.2351 16.4913 12.2271C16.5296 12.2158 16.5607 12.189 16.5848 12.1462C16.6089 12.103 16.6211 12.046 16.6211 11.974C16.6211 11.9129 16.6119 11.8616 16.5932 11.8193C16.5747 11.7769 16.5478 11.7459 16.5126 11.7266C16.4775 11.7073 16.4014 11.6975 16.284 11.6975H16.0757H16.0758ZM17.1571 12.5808V10.5602H17.4154V11.3561H17.918V10.5602H18.1763V12.5808H17.918V11.6975H17.4154V12.5808H17.1571ZM19.6459 12.5808H19.3677L19.2575 12.1208H18.7458L18.6397 12.5808H18.3666L18.862 10.5602H19.1349L19.646 12.5808H19.6459ZM19.1738 11.7794L18.9964 11.0315L18.8242 11.7794H19.1738ZM20.5988 12.5808V11.737H20.5465C20.4649 11.737 20.4075 11.7561 20.3741 11.7947C20.3405 11.8329 20.2835 11.9482 20.2023 12.1396L20.0177 12.5808H19.7097L19.8653 12.1867C19.9266 12.03 19.9755 11.9205 20.0118 11.8579C20.0484 11.795 20.094 11.7386 20.1487 11.6891C20.0303 11.6595 19.9448 11.5941 19.8921 11.4926C19.8396 11.391 19.8131 11.2695 19.8131 11.1279C19.8131 11.0047 19.8328 10.8956 19.872 10.8007C19.9112 10.7055 19.9628 10.6417 20.027 10.6091C20.091 10.5767 20.1869 10.5602 20.3148 10.5602H20.8573V12.5808H20.599H20.5988ZM20.5988 10.9016H20.3977C20.2956 10.9016 20.2285 10.9054 20.1964 10.9124C20.1643 10.9199 20.1364 10.9449 20.1132 10.9872C20.0901 11.0294 20.0784 11.0845 20.0784 11.1528C20.0784 11.2238 20.0897 11.2801 20.112 11.322C20.1342 11.364 20.1627 11.3898 20.1973 11.4001C20.2317 11.4101 20.302 11.4151 20.4081 11.4151H20.5988V10.9015V10.9016ZM22.4221 12.3437V12.5808H22.1691V12.3437C21.9651 12.332 21.8213 12.252 21.7373 12.1048C21.6532 11.9571 21.6114 11.7727 21.6114 11.5512C21.6114 11.3179 21.6553 11.1311 21.743 10.99C21.8309 10.8488 21.9729 10.7721 22.1692 10.7605V10.5601H22.4222V10.7605C22.6251 10.7721 22.7686 10.8513 22.8533 10.9975C22.9378 11.1434 22.98 11.3287 22.98 11.5526C22.98 11.7751 22.9378 11.9594 22.8537 12.1061C22.7694 12.2524 22.6257 12.332 22.4222 12.3437H22.4221ZM22.4221 12.0021C22.4895 12.0021 22.5478 11.9843 22.5966 11.9485C22.6449 11.9129 22.6794 11.8648 22.6998 11.8041C22.7204 11.7438 22.7304 11.6555 22.7304 11.5388C22.7304 11.2477 22.6277 11.1019 22.4221 11.1019V12.002V12.0021ZM22.1691 12.0021V11.102C22.0601 11.102 21.9817 11.1401 21.9332 11.2167C21.8849 11.2934 21.8608 11.4091 21.8608 11.5639C21.8608 11.856 21.9634 12.0021 22.1691 12.0021V12.0021ZM23.2419 10.5601H23.4825V11.9054L23.9992 10.5601H24.2558V12.5807H24.0152V11.2571L23.4984 12.5807H23.2419V10.5601V10.5601ZM24.6637 10.5601H25.5573V12.5807H25.2989V10.9015H24.9158V11.764C24.9158 12.011 24.9104 12.1836 24.9001 12.281C24.8896 12.3788 24.8644 12.4554 24.8241 12.51C24.7837 12.5646 24.7207 12.5919 24.6348 12.5919C24.6045 12.5919 24.5498 12.5872 24.4703 12.5782V12.2618L24.5279 12.2631C24.5818 12.2631 24.6183 12.2518 24.6367 12.2288C24.6553 12.2057 24.6647 12.1493 24.6647 12.0594L24.6638 11.7124V10.5599L24.6637 10.5601ZM27.0241 12.5807H26.7458L26.6356 12.1207H26.1241L26.018 12.5807H25.7448L26.2402 10.5601H26.5132L27.0242 12.5807H27.0241ZM26.5519 11.7793L26.3746 11.0314L26.2024 11.7793H26.552H26.5519ZM27.2143 12.5807V10.5601H27.4726V11.356H27.9752V10.5601H28.2335V12.5807H27.9752V11.6974H27.4726V12.5807H27.2143ZM28.8407 12.5807V10.9015H28.4629V10.5599H29.475V10.9015H29.0991V12.5807H28.8407ZM29.6949 12.5807V10.5601H30.1079C30.2646 10.5601 30.3663 10.57 30.4139 10.5902C30.487 10.6208 30.5482 10.6866 30.5975 10.7882C30.6468 10.8898 30.6714 11.0211 30.6714 11.1819C30.6714 11.3061 30.6571 11.4101 30.6289 11.4946C30.6004 11.5794 30.5644 11.6456 30.5209 11.6942C30.4772 11.7421 30.4326 11.7741 30.3875 11.7896C30.326 11.8089 30.2371 11.8188 30.1208 11.8188H29.9534V12.5808H29.695L29.6949 12.5807ZM29.9533 10.9015V11.4772H30.0938C30.195 11.4772 30.2625 11.4664 30.2966 11.4452C30.3308 11.4241 30.3575 11.3911 30.3768 11.3455C30.3962 11.3004 30.4059 11.2483 30.4059 11.1879C30.4059 11.1141 30.3923 11.0534 30.3652 11.0055C30.3379 10.9575 30.3039 10.9275 30.262 10.9151C30.2314 10.9063 30.1699 10.9015 30.0773 10.9015H29.9534H29.9533ZM30.8592 11.5825C30.8592 11.3765 30.8788 11.2034 30.9177 11.0633C30.9465 10.9602 30.9863 10.8675 31.0365 10.7858C31.0867 10.7039 31.1416 10.6433 31.2012 10.6033C31.2808 10.5501 31.3726 10.5233 31.4765 10.5233C31.6648 10.5233 31.8151 10.616 31.9283 10.8008C32.0412 10.9862 32.0976 11.2434 32.0976 11.5732C32.0976 11.9001 32.0414 12.1561 31.9295 12.3403C31.8175 12.5253 31.6675 12.6175 31.4802 12.6175C31.2904 12.6175 31.1391 12.5257 31.0273 12.3418C30.9154 12.1583 30.8592 11.9053 30.8592 11.5827V11.5825ZM31.1248 11.5689C31.1248 11.7981 31.1583 11.9717 31.2252 12.09C31.292 12.2082 31.3769 12.2673 31.4797 12.2673C31.5828 12.2673 31.6671 12.2086 31.7333 12.0914C31.7993 11.9737 31.8323 11.7979 31.8323 11.5632C31.8323 11.3314 31.8002 11.1583 31.7357 11.0444C31.6716 10.9301 31.5863 10.8732 31.4797 10.8732C31.3733 10.8732 31.2875 10.931 31.2225 11.0463C31.1575 11.162 31.1248 11.3359 31.1248 11.5688V11.5689ZM32.355 10.5601H33.3689V12.5807H33.1105V10.9015H32.6133V12.5807H32.355V10.5601V10.5601ZM33.6885 10.5601H33.9291V11.9054L34.4459 10.5601H34.7024V12.5807H34.462V11.2571L33.9451 12.5807H33.6885V10.5601V10.5601ZM35.7812 12.5807V11.7368H35.729C35.6473 11.7368 35.5899 11.756 35.5565 11.7946C35.5229 11.8327 35.4659 11.948 35.3847 12.1395L35.2001 12.5807H34.8921L35.0478 12.1866C35.109 12.0299 35.1579 11.9204 35.1943 11.8578C35.2308 11.7949 35.2766 11.7384 35.3311 11.689C35.2128 11.6594 35.1272 11.594 35.0746 11.4924C35.0221 11.3909 34.9956 11.2694 34.9956 11.1278C34.9956 11.0046 35.0152 10.8954 35.0544 10.8005C35.0936 10.7054 35.1453 10.6416 35.2094 10.609C35.2736 10.5765 35.3695 10.5601 35.4972 10.5601H36.0399V12.5807H35.7815H35.7812ZM35.7812 10.9015H35.5802C35.4781 10.9015 35.4109 10.9053 35.3788 10.9123C35.3468 10.9198 35.3189 10.9447 35.2956 10.987C35.2725 11.0293 35.2609 11.0844 35.2609 11.1526C35.2609 11.2237 35.2723 11.28 35.2944 11.3219C35.3166 11.3638 35.3452 11.3897 35.3797 11.4C35.4141 11.4099 35.4845 11.415 35.5905 11.415H35.7812V10.9013V10.9015Z" fill="#272C41"/>
</svg>
