<svg width="44" height="13" fill="none" xmlns="http://www.w3.org/2000/svg"><path fill-rule="evenodd" clip-rule="evenodd" d="M8.34 8.692H7.183l3.04-7.15-1.64.002L9.037.48c1.16-.002 1.635 0 2.795 0L8.339 8.692zM4.72 7.778l.605-1.419-1.149-2.614L0 3.75c1.211 2.84 2.008 4.704 3.22 7.543l.601-1.409-2.146-5.028 1.796-.002L4.72 7.778z" fill="#272C41"/><path fill-rule="evenodd" clip-rule="evenodd" d="M7.836.478h1.202l-5.26 12.15-.558-1.336L7.836.478z" fill="#4BAAF3"/><path d="M13.206.657h1.31v.384h-.955v.528h.473c.13 0 .24.02.325.061.086.042.16.118.22.23.061.11.092.241.092.39 0 .154-.03.286-.093.396a.532.532 0 01-.21.224.751.751 0 01-.335.06h-.827V.657zm.355 1.89h.344a.89.89 0 00.232-.021.222.222 0 00.117-.094.315.315 0 00.05-.18c0-.105-.03-.18-.087-.228-.058-.047-.157-.071-.296-.071h-.36v.593zm1.536-1.89h1.229v2.274h-.356V1.04h-.526v.97c0 .279-.007.473-.022.582a.463.463 0 01-.104.258c-.056.061-.142.092-.26.092-.042 0-.117-.005-.227-.015v-.356l.08.001c.073 0 .124-.012.149-.038.026-.026.038-.09.038-.19l-.001-.391V.657zm3.245 2.274h-.383l-.15-.518h-.704l-.146.518h-.375l.68-2.274h.376l.702 2.274zm-.65-.902l-.243-.841-.237.84h.48zM18.62.657h1.188v.384h-.832v1.89h-.356V.657zm1.338 1.15c0-.231.027-.426.08-.584.04-.116.095-.22.164-.312a.721.721 0 01.227-.205c.11-.06.235-.09.378-.09.26 0 .466.104.621.312.155.209.233.498.233.869 0 .368-.077.656-.231.863a.73.73 0 01-.618.312.736.736 0 01-.623-.31c-.154-.207-.23-.491-.23-.854zm.365-.015c0 .258.047.453.139.587.091.132.208.2.35.2.141 0 .257-.067.348-.199.09-.132.136-.33.136-.594 0-.26-.044-.456-.133-.584a.407.407 0 00-.352-.192.412.412 0 00-.353.194c-.09.13-.134.326-.134.588zm2.081 1.139V1.04h-.52V.657h1.392v.384h-.517v1.89h-.355zM23.578.657h.701c.14 0 .243.008.311.023a.41.41 0 01.183.093c.054.048.1.11.135.19a.634.634 0 01.054.265.647.647 0 01-.066.292.463.463 0 01-.18.2c.107.04.188.11.246.207a.666.666 0 01.086.343.845.845 0 01-.056.302.597.597 0 01-.152.235.439.439 0 01-.238.108 4.743 4.743 0 01-.427.016h-.597V.657zm.355.378v.524h.232c.138 0 .223-.003.257-.008a.212.212 0 00.143-.081.281.281 0 00.052-.177.299.299 0 00-.045-.17.186.186 0 00-.133-.08 3.115 3.115 0 00-.302-.008h-.204zm0 .902v.61h.329c.127 0 .208-.005.243-.014a.213.213 0 00.128-.091.338.338 0 00.05-.194.361.361 0 00-.038-.174.23.23 0 00-.111-.104c-.048-.022-.153-.033-.314-.033h-.287zm1.352-.13c0-.231.027-.426.08-.584.04-.116.095-.22.164-.312a.72.72 0 01.227-.205c.109-.06.235-.09.378-.09.259 0 .465.104.62.312.156.209.234.498.234.869 0 .368-.078.656-.232.863a.73.73 0 01-.617.312.736.736 0 01-.623-.31c-.154-.207-.23-.491-.23-.854zm.365-.015c0 .258.046.453.138.587.092.132.209.2.35.2.142 0 .258-.067.349-.199.09-.132.136-.33.136-.594 0-.26-.044-.456-.133-.584a.407.407 0 00-.352-.192.412.412 0 00-.353.194c-.09.13-.135.326-.135.588zm1.686 1.139V.657h.568c.215 0 .355.011.42.034.101.035.185.109.253.223a.86.86 0 01.102.443c0 .14-.02.256-.059.352a.61.61 0 01-.148.224.467.467 0 01-.184.107 1.56 1.56 0 01-.366.033h-.23v.857h-.356zm.356-1.89v.648h.193c.139 0 .232-.012.278-.036a.25.25 0 00.11-.112c.027-.05.04-.11.04-.177a.354.354 0 00-.055-.206.238.238 0 00-.142-.101 1.348 1.348 0 00-.254-.016h-.17zm1.355-.384h.331v1.514l.71-1.514h.353v2.274h-.33V1.44l-.71 1.49h-.354V.657zm2.223 2.274V1.04h-.52V.657h1.392v.384h-.517v1.89h-.355zm1.174 0V.657h1.298v.384H32.8v.505h.877v.384H32.8v.616h.977v.385h-1.333zM34.277.657h1.228v2.274h-.355V1.04h-.527v.97c0 .279-.007.473-.021.582a.464.464 0 01-.105.258c-.055.061-.142.092-.26.092-.042 0-.117-.005-.226-.015v-.356l.079.001c.074 0 .124-.012.15-.038.025-.026.038-.09.038-.19l-.002-.391V.657zm1.672 0h.355v.908h.473c.223 0 .384.068.484.204.1.135.15.298.15.487 0 .155-.03.287-.09.395a.51.51 0 01-.208.221.776.776 0 01-.337.059h-.827V.657zm.355 1.89h.344a.872.872 0 00.232-.021.23.23 0 00.115-.095c.034-.05.051-.11.051-.181 0-.104-.029-.18-.086-.228-.058-.048-.157-.073-.296-.073h-.36v.597zm1.47.384V.657h.356v.896h.69V.657h.356v2.274h-.355v-.994h-.691v.994h-.355zM39.627.657h.355v.908h.473a.72.72 0 01.32.066.52.52 0 01.225.236c.06.113.089.243.089.39a.807.807 0 01-.093.398.503.503 0 01-.208.221.798.798 0 01-.334.055h-.827V.657zm.355 1.89h.345c.11 0 .187-.008.23-.021a.23.23 0 00.117-.095.31.31 0 00.05-.18c0-.1-.027-.176-.083-.226-.055-.05-.155-.076-.3-.076h-.359v.597zm1.31-1.89h.356v2.274h-.356V.657zm.8 0h.33v1.514l.711-1.514h.353v2.274h-.33V1.44l-.711 1.49h-.353V.657zM42.998 0h.164a.563.563 0 01-.115.33.32.32 0 01-.258.12.321.321 0 01-.259-.12.564.564 0 01-.114-.33h.164a.271.271 0 00.06.166c.034.038.084.056.149.056.065 0 .115-.018.149-.056a.273.273 0 00.06-.166zM14.34 5.42v.266h-.38V5.42c-.305-.014-.52-.104-.646-.27a1.001 1.001 0 01-.189-.622c0-.262.066-.473.197-.631.132-.16.345-.245.639-.259v-.225h.379v.225c.304.014.519.103.645.267.127.164.19.373.19.624 0 .25-.063.458-.189.623-.126.165-.341.254-.646.268zm0-.385c.1 0 .188-.02.261-.06a.347.347 0 00.155-.162.752.752 0 00.046-.299c0-.327-.154-.491-.462-.491v1.012zm-.38 0V4.023c-.163 0-.28.043-.353.129-.072.086-.108.216-.108.39 0 .329.154.493.462.493zm1.522-.472c0-.231.03-.426.088-.584.043-.116.103-.22.178-.312a.767.767 0 01.247-.205.91.91 0 01.412-.09c.282 0 .507.104.677.312.169.208.254.498.254.869 0 .368-.085.656-.252.863a.82.82 0 01-.673.312.828.828 0 01-.679-.31c-.168-.207-.252-.492-.252-.854zm.398-.015c0 .258.05.453.15.586.1.133.228.2.382.2s.28-.066.38-.198c.098-.132.148-.33.148-.594 0-.261-.048-.456-.145-.584a.455.455 0 00-.383-.193.46.46 0 00-.386.195c-.097.13-.146.326-.146.588zm1.838 1.138V3.413h.387v.895h.753v-.895h.386v2.273h-.386v-.993h-.753v.993h-.387zm2.16-2.273h1.32v1.89h.168v.879h-.323v-.496h-1.199v.496h-.323v-.88h.163c.079-.194.132-.42.157-.675.025-.257.038-.582.038-.974v-.24zm.37.384c0 .688-.054 1.19-.16 1.505h.723V3.797h-.564z" fill="#4BAAF3"/><path d="M13.282 6.333h1.468v2.273h-.374V6.717h-.72v1.89h-.374V6.332zm1.848 1.15c0-.231.028-.426.085-.584.041-.116.099-.22.171-.312a.748.748 0 01.24-.205.854.854 0 01.398-.09.79.79 0 01.654.312c.163.208.245.498.245.869 0 .368-.081.656-.243.863a.783.783 0 01-.651.312.79.79 0 01-.656-.31c-.162-.207-.243-.492-.243-.855zm.384-.015c0 .258.049.453.146.586a.44.44 0 00.735.002c.096-.132.143-.33.143-.594 0-.261-.046-.456-.14-.584a.435.435 0 00-.37-.193.44.44 0 00-.372.195c-.094.13-.142.326-.142.588zm2.191 1.138V6.717h-.547v-.384h1.466v.384h-.544v1.89h-.375zm2.739 0h-.403l-.16-.517h-.74l-.154.517h-.396l.717-2.273h.396l.74 2.273zm-.684-.901l-.257-.842-.25.842h.507zm.959.901V6.333h.374v.895h.728v-.895h.374v2.273h-.374v-.994h-.728v.994h-.374zm1.944-2.273h.349v1.513l.748-1.513h.371v2.273h-.348V7.117l-.748 1.49h-.372V6.332zm1.926 2.273V6.333h.374v.895h.727v-.895h.375v2.273h-.375v-.994h-.727v.994h-.374zm3.603 0h-.403l-.16-.517h-.74l-.154.517h-.395l.717-2.273h.395l.74 2.273zm-.683-.901l-.257-.842-.25.842h.507zM22.572 3.413h.764c.152 0 .264.007.338.022a.464.464 0 01.2.094.591.591 0 01.205.455.603.603 0 01-.071.292.478.478 0 01-.196.2c.116.04.205.11.268.207a.623.623 0 01.093.343c0 .104-.02.204-.06.302a.596.596 0 01-.166.235.498.498 0 01-.26.108c-.063.008-.219.013-.465.015h-.65V3.413zm.387.378v.524h.252a2.8 2.8 0 00.28-.008.236.236 0 00.156-.081.265.265 0 00.056-.177.28.28 0 00-.049-.17.207.207 0 00-.145-.08 3.7 3.7 0 00-.329-.008h-.221zm0 .902v.61h.358c.138 0 .227-.005.264-.014a.233.233 0 00.14-.092.316.316 0 00.055-.193.337.337 0 00-.042-.174.243.243 0 00-.12-.105c-.053-.021-.168-.032-.343-.032h-.312zm1.69-1.28h1.34v2.273H25.6V3.797h-.574v.97c0 .278-.008.473-.024.582a.444.444 0 01-.113.258c-.06.061-.155.092-.284.092-.045 0-.127-.005-.246-.015v-.357l.086.002c.08 0 .135-.013.163-.039.028-.025.042-.089.042-.19l-.002-.39V3.412zm3.537 2.273h-.417l-.165-.517h-.767l-.159.517h-.41l.743-2.273h.409l.765 2.273zm-.708-.901l-.265-.842-.259.842h.524zm1.246-1.372h1.319v1.89h.168v.879h-.323v-.496H28.69v.496h-.323v-.88h.162c.08-.194.132-.42.157-.676.026-.256.038-.58.038-.973v-.24zm.369.384c0 .688-.053 1.19-.16 1.505h.723V3.797h-.563zm1.462-.384h.36v1.513l.775-1.513h.384v2.273h-.36V4.197l-.774 1.49h-.385V3.412zm1.987 2.273V3.413h.58l.342 1.55.339-1.55h.581v2.273h-.358l-.001-1.79-.377 1.79h-.372l-.375-1.79-.001 1.79h-.358zm2.313-2.273h.36v1.513l.775-1.513h.384v2.273h-.36V4.197l-.774 1.49h-.385V3.412zm1.992 2.273V3.413h.62c.234 0 .386.011.458.034.109.034.2.108.275.223.073.114.11.262.11.442 0 .14-.021.257-.064.352a.609.609 0 01-.161.225.522.522 0 01-.2.107 1.848 1.848 0 01-.4.033h-.25v.857h-.388zm.388-1.889v.648h.21c.152 0 .253-.012.304-.036a.262.262 0 00.12-.112.351.351 0 00.044-.178.333.333 0 00-.061-.205.26.26 0 00-.155-.102 1.6 1.6 0 00-.277-.015h-.185zm2.959 1.89h-.417l-.165-.518h-.767l-.158.517h-.41l.742-2.273h.41l.765 2.273zm-.707-.902l-.266-.842-.258.842h.524zM6.885 11.401h.399a.935.935 0 00-.095-.375c-.053-.1-.125-.15-.215-.15a.212.212 0 00-.174.091.562.562 0 00-.099.242l-.254-.093a.859.859 0 01.172-.43.428.428 0 01.347-.162c.185 0 .33.097.435.293.104.196.156.45.156.765 0 .213-.024.397-.073.55a.865.865 0 01-.2.359.416.416 0 01-.305.127c-.29 0-.469-.218-.536-.652l.258-.127a.642.642 0 00.099.323c.052.07.115.106.187.106.076 0 .14-.042.194-.126.053-.083.087-.216.103-.4h-.399v-.34zm1.666.943v.237h-.253v-.237c-.204-.012-.348-.092-.432-.24a1.106 1.106 0 01-.126-.553c0-.233.044-.42.132-.56.088-.142.23-.219.426-.23v-.2h.253v.2c.203.011.346.09.431.237.085.146.127.33.127.555a1.1 1.1 0 01-.127.553c-.084.147-.228.226-.431.238zm0-.342a.287.287 0 00.174-.053.289.289 0 00.104-.145c.02-.06.03-.148.03-.265 0-.291-.102-.437-.308-.437v.9zm-.253 0v-.9c-.11 0-.188.038-.236.115-.048.076-.072.192-.072.347 0 .292.102.438.308.438zm1.803.342v.237h-.253v-.237c-.204-.012-.348-.092-.432-.24a1.105 1.105 0 01-.126-.553c0-.233.044-.42.132-.56.088-.142.23-.219.426-.23v-.2h.253v.2c.203.011.346.09.431.237.085.146.127.33.127.555a1.1 1.1 0 01-.126.553c-.085.147-.228.226-.432.238zm0-.342a.288.288 0 00.174-.053.29.29 0 00.104-.145.87.87 0 00.03-.265c0-.291-.103-.437-.308-.437v.9zm-.253 0v-.9c-.11 0-.187.038-.236.115-.048.076-.072.192-.072.347 0 .292.102.438.308.438zm1.07.579v-2.02h.944v.34h-.686v.45h.637v.341h-.637v.547h.71v.342h-.969zm1.244-2.02h.258v.86c.058-.01.097-.032.117-.07.02-.038.051-.143.094-.315.053-.219.107-.355.16-.408.054-.054.14-.08.258-.08l.038-.002v.302l-.037-.001c-.053 0-.091.01-.116.03a.217.217 0 00-.059.095 2.66 2.66 0 00-.066.261c-.016.07-.033.129-.052.176a.346.346 0 01-.096.132.301.301 0 01.141.156c.038.078.079.188.123.33l.174.554h-.303l-.153-.52a3.055 3.055 0 01-.047-.138.69.69 0 00-.08-.187c-.021-.025-.053-.037-.096-.038v.883h-.258v-2.02zm1.468 2.02V10.9h-.378v-.34h1.012v.34h-.376v1.68h-.258zm.857-2.02h.241v1.345l.517-1.346h.257v2.02h-.241v-1.323l-.517 1.324h-.256v-2.02zm1.33 0h.51c.102 0 .177.006.227.019.05.014.094.041.133.083.04.043.072.099.098.169.026.07.04.149.04.236a.684.684 0 01-.049.26.393.393 0 01-.13.177.373.373 0 01.178.183.698.698 0 01.063.306.895.895 0 01-.04.268.555.555 0 01-.112.21.297.297 0 01-.172.095 2.836 2.836 0 01-.311.014h-.435v-2.02zm.259.335v.466h.168c.1 0 .163-.003.187-.007a.151.151 0 00.104-.072.29.29 0 00.038-.157.31.31 0 00-.033-.152.134.134 0 00-.096-.071 1.881 1.881 0 00-.22-.007h-.148zm0 .801v.542h.239a.763.763 0 00.176-.012.16.16 0 00.094-.08.352.352 0 00.036-.173.381.381 0 00-.028-.155.186.186 0 00-.08-.092.566.566 0 00-.229-.03h-.208zm1.081.884v-2.02h.258v.795h.503v-.796h.258v2.02h-.258v-.883h-.503v.884h-.258zm2.489 0h-.278l-.11-.46h-.512l-.106.46h-.273l.495-2.02h.273l.511 2.02zm-.472-.802l-.178-.748-.172.748h.35zm1.425.802v-.844h-.052c-.082 0-.14.02-.173.058-.034.038-.09.153-.172.345l-.184.44h-.308l.155-.393c.062-.157.11-.266.147-.33a.704.704 0 01.137-.168.377.377 0 01-.257-.196.785.785 0 01-.079-.365c0-.123.02-.232.059-.327.04-.095.09-.16.155-.192a.66.66 0 01.288-.049h.542v2.02H20.6zm0-1.68h-.201c-.102 0-.17.004-.202.011-.032.008-.06.033-.083.075a.344.344 0 00-.035.166c0 .07.012.127.034.169.022.042.05.068.085.078a.93.93 0 00.211.015h.19v-.513zm1.823 1.443v.237h-.253v-.237c-.204-.012-.348-.092-.432-.24a1.105 1.105 0 01-.126-.553c0-.233.044-.42.132-.561.088-.141.23-.218.426-.23v-.2h.253v.2c.203.012.347.091.431.238.085.145.127.33.127.555a1.1 1.1 0 01-.126.553c-.085.146-.228.226-.432.238zm0-.342a.287.287 0 00.175-.054.288.288 0 00.103-.144c.02-.06.03-.149.03-.265 0-.291-.102-.437-.308-.437v.9zm-.253 0v-.9c-.109 0-.187.038-.236.115-.048.076-.072.192-.072.347 0 .292.102.438.308.438zm1.073-1.442h.24v1.345L24 10.56h.257v2.02h-.24v-1.323l-.518 1.324h-.256v-2.02zm1.422 0h.893v2.02H25.3v-1.678h-.383v.862c0 .247-.006.42-.016.517a.467.467 0 01-.076.229c-.04.055-.103.082-.19.082-.03 0-.084-.005-.164-.014v-.316l.058.001c.054 0 .09-.011.109-.034.018-.023.028-.08.028-.17l-.001-.347V10.56zm2.36 2.02h-.278l-.11-.46h-.512l-.106.46h-.273l.495-2.02h.273l.511 2.02zm-.472-.8l-.177-.749-.173.748h.35zm.662.8v-2.02h.259v.796h.502v-.796h.258v2.02h-.258v-.883h-.502v.884h-.259zm1.627 0v-1.678h-.378v-.342h1.012v.341h-.376v1.68h-.258zm.854 0v-2.02h.413c.157 0 .258.01.306.03.073.03.134.097.183.198.05.102.074.233.074.394a.996.996 0 01-.042.313.566.566 0 01-.108.2.333.333 0 01-.134.095.939.939 0 01-.266.029h-.168v.762h-.258zm.258-1.678v.575h.14c.102 0 .17-.01.204-.032a.207.207 0 00.08-.1.395.395 0 00.029-.157.367.367 0 00-.04-.183.178.178 0 00-.104-.09.808.808 0 00-.185-.013h-.124zm.906.68c0-.206.02-.379.059-.519.029-.103.068-.196.119-.277a.484.484 0 01.44-.262c.188 0 .338.092.451.277.113.185.17.442.17.772 0 .327-.057.583-.168.767-.113.185-.262.277-.45.277-.19 0-.34-.091-.453-.275-.112-.184-.168-.437-.168-.76zm.266-.013c0 .23.033.403.1.521s.152.177.255.177c.103 0 .187-.058.253-.176.066-.117.1-.293.1-.528 0-.232-.033-.405-.097-.519-.064-.114-.15-.17-.256-.17-.107 0-.192.057-.258.172-.065.116-.097.29-.097.523zm1.23-1.009h1.014v2.02h-.258v-1.678h-.498v1.679h-.258v-2.02zm1.334 0h.24v1.345l.517-1.345h.256v2.02h-.24v-1.323l-.517 1.324h-.257v-2.02zm2.092 2.02v-.843h-.052c-.082 0-.14.019-.172.058-.034.038-.091.153-.172.345l-.185.44h-.308l.156-.393c.061-.157.11-.267.146-.33a.704.704 0 01.137-.168.377.377 0 01-.256-.197.785.785 0 01-.08-.364c0-.123.02-.233.06-.328.039-.095.09-.158.154-.191a.66.66 0 01.288-.049h.543v2.02h-.258zm0-1.678h-.2c-.103 0-.17.003-.202.01-.032.008-.06.033-.083.075a.344.344 0 00-.035.166c0 .07.011.127.033.169.023.042.051.068.086.078.034.01.104.015.21.015h.191v-.514z" fill="#272C41"/></svg>