<svg width="23" height="18" viewBox="0 0 23 18"  xmlns="http://www.w3.org/2000/svg">
<path d="M4.4062 11.6459C4.35151 11.6459 4.29743 11.6262 4.25497 11.5886L0.45533 8.20509L0.453952 11.4116C0.453952 11.5373 0.352327 11.6388 0.227191 11.6388H0.227019C0.101625 11.6388 0 11.537 0 11.4116L0.00129184 7.69895C0.00129184 7.60947 0.0538266 7.52825 0.135729 7.49174C0.21677 7.45496 0.312625 7.46986 0.379542 7.52937L4.17918 10.9124V7.75622C4.17918 7.63083 4.2808 7.52911 4.40629 7.52911C4.53177 7.52911 4.63322 7.63083 4.63322 7.75622V11.4185C4.63322 11.5083 4.58103 11.5897 4.4993 11.6261C4.46933 11.6393 4.43789 11.646 4.40629 11.646L4.4062 11.6459Z" fill="#F6A500"/>
<path d="M7.03853 10.8013C6.91279 10.8013 6.81125 10.6996 6.81125 10.5741V8.10992C6.77362 8.0542 6.55048 7.92605 6.20418 7.92605C5.85762 7.92605 5.55834 8.21646 5.55542 8.21939C5.46611 8.3074 5.32271 8.3068 5.23461 8.21801C5.14642 8.12939 5.14634 7.98617 5.23487 7.89781C5.25209 7.88041 5.66677 7.47184 6.20418 7.47184C6.72591 7.47184 7.26555 7.70567 7.26555 8.09701V10.5742C7.26555 10.6997 7.16401 10.8013 7.03853 10.8013V10.8013Z" fill="#F6A500"/>
<path d="M5.85142 10.6635C5.67633 10.6635 5.50753 10.632 5.36509 10.5505C5.20619 10.4597 5.01216 10.2673 4.9889 9.86846C4.96083 9.38609 5.15917 9.12212 5.33047 8.98562C5.8956 8.5358 6.92278 8.81828 7.03784 8.85221C7.15824 8.88735 7.22731 9.01352 7.19192 9.13384C7.15695 9.25423 7.03113 9.3233 6.91038 9.28817C6.65959 9.21548 5.93677 9.08285 5.61295 9.34139C5.48411 9.44396 5.42847 9.60759 5.44208 9.84219C5.45448 10.0548 5.53268 10.1231 5.59056 10.1563C5.87889 10.3214 6.56899 10.0702 6.85793 9.9228C6.96955 9.86562 7.1064 9.90997 7.16341 10.0218C7.22042 10.1334 7.17581 10.2702 7.06437 10.3272C6.97919 10.3707 6.38598 10.6635 5.85116 10.6635L5.85142 10.6635Z" fill="#F6A500"/>
<path d="M22.5755 10.8013C22.4502 10.8013 22.3484 10.6996 22.3484 10.5741V8.10992C22.3107 8.0542 22.0875 7.92605 21.7413 7.92605C21.3948 7.92605 21.0954 8.21646 21.0926 8.21964C21.0035 8.30732 20.8598 8.30671 20.7718 8.21792C20.6835 8.1293 20.6835 7.98608 20.7721 7.89772C20.7895 7.88032 21.204 7.47176 21.7413 7.47176C22.263 7.47176 22.8026 7.70558 22.8026 8.09692V10.5741C22.8026 10.6996 22.7008 10.8013 22.5755 10.8013V10.8013Z" fill="#F6A500"/>
<path d="M21.3887 10.6635C21.2136 10.6635 21.0448 10.632 20.9021 10.5505C20.7434 10.4597 20.5495 10.2673 20.5262 9.86846C20.4983 9.38609 20.6963 9.12212 20.8677 8.98596C21.433 8.53589 22.46 8.81837 22.5754 8.8523C22.6958 8.88744 22.7648 9.01361 22.7295 9.13392C22.6942 9.25432 22.5683 9.32339 22.4479 9.28825C22.1967 9.21556 21.4743 9.08294 21.1498 9.34148C21.0215 9.44405 20.9658 9.60768 20.9794 9.84228C20.9919 10.0545 21.0701 10.1232 21.1277 10.1564C21.4045 10.315 22.0522 10.0973 22.3954 9.92289C22.5069 9.86596 22.6438 9.9104 22.7009 10.0221C22.7577 10.1338 22.7133 10.2703 22.6018 10.3273C22.5167 10.3708 21.9234 10.6636 21.3885 10.6636L21.3887 10.6635Z" fill="#F6A500"/>
<path d="M8.8006 12.356C8.78269 12.356 8.76477 12.356 8.74686 12.3558C8.36034 12.3476 7.5625 12.2026 7.5625 11.8064C7.5625 11.6813 7.66404 11.5795 7.78961 11.5795C7.8871 11.5795 7.97038 11.6411 8.00267 11.7274C8.15279 11.8372 8.8223 12.0088 9.31604 11.8151C9.62505 11.6939 9.78257 11.457 9.79807 11.0909C9.82227 10.5199 9.4187 10.3419 8.75805 10.0985C8.15778 9.87716 7.41032 9.602 7.41032 8.71287C7.41032 8.02173 7.84188 7.57416 8.59459 7.48519C9.16989 7.41759 10.0894 7.59491 10.1817 7.97962C10.2109 8.10148 10.1358 8.22421 10.0135 8.25332C9.90469 8.27941 9.79531 8.2224 9.75251 8.12336C9.61015 7.99986 8.83935 7.80893 8.31582 8.01648C8.01223 8.13705 7.86445 8.36511 7.86445 8.71295C7.86445 9.25759 8.26388 9.43225 8.91497 9.67219C9.52808 9.89826 10.2913 10.1793 10.2522 11.1101C10.2187 11.8935 9.67741 12.3561 8.80051 12.3561L8.8006 12.356Z" fill="#F6A500"/>
<path d="M12.0768 11.4304H11.1398C11.0144 11.4304 10.9128 11.3286 10.9128 11.2032V7.69886C10.9128 7.57338 11.0144 7.47167 11.1398 7.47167C11.2653 7.47167 11.367 7.57338 11.367 7.69886V10.9761H12.0768C12.2023 10.9761 12.3041 11.0778 12.3041 11.2032C12.3041 11.3286 12.2023 11.4304 12.0768 11.4304V11.4304Z" fill="#F6A500"/>
<path d="M11.8587 9.07062H10.3826C10.2572 9.07062 10.1556 8.96882 10.1556 8.84352C10.1556 8.71812 10.2572 8.6165 10.3826 8.6165H11.8587C11.9842 8.6165 12.0858 8.71812 12.0858 8.84352C12.0858 8.96882 11.9842 9.07062 11.8587 9.07062Z" fill="#F6A500"/>
<path d="M15.5025 10.8658C15.377 10.8658 15.2752 10.7639 15.2752 10.6385V7.69886C15.2752 7.57355 15.377 7.47176 15.5025 7.47176C15.6278 7.47176 15.7296 7.57355 15.7296 7.69886V10.6385C15.7296 10.7639 15.6278 10.8658 15.5025 10.8658Z" fill="#F6A500"/>
<path d="M17.6205 10.8782C17.4949 10.8782 17.3932 10.7765 17.3932 10.6511V8.59746C17.3932 8.50566 17.2859 8.22843 17.0201 8.08787C16.7132 7.92588 16.2994 8.0114 15.8229 8.33608C15.7193 8.40644 15.5778 8.37992 15.5074 8.27631C15.4367 8.17262 15.4637 8.03138 15.5672 7.96059C16.3563 7.42318 16.9083 7.51499 17.2324 7.68629C17.6567 7.91081 17.8476 8.35442 17.8476 8.59746V10.6511C17.8476 10.7765 17.7457 10.8782 17.6205 10.8782Z" fill="#F6A500"/>
<path d="M18.2953 12.2392C18.1695 12.2392 18.0679 12.1374 18.0679 12.0118V7.69886C18.0679 7.57355 18.1696 7.47176 18.2953 7.47176C18.4204 7.47176 18.5223 7.57355 18.5223 7.69886V12.0118C18.5223 12.1375 18.4204 12.2392 18.2953 12.2392Z" fill="#F6A500"/>
<path d="M20.6171 12.2136C20.5631 12.2136 20.509 12.1945 20.4656 12.1554L18.4132 10.3199C18.3667 10.2783 18.3393 10.2196 18.3375 10.1571C18.3359 10.0948 18.3597 10.0344 18.404 9.99032L19.9703 8.42401C20.0589 8.33539 20.2026 8.33539 20.2913 8.42401C20.3801 8.51263 20.3801 8.65654 20.2913 8.74499L18.8949 10.1417L20.7689 11.8172C20.8621 11.9005 20.8701 12.0443 20.7864 12.1379C20.7417 12.1881 20.6796 12.2136 20.6171 12.2136V12.2136Z" fill="#F6A500"/>
<path d="M17.8359 15.882C17.7149 15.882 17.617 15.784 17.617 15.663V12.2654C17.617 12.1445 17.7149 12.0465 17.8359 12.0465C17.9571 12.0465 18.0551 12.1445 18.0551 12.2654V15.663C18.0551 15.784 17.9571 15.882 17.8359 15.882Z" fill="#008ED4"/>
<path d="M19.57 15.8564C19.5065 15.8564 19.4429 15.8285 19.3998 15.7749L17.9161 13.9396C17.8442 13.8506 17.8529 13.7215 17.9359 13.6429L19.3484 12.3056C19.4363 12.2224 19.575 12.2261 19.6584 12.3142C19.7413 12.4018 19.7375 12.5405 19.6496 12.6237L18.3842 13.8219L19.7404 15.4998C19.8164 15.5941 19.8017 15.7318 19.7078 15.808C19.6674 15.8407 19.6184 15.8566 19.57 15.8566V15.8564Z" fill="#008ED4"/>
<path d="M0.227019 15.8825C0.105758 15.8825 0.0073204 15.7845 0.0073204 15.663V12.2992C0.0073204 12.178 0.105758 12.08 0.227019 12.08C0.348107 12.08 0.446717 12.178 0.446717 12.2992V15.663C0.446717 15.7845 0.348107 15.8825 0.227019 15.8825V15.8825Z" fill="#008ED4"/>
<path d="M2.62527 15.8825C2.5041 15.8825 2.40575 15.7845 2.40575 15.663V12.2992C2.40575 12.178 2.50401 12.08 2.62527 12.08C2.74645 12.08 2.84506 12.178 2.84506 12.2992V15.663C2.84506 15.7845 2.74645 15.8825 2.62527 15.8825Z" fill="#008ED4"/>
<path d="M2.46896 14.1003H0.300396C0.179222 14.1003 0.0808697 14.0019 0.0808697 13.8806C0.0808697 13.7591 0.179135 13.661 0.300396 13.661H2.46896C2.59022 13.661 2.68866 13.7591 2.68866 13.8806C2.68866 14.002 2.59022 14.1003 2.46896 14.1003Z" fill="#008ED4"/>
<path d="M5.69433 15.8804C5.61045 15.8804 5.53035 15.8318 5.49461 15.7496L4.45555 13.3675L3.48727 15.726C3.4418 15.837 3.31434 15.8904 3.20341 15.8445C3.0924 15.7988 3.03935 15.6718 3.08473 15.5607L4.24842 12.727C4.28141 12.6463 4.35969 12.5928 4.44719 12.5921C4.53555 12.5941 4.61375 12.6425 4.64889 12.7228L5.89362 15.5763C5.94176 15.6859 5.89155 15.8144 5.78114 15.8626C5.75315 15.8749 5.72327 15.8805 5.69442 15.8805L5.69433 15.8804Z" fill="#008ED4"/>
<path d="M5.00871 14.6715H3.93528C3.81514 14.6715 3.71765 14.5742 3.71765 14.4539C3.71765 14.3335 3.81514 14.2362 3.93528 14.2362H5.00871C5.12885 14.2362 5.22634 14.3335 5.22634 14.4539C5.22634 14.5742 5.12885 14.6715 5.00871 14.6715Z" fill="#008ED4"/>
<path d="M10.5682 13.4637H8.5294C8.40891 13.4637 8.31056 13.3656 8.31056 13.2451C8.31056 13.1241 8.40883 13.0265 8.5294 13.0265H10.5682C10.6887 13.0265 10.7866 13.1241 10.7866 13.2451C10.7866 13.3656 10.6887 13.4637 10.5682 13.4637Z" fill="#008ED4"/>
<path d="M9.53979 15.8814C9.41896 15.8814 9.32095 15.7836 9.32095 15.663V13.3139C9.32095 13.1933 9.41896 13.0953 9.53979 13.0953C9.66036 13.0953 9.75802 13.1933 9.75802 13.3139V15.663C9.75802 15.7836 9.66045 15.8814 9.53979 15.8814Z" fill="#008ED4"/>
<path d="M12.6838 15.8835H11.0762C10.9541 15.8835 10.8552 15.785 10.8552 15.6628V11.9676C10.8552 11.8456 10.9541 11.7468 11.0762 11.7468H12.7022C12.8243 11.7468 12.923 11.8456 12.923 11.9676C12.923 12.0896 12.8243 12.1887 12.7022 12.1887H11.2968V15.4423H12.6838C12.8056 15.4423 12.9045 15.5408 12.9045 15.6628C12.9045 15.785 12.8056 15.8835 12.6838 15.8835V15.8835Z" fill="#008ED4"/>
<path d="M12.6186 14.0418H11.2808C11.1586 14.0418 11.0598 13.9427 11.0598 13.8208C11.0598 13.6991 11.1586 13.6 11.2808 13.6H12.6186C12.7408 13.6 12.8396 13.6991 12.8396 13.8208C12.8396 13.9427 12.7408 14.0418 12.6186 14.0418Z" fill="#008ED4"/>
<path d="M13.372 15.8134C13.2509 15.8134 13.1527 15.7154 13.1527 15.5942V11.2327C13.1527 11.1116 13.2509 11.0133 13.372 11.0133C13.493 11.0133 13.5912 11.1116 13.5912 11.2327V15.5942C13.5912 15.7154 13.493 15.8134 13.372 15.8134Z" fill="#008ED4"/>
<path d="M15.4987 15.8822C15.3774 15.8822 15.2792 15.7842 15.2792 15.663V11.3015C15.2792 11.1805 15.3773 11.0821 15.4987 11.0821C15.6199 11.0821 15.718 11.1804 15.718 11.3015V15.663C15.718 15.7842 15.6199 15.8822 15.4987 15.8822Z" fill="#008ED4"/>
<path d="M15.3152 13.5232H13.5463C13.4251 13.5232 13.3269 13.425 13.3269 13.3037C13.3269 13.1826 13.425 13.0846 13.5463 13.0846H15.3152C15.4364 13.0846 15.5344 13.1826 15.5344 13.3037C15.5344 13.4249 15.4364 13.5232 15.3152 13.5232V13.5232Z" fill="#008ED4"/>
<path d="M16.9829 13.679H16.0618C15.9417 13.679 15.8442 13.5815 15.8442 13.4613V11.2327C15.8442 11.1124 15.9417 11.0149 16.0618 11.0149C16.1822 11.0149 16.2796 11.1124 16.2796 11.2327V12.0642H17.019C17.0545 12.0642 17.0893 12.0727 17.1206 12.0894C17.1391 12.0992 17.5707 12.3338 17.5707 12.8519C17.5707 13.3637 17.1123 13.6378 17.0928 13.6492C17.0597 13.6686 17.0214 13.679 16.9829 13.679V13.679ZM16.2796 13.2438H16.9149C16.9887 13.1859 17.1354 13.0466 17.1354 12.8519C17.1354 12.6627 17.0169 12.5472 16.9544 12.4996H16.2796V13.2438Z" fill="#008ED4"/>
<path d="M22.628 15.8899C22.5322 15.8899 22.4435 15.8294 22.412 15.7334L21.3471 12.4777L20.3321 15.7114C20.2942 15.831 20.1669 15.8974 20.0471 15.8599C19.9278 15.8222 19.8611 15.6949 19.8986 15.575L21.1262 11.6655C21.1556 11.5715 21.2427 11.5069 21.3412 11.5064H21.3426C21.4407 11.5064 21.5278 11.5697 21.5587 11.6629L22.8438 15.5923C22.8827 15.7114 22.8174 15.8398 22.6984 15.8787C22.675 15.8864 22.6517 15.8899 22.628 15.8899Z" fill="#008ED4"/>
<path d="M21.9928 14.2233H20.823C20.6976 14.2233 20.5959 14.1215 20.5959 13.9958C20.5959 13.8707 20.6976 13.7692 20.823 13.7692H21.9928C22.1179 13.7692 22.2199 13.8707 22.2199 13.9958C22.2199 14.1215 22.1179 14.2233 21.9928 14.2233Z" fill="#008ED4"/>
<path d="M7.75783 16.0086C7.20234 16.0086 6.6738 15.8005 6.24491 15.4074C5.75703 14.9595 5.44225 14.3024 5.45732 13.7655C5.44604 13.6659 5.4413 13.5673 5.4426 13.4727C5.44087 13.3364 5.44966 13.1908 5.46912 13.0466C5.50753 12.7587 5.58694 12.4752 5.7051 12.2045C5.75703 12.09 5.81594 11.9832 5.88199 11.8836C6.24319 11.3366 6.81229 10.9891 7.52728 10.878L7.54907 10.8757C7.68488 10.8677 7.82035 10.8719 7.95203 10.8881C8.37782 10.9415 8.76959 11.1221 9.08463 11.4113C9.17954 11.4981 9.18591 11.6453 9.09884 11.7402C9.01177 11.8352 8.8645 11.8414 8.76977 11.7545C8.52647 11.5316 8.22401 11.3919 7.89407 11.3506C7.79452 11.3378 7.69134 11.3344 7.58774 11.34C7.01106 11.4319 6.55564 11.7087 6.27041 12.1405C6.21787 12.2199 6.17042 12.3053 6.1302 12.3939C6.03116 12.6216 5.96338 12.8635 5.93048 13.1086C5.91429 13.2303 5.90654 13.3531 5.90817 13.4731C5.90688 13.5595 5.91153 13.6432 5.9217 13.7277L5.92316 13.7657C5.90886 14.0966 6.10204 14.6443 6.55995 15.0641C6.84148 15.3226 7.31705 15.6125 7.98131 15.5287C8.06589 15.5115 8.1502 15.4857 8.23279 15.4519C8.40926 15.3807 8.57737 15.2745 8.73282 15.1355C8.82902 15.0497 8.97612 15.0581 9.06172 15.1541C9.14741 15.2503 9.13906 15.3974 9.04329 15.483C8.84728 15.6575 8.63361 15.7925 8.40762 15.8839C8.29566 15.9293 8.1806 15.9639 8.06511 15.9869L8.04918 15.9896C7.9516 16.0024 7.8542 16.0084 7.75757 16.0084L7.75783 16.0086Z" fill="#008ED4"/>
<path d="M18.4326 16.911H4.01072C3.8855 16.911 3.7837 16.8092 3.7837 16.684C3.7837 16.5585 3.8855 16.4568 4.01072 16.4568H18.4326C18.5579 16.4568 18.6599 16.5585 18.6599 16.684C18.6599 16.8092 18.5579 16.911 18.4326 16.911Z" fill="#F6A500"/>
<path d="M19.1194 17.2162H6.07086C5.94564 17.2162 5.84393 17.1144 5.84393 16.9891C5.84393 16.8636 5.94564 16.762 6.07086 16.762H19.1194C19.2451 16.762 19.3466 16.8636 19.3466 16.9891C19.3466 17.1144 19.245 17.2162 19.1194 17.2162Z" fill="#F6A500"/>
<path d="M13.7282 10.8922C12.9359 10.8922 12.2916 10.1267 12.2916 9.18559C12.2916 8.24462 12.9359 7.47934 13.7282 7.47934C14.5469 7.47934 15.1644 8.17426 15.1644 9.0956C15.1644 9.21703 15.0659 9.31521 14.9449 9.31529L12.7363 9.31736C12.7885 9.9545 13.2132 10.4529 13.7281 10.4529C14.0184 10.4529 14.4949 10.314 14.6509 10.1416C14.732 10.0516 14.8713 10.0446 14.9609 10.1261C15.0513 10.2076 15.0578 10.3464 14.9764 10.4364C14.7075 10.7337 14.0785 10.8921 13.7282 10.8921V10.8922ZM13.7282 7.91847C13.2616 7.91847 12.8691 8.32747 12.7608 8.87805L14.7092 8.87607C14.627 8.31739 14.2325 7.91847 13.7282 7.91847Z" fill="#F6A500"/>
<path d="M12.9955 2.37959C12.9355 2.37959 12.8856 2.33317 12.8815 2.27263L12.7755 0.660586C12.7713 0.597372 12.8192 0.542857 12.8822 0.538895C12.9441 0.534072 12.9998 0.582301 13.0039 0.645601L13.1098 2.25773C13.1138 2.32077 13.0662 2.37511 13.0033 2.37933L12.9954 2.37959H12.9955Z" fill="#008ED4"/>
<path d="M13.2489 0.388353C13.2489 0.603056 13.0754 0.776765 12.8606 0.776765C12.6462 0.776765 12.4723 0.603056 12.4723 0.388353C12.4723 0.173822 12.6461 2.67029e-05 12.8606 2.67029e-05C13.0754 2.67029e-05 13.2489 0.173822 13.2489 0.388353V0.388353Z" fill="#008ED4"/>
<path d="M12.9905 2.26186C12.9552 2.26186 12.9204 2.24559 12.898 2.2151C12.8606 2.16403 12.8719 2.09238 12.9226 2.05517L14.1466 1.1607C14.1976 1.12341 14.269 1.13461 14.3066 1.18551C14.3438 1.23649 14.3327 1.30832 14.2817 1.34569L13.0581 2.23982C13.0376 2.25472 13.0139 2.26195 12.9905 2.26195V2.26186Z" fill="#008ED4"/>
<path d="M14.8847 1.05899C14.8847 1.26353 14.7189 1.42966 14.5141 1.42966C14.3096 1.42966 14.1436 1.26345 14.1436 1.05899C14.1436 0.854192 14.3097 0.68832 14.5141 0.68832C14.7189 0.68832 14.8847 0.854192 14.8847 1.05899V1.05899Z" fill="#008ED4"/>
<path d="M9.73537 4.92331C9.30442 4.92331 8.84418 4.87869 8.56264 4.73823C8.16596 4.53963 7.74207 4.09041 7.69892 3.61579C7.66146 3.28172 7.68213 2.91786 8.11989 2.77188C8.51691 2.62737 9.07438 2.70901 9.45255 2.82261C9.35549 2.22388 9.36307 1.17594 9.89229 0.873482L9.90176 0.868659C10.3411 0.669027 11.2683 0.767724 11.5375 1.26155C11.7726 1.69785 11.7081 2.38243 11.6565 2.93258C11.6454 3.05221 11.6349 3.16598 11.6278 3.26958L11.3995 3.2546C11.4065 3.14892 11.4171 3.03309 11.4288 2.91123C11.4774 2.39174 11.5382 1.74556 11.3366 1.37075C11.1468 1.02308 10.3933 0.900697 10.0017 1.07484C9.57846 1.32416 9.58612 2.38493 9.70273 2.91605C9.93879 3.03585 10.0212 3.21067 9.99675 3.33831C9.98005 3.42701 9.91218 3.48833 9.82821 3.49057C9.7619 3.49117 9.60369 3.45793 9.51395 3.09906L9.50887 3.08192C9.12201 2.93956 8.54714 2.85998 8.19524 2.98796C7.95531 3.06814 7.88546 3.22618 7.92654 3.59297C7.96194 3.98216 8.33356 4.36739 8.66513 4.53343C9.08007 4.7409 10.0534 4.7179 10.5804 4.63703L10.6152 4.86336C10.4139 4.8942 10.0838 4.92331 9.7352 4.92331H9.73537Z" fill="#008ED4"/>
<path d="M11.1215 3.63491C10.1294 4.7353 9.46185 5.74965 9.62979 5.90131C9.79807 6.05298 10.7384 5.28399 11.7301 4.18369C12.7226 3.08382 13.3897 2.06878 13.2222 1.91737C13.0543 1.76597 12.1128 2.53461 11.1214 3.63491H11.1215Z" fill="#008ED4"/>
<path d="M12.8198 6.60571C12.3873 6.60571 11.9634 6.4841 11.7289 6.34372C11.4158 6.16459 11.0872 5.77971 10.8229 5.47061C10.6752 5.29751 10.5474 5.14783 10.4555 5.07152C10.407 5.03096 10.4005 4.95879 10.4407 4.9103C10.4815 4.86164 10.5535 4.8551 10.6022 4.89549C10.7088 4.98428 10.8426 5.14076 10.9972 5.32188C11.2496 5.61754 11.5638 5.98571 11.8449 6.14607C12.1825 6.34863 13.2226 6.56635 13.7149 6.0739C14.0751 5.71374 13.9515 5.31533 13.8457 5.10993C13.6603 4.74994 13.2783 4.47745 12.9684 4.46866C12.925 4.47375 12.8867 4.47633 12.8547 4.47633C12.795 4.47633 12.7456 4.43051 12.7407 4.37126C12.7359 4.31192 12.7771 4.25878 12.8358 4.24888C12.8751 4.24242 12.9165 4.24035 12.9564 4.23958C13.3193 4.1923 14.1738 3.9391 14.4603 3.58212C14.5302 3.49522 14.5557 3.41349 14.5375 3.33254C14.452 2.94714 13.4583 3.03894 12.9243 3.08821C12.7572 3.10379 12.6126 3.11723 12.5125 3.11723C12.4493 3.11723 12.3983 3.06581 12.3983 3.00269C12.3983 2.93939 12.4493 2.88832 12.5125 2.88832C12.602 2.88832 12.7416 2.87531 12.9033 2.86041C13.5917 2.79668 14.6317 2.70066 14.7611 3.28302C14.7946 3.43407 14.7533 3.58281 14.6387 3.72543C14.4046 4.0173 13.8704 4.24552 13.4299 4.37031C13.6783 4.50363 13.9071 4.72901 14.0492 5.00512C14.2778 5.44908 14.2148 5.89761 13.8767 6.23573C13.6052 6.50718 13.2089 6.60579 12.8196 6.60579L12.8198 6.60571Z" fill="#008ED4"/>
</svg>
