<svg width="44" height="13" fill="none" xmlns="http://www.w3.org/2000/svg"><path fill-rule="evenodd" clip-rule="evenodd" d="M8.34 8.692H7.184l3.04-7.15-1.64.002.454-1.066h2.795L8.339 8.692zM4.72 7.778l.605-1.419-1.149-2.614L0 3.75c1.211 2.84 2.008 4.704 3.22 7.543l.601-1.409-2.146-5.028 1.796-.002L4.72 7.778z" fill="#37545D"/><path fill-rule="evenodd" clip-rule="evenodd" d="M7.836.478h1.202l-5.26 12.15-.558-1.336L7.836.478z" fill="#FF7103"/><path d="M13.206.657h1.31v.384h-.955v.527h.473c.13 0 .24.021.325.062.086.042.16.118.22.23.061.11.092.241.092.391 0 .154-.03.285-.092.395a.533.533 0 01-.21.224.75.75 0 01-.335.06h-.828V.658zm.355 1.89h.344c.11 0 .188-.008.232-.021a.222.222 0 00.117-.094.315.315 0 00.05-.181c0-.104-.03-.18-.087-.227-.058-.048-.157-.071-.296-.071h-.36v.593zm1.536-1.89h1.229V2.93h-.356V1.041h-.526v.97c0 .279-.008.473-.022.582a.464.464 0 01-.104.258c-.056.061-.143.092-.26.092-.042 0-.117-.005-.226-.015v-.356l.079.001c.073 0 .124-.012.149-.038.026-.026.038-.09.038-.19V.656zm3.245 2.273h-.383l-.151-.517h-.703l-.146.517h-.376l.681-2.273h.375l.703 2.273zm-.65-.901l-.243-.842-.237.842h.48zm.929-1.372h1.188v.384h-.833v1.89h-.355V.656zm1.338 1.15c0-.231.026-.426.08-.584.04-.116.094-.22.163-.312a.722.722 0 01.227-.205c.11-.06.235-.09.378-.09.26 0 .466.104.621.312.155.208.233.498.233.869 0 .368-.077.656-.231.863a.73.73 0 01-.618.312.736.736 0 01-.623-.31c-.153-.207-.23-.492-.23-.855zm.364-.015c0 .258.047.453.139.587.091.132.208.199.35.199.141 0 .257-.066.348-.198.09-.132.136-.33.136-.594 0-.261-.044-.456-.133-.584a.408.408 0 00-.352-.193.412.412 0 00-.353.195c-.09.13-.135.326-.135.588zm2.081 1.138V1.041h-.52V.657h1.392v.384h-.517v1.89h-.355zM23.578.657h.702c.139 0 .242.008.31.022a.41.41 0 01.183.094c.055.048.1.11.135.19a.634.634 0 01.054.265.645.645 0 01-.066.292.462.462 0 01-.18.2c.107.04.188.11.246.207a.666.666 0 01.086.343.843.843 0 01-.056.302.597.597 0 01-.152.235.438.438 0 01-.238.108 4.725 4.725 0 01-.427.015h-.597V.657zm.355.378v.524h.232c.138 0 .224-.003.257-.008a.213.213 0 00.143-.081.281.281 0 00.052-.177.299.299 0 00-.045-.17.187.187 0 00-.133-.08 3.109 3.109 0 00-.302-.008h-.203zm0 .902v.61h.329c.127 0 .208-.005.243-.014a.213.213 0 00.128-.092.337.337 0 00.05-.193.361.361 0 00-.038-.174.23.23 0 00-.111-.105c-.048-.021-.153-.032-.314-.032h-.287zm1.352-.13c0-.231.027-.426.08-.584.04-.116.095-.22.164-.312a.72.72 0 01.227-.205c.11-.06.235-.09.378-.09.259 0 .465.104.621.312.155.209.233.498.233.869 0 .368-.077.656-.231.863a.73.73 0 01-.618.312.736.736 0 01-.623-.31c-.153-.207-.23-.491-.23-.854zm.365-.015c0 .258.046.453.138.587.092.132.209.2.35.2.142 0 .258-.067.349-.199.09-.132.136-.33.136-.594 0-.261-.044-.456-.133-.584a.408.408 0 00-.352-.192.412.412 0 00-.354.194c-.089.13-.134.326-.134.588zm1.687 1.138V.657h.567c.215 0 .355.011.42.034.101.034.185.109.253.223a.86.86 0 01.102.443c0 .14-.02.256-.059.352a.61.61 0 01-.148.224.465.465 0 01-.184.107 1.564 1.564 0 01-.366.033h-.23v.857h-.355zm.355-1.889v.648h.193c.139 0 .232-.012.279-.036a.25.25 0 00.11-.112c.026-.05.04-.11.04-.177a.353.353 0 00-.056-.206.237.237 0 00-.142-.101 1.345 1.345 0 00-.254-.016h-.17zm1.355-.384h.331v1.514l.71-1.514h.353V2.93h-.33V1.441l-.71 1.49h-.354V.656zM31.27 2.93V1.041h-.52V.657h1.392v.384h-.517v1.89h-.355zm1.174 0V.657h1.299v.384H32.8v.505h.877v.384H32.8v.616h.977v.385h-1.333zM34.277.657h1.228V2.93h-.355V1.041h-.527v.97c0 .279-.007.473-.021.582a.464.464 0 01-.105.258c-.055.061-.142.092-.26.092-.042 0-.117-.005-.226-.015v-.356l.08.001c.073 0 .123-.012.148-.038.026-.026.039-.09.039-.19l-.001-.391V.657zm1.672 0h.355v.908h.473c.223 0 .384.068.484.203.1.136.15.298.15.488 0 .155-.03.287-.09.395a.51.51 0 01-.208.221.775.775 0 01-.337.059h-.827V.657zm.355 1.89h.344a.876.876 0 00.232-.021.23.23 0 00.116-.095c.034-.05.05-.11.05-.181 0-.104-.029-.18-.086-.228-.058-.048-.157-.073-.296-.073h-.36v.597zm1.47.383V.657h.356v.896h.69V.657h.356V2.93h-.355v-.993h-.691v.993h-.355zM39.627.657h.355v.908h.473c.124 0 .231.023.32.066a.52.52 0 01.225.236c.06.113.09.243.09.39a.806.806 0 01-.094.398.503.503 0 01-.208.221.8.8 0 01-.334.055h-.827V.657zm.355 1.89h.345c.11 0 .187-.008.23-.021a.23.23 0 00.117-.095.309.309 0 00.05-.18c0-.1-.027-.176-.082-.226-.056-.05-.156-.076-.3-.076h-.36v.597zm1.31-1.89h.356V2.93h-.355V.657zm.8 0h.331v1.514l.71-1.514h.353V2.93h-.33V1.441l-.711 1.49h-.353V.656zM42.998 0h.164a.564.564 0 01-.115.33.32.32 0 01-.258.12.32.32 0 01-.259-.12.563.563 0 01-.114-.33h.164a.272.272 0 00.06.166c.034.038.084.056.149.056.065 0 .115-.018.149-.056a.272.272 0 00.06-.166zM14.34 5.42v.266h-.38V5.42c-.305-.014-.52-.104-.646-.27a1.001 1.001 0 01-.189-.622c0-.262.066-.473.197-.631.132-.16.345-.245.639-.259v-.225h.379v.225c.304.014.519.103.645.267.127.164.19.373.19.625 0 .25-.063.457-.189.622-.126.165-.341.254-.646.268zm0-.385c.1 0 .188-.02.261-.06a.347.347 0 00.155-.162.75.75 0 00.046-.299c0-.327-.154-.491-.462-.491v1.012zm-.38 0V4.023c-.163 0-.28.043-.353.129-.072.086-.108.216-.108.39 0 .329.154.493.462.493zm1.522-.472c0-.231.03-.426.088-.584.043-.116.103-.22.178-.312a.766.766 0 01.247-.205c.12-.06.257-.09.412-.09.282 0 .508.104.677.312.17.208.254.498.254.869 0 .368-.085.655-.252.863a.82.82 0 01-.673.312.828.828 0 01-.679-.31c-.167-.207-.252-.492-.252-.855zm.398-.015c0 .258.05.453.15.586.1.133.228.2.382.2s.28-.066.38-.198c.098-.132.148-.33.148-.594 0-.261-.048-.456-.145-.584a.455.455 0 00-.383-.193.46.46 0 00-.385.195c-.098.13-.147.326-.147.588zm1.838 1.138V3.413h.387v.895h.752v-.895h.387v2.273h-.387v-.994h-.752v.994h-.387zm2.16-2.273h1.32v1.89h.168v.879h-.323v-.496h-1.199v.496h-.323v-.88h.163c.08-.194.132-.42.157-.676.026-.256.038-.58.038-.973v-.24zm.37.384c0 .688-.054 1.19-.16 1.505h.723V3.797h-.564z" fill="#FF7103"/><path d="M13.282 6.333h1.468v2.273h-.374V6.717h-.72v1.89h-.374V6.332zm1.848 1.15c0-.231.028-.426.084-.584.042-.116.1-.22.172-.312a.75.75 0 01.24-.205.853.853 0 01.398-.09.79.79 0 01.654.312c.163.208.245.498.245.869 0 .368-.082.655-.244.863a.783.783 0 01-.65.312.79.79 0 01-.656-.31c-.162-.207-.243-.492-.243-.855zm.384-.015c0 .258.049.453.146.586a.44.44 0 00.735.002c.096-.132.143-.33.143-.594 0-.261-.046-.456-.14-.584a.435.435 0 00-.37-.193.44.44 0 00-.372.195c-.095.13-.142.326-.142.588zm2.191 1.138V6.717h-.546v-.384h1.465v.384h-.544v1.89h-.375zm2.739 0h-.403l-.16-.517h-.74l-.154.517h-.396l.718-2.273h.395l.74 2.273zm-.684-.901l-.257-.842-.25.842h.507zm.959.901V6.333h.374v.895h.727v-.895h.375v2.273h-.375v-.994h-.727v.994h-.374zm1.944-2.273h.349v1.513l.748-1.513h.371v2.273h-.348V7.117l-.748 1.49h-.372V6.332zm1.926 2.273V6.333h.374v.895h.727v-.895h.374v2.273h-.374v-.994h-.727v.994h-.374zm3.603 0h-.403l-.16-.517h-.74l-.154.517h-.395l.717-2.273h.395l.74 2.273zm-.684-.901l-.256-.842-.25.842h.506zM22.572 3.413h.764c.152 0 .264.007.338.022a.464.464 0 01.2.094.591.591 0 01.205.455.602.602 0 01-.071.292.479.479 0 01-.196.2c.116.04.205.109.268.206a.624.624 0 01.093.344c0 .104-.02.204-.06.302a.596.596 0 01-.166.235.498.498 0 01-.259.108c-.064.008-.22.013-.465.015h-.651V3.413zm.387.378v.524h.252c.15 0 .244-.003.28-.008a.237.237 0 00.156-.081.265.265 0 00.056-.177.28.28 0 00-.049-.17.207.207 0 00-.145-.08 3.69 3.69 0 00-.329-.008h-.221zm0 .902v.61h.357c.14 0 .228-.005.265-.015a.233.233 0 00.14-.09.317.317 0 00.055-.194.337.337 0 00-.042-.174.242.242 0 00-.12-.105c-.053-.021-.168-.032-.344-.032h-.311zm1.69-1.28h1.34v2.273H25.6V3.797h-.574v.97c0 .279-.008.473-.023.582a.445.445 0 01-.114.258c-.06.061-.155.092-.284.092-.045 0-.127-.005-.246-.015v-.356l.086.001c.08 0 .135-.013.163-.039.028-.025.042-.089.042-.19l-.002-.39V3.412zm3.537 2.273h-.417l-.165-.517h-.767l-.159.517h-.409l.742-2.273h.409l.766 2.273zm-.708-.901l-.265-.842-.259.842h.524zm1.246-1.372h1.32v1.889h.167v.88h-.323v-.496H28.69v.496h-.323v-.88h.163c.079-.194.131-.42.157-.676.025-.256.037-.58.037-.973v-.24zm.369.384c0 .688-.054 1.19-.16 1.505h.723V3.797h-.563zm1.462-.384h.36v1.513l.775-1.513h.384v2.273h-.36V4.197l-.774 1.49h-.385V3.412zm1.987 2.273V3.413h.58l.342 1.55.339-1.55h.581v2.273h-.358l-.001-1.79-.377 1.79h-.372l-.375-1.79-.001 1.79h-.358zm2.313-2.273h.36v1.513l.775-1.513h.384v2.273h-.36V4.197l-.774 1.49h-.385V3.412zm1.992 2.273V3.413h.62c.234 0 .386.011.458.034.109.034.2.108.275.223.073.114.11.262.11.443 0 .14-.021.256-.063.351a.611.611 0 01-.162.225.52.52 0 01-.2.107 1.853 1.853 0 01-.4.033h-.25v.857h-.388zm.388-1.889v.648h.21c.152 0 .253-.012.304-.036a.262.262 0 00.12-.112.351.351 0 00.044-.178.333.333 0 00-.061-.205.26.26 0 00-.155-.101 1.595 1.595 0 00-.277-.016h-.185zm2.959 1.89h-.417l-.165-.518h-.766l-.16.517h-.408l.742-2.273h.408l.766 2.273zm-.707-.902l-.266-.842-.258.842h.524zM6.885 11.401h.4a.936.936 0 00-.096-.375c-.053-.1-.125-.15-.215-.15a.212.212 0 00-.174.091.56.56 0 00-.098.242l-.255-.093a.86.86 0 01.172-.43.429.429 0 01.347-.163c.185 0 .33.098.435.294.104.196.156.45.156.765 0 .213-.024.397-.073.55a.865.865 0 01-.2.359.416.416 0 01-.305.127c-.29 0-.469-.218-.536-.652l.259-.127a.643.643 0 00.098.323c.052.07.115.106.187.106.076 0 .14-.042.194-.126.053-.083.087-.216.103-.4h-.399v-.34zm1.666.943v.237h-.253v-.237c-.204-.012-.348-.092-.432-.239a1.107 1.107 0 01-.126-.554c0-.233.044-.42.132-.56.088-.142.23-.219.426-.23v-.2h.253v.2c.203.011.346.09.43.237.085.145.128.33.128.555a1.1 1.1 0 01-.127.553c-.084.147-.228.226-.431.238zm0-.342a.286.286 0 00.174-.053.289.289 0 00.103-.145c.021-.06.031-.148.031-.265 0-.291-.103-.437-.308-.437v.9zm-.253 0v-.9c-.11 0-.188.038-.236.115-.048.077-.073.192-.073.347 0 .292.103.438.309.438zm1.803.342v.237h-.253v-.237c-.204-.012-.348-.092-.432-.239a1.105 1.105 0 01-.126-.554c0-.233.044-.42.132-.56.088-.142.23-.219.426-.23v-.2h.253v.2c.203.011.346.09.43.237.085.145.128.33.128.555 0 .222-.043.406-.127.553-.084.147-.228.226-.431.238zm0-.342a.286.286 0 00.174-.053.29.29 0 00.104-.145c.02-.06.03-.148.03-.265 0-.291-.103-.437-.308-.437v.9zm-.253 0v-.9c-.11 0-.188.038-.236.115-.048.077-.072.192-.072.347 0 .292.102.438.308.438zm1.07.579v-2.02h.944v.34h-.687v.45h.638v.34h-.638v.548h.711v.342h-.969zm1.244-2.02h.258v.86c.058-.01.097-.032.117-.07.02-.038.051-.143.093-.315.054-.219.107-.355.161-.408.054-.054.14-.08.258-.08l.038-.002v.302l-.037-.001c-.053 0-.091.01-.116.03a.215.215 0 00-.059.095c-.015.043-.037.13-.066.261-.016.07-.033.129-.052.176a.347.347 0 01-.096.132.302.302 0 01.142.156c.037.078.078.188.122.33l.174.554h-.303l-.153-.52-.015-.043a3.47 3.47 0 01-.032-.095.691.691 0 00-.08-.187c-.02-.025-.053-.037-.096-.038v.883h-.258v-2.02zm1.468 2.02v-1.68h-.378v-.34h1.012v.34h-.376v1.68h-.258zm.857-2.02h.241v1.345l.517-1.346h.256v2.021h-.24v-1.324l-.517 1.324h-.257v-2.02zm1.33 0h.51c.102 0 .177.006.227.02.05.013.094.04.133.082.04.043.072.098.098.169.026.07.04.149.04.236a.684.684 0 01-.049.26.393.393 0 01-.13.177.373.373 0 01.178.184.7.7 0 01.063.305.896.896 0 01-.04.269.556.556 0 01-.112.209.297.297 0 01-.172.096 2.819 2.819 0 01-.311.013h-.434v-2.02zm.259.335v.466h.169c.1 0 .162-.002.186-.007a.151.151 0 00.104-.072.29.29 0 00.038-.157.309.309 0 00-.033-.152.134.134 0 00-.096-.07 1.856 1.856 0 00-.22-.008h-.148zm0 .802v.541h.239a.763.763 0 00.176-.012.159.159 0 00.094-.08.351.351 0 00.036-.173.38.38 0 00-.028-.155.185.185 0 00-.08-.092.566.566 0 00-.229-.03h-.208zm1.081.883v-2.02h.258v.795h.503v-.796h.258v2.021h-.258v-.883h-.503v.883h-.258zm2.489 0h-.278l-.11-.46h-.512l-.106.46h-.274l.496-2.02h.273l.51 2.02zm-.472-.801l-.178-.748-.172.748h.35zm1.425.801v-.844h-.052c-.082 0-.14.02-.173.058-.034.038-.09.153-.172.345l-.185.441h-.307l.155-.394c.061-.157.11-.266.147-.329a.7.7 0 01.136-.169.376.376 0 01-.256-.196.785.785 0 01-.08-.365c0-.123.02-.232.06-.327.039-.095.09-.16.155-.192a.66.66 0 01.288-.049h.542v2.021H20.6zm0-1.68h-.201c-.102 0-.17.005-.202.011-.032.008-.06.033-.083.075a.344.344 0 00-.035.166c0 .07.012.127.034.17.022.041.05.067.085.077.035.01.105.015.211.015h.19v-.513zm1.823 1.443v.237h-.253v-.237c-.204-.012-.348-.092-.432-.239a1.106 1.106 0 01-.126-.554c0-.233.044-.42.132-.56.088-.142.23-.219.426-.23v-.2h.253v.2c.203.011.346.09.431.237.085.145.127.33.127.555a1.1 1.1 0 01-.126.553c-.085.147-.228.226-.432.238zm0-.342a.287.287 0 00.174-.053.29.29 0 00.104-.145.87.87 0 00.03-.265c0-.291-.102-.437-.308-.437v.9zm-.253 0v-.9c-.109 0-.187.038-.236.115-.048.077-.072.192-.072.347 0 .292.102.438.308.438zm1.073-1.442h.24v1.345L24 10.56h.257v2.021h-.24v-1.324l-.517 1.324h-.257v-2.02zm1.422 0h.893v2.021H25.3v-1.68h-.383v.863c0 .247-.006.42-.016.517a.464.464 0 01-.076.23c-.04.054-.103.081-.19.081-.03 0-.084-.004-.164-.014v-.316l.058.002c.053 0 .09-.012.109-.035.018-.023.027-.08.027-.17V10.56zm2.36 2.021h-.278l-.11-.46h-.512l-.106.46h-.273l.495-2.02h.273l.511 2.02zm-.472-.801l-.177-.748-.173.748h.35zm.662.801v-2.02h.259v.795h.502v-.796h.258v2.021h-.258v-.883h-.502v.883h-.259zm1.627 0v-1.68h-.378v-.34h1.012v.34H29.1v1.68h-.258zm.854 0v-2.02h.413c.157 0 .258.01.306.03.073.03.134.096.184.197.049.102.074.233.074.394a.998.998 0 01-.043.313.564.564 0 01-.108.2.333.333 0 01-.134.095.938.938 0 01-.266.029h-.168v.762h-.258zm.258-1.68v.576h.14c.102 0 .17-.01.204-.032a.207.207 0 00.08-.1.394.394 0 00.029-.157.368.368 0 00-.04-.182.178.178 0 00-.104-.09.802.802 0 00-.185-.014h-.124zm.906.682c0-.206.02-.38.059-.52.029-.103.068-.195.119-.277a.484.484 0 01.44-.262c.188 0 .338.092.451.277.113.185.17.443.17.772 0 .327-.056.583-.168.768-.112.185-.262.277-.45.277-.19 0-.34-.092-.453-.276-.111-.183-.168-.436-.168-.76zm.266-.014c0 .23.033.403.1.521s.152.178.255.178c.103 0 .187-.06.253-.176.066-.118.1-.294.1-.529 0-.231-.033-.405-.097-.518-.064-.114-.15-.171-.256-.171-.107 0-.192.057-.258.173-.065.115-.097.29-.097.522zm1.23-1.009h1.014v2.021h-.258v-1.68h-.498v1.68h-.258v-2.02zm1.334 0h.24v1.345l.517-1.345h.256v2.021h-.24v-1.324l-.517 1.324h-.256v-2.02zm2.092 2.021v-.844h-.052c-.082 0-.14.02-.173.058-.033.038-.09.153-.171.345l-.185.441h-.308l.156-.394c.06-.157.11-.266.146-.329a.695.695 0 01.137-.169.376.376 0 01-.257-.196.785.785 0 01-.078-.365c0-.123.02-.232.058-.327.04-.095.091-.16.155-.192a.661.661 0 01.288-.049h.543v2.021h-.259zm0-1.68h-.2c-.103 0-.17.005-.202.011-.032.008-.06.033-.083.075a.344.344 0 00-.035.166c0 .07.011.127.033.17.023.041.051.067.086.077.034.01.104.015.21.015h.191v-.513z" fill="#37545D"/></svg>