<?xml version="1.0" encoding="utf-8"?><svg viewBox="0 0 44 18" xmlns="http://www.w3.org/2000/svg" xmlns:xlink="http://www.w3.org/1999/xlink"><style>:root>svg{display:none}:root>svg:target{display:block}</style><svg viewBox="0 0 23 18" id="logo-nastenjka" xmlns="http://www.w3.org/2000/svg"><path d="M4.406 11.646a.228.228 0 01-.151-.057l-3.8-3.384-.001 3.207a.227.227 0 11-.454 0l.001-3.713a.227.227 0 01.379-.17l3.8 3.383V7.756a.227.227 0 11.453 0v3.662a.227.227 0 01-.227.228zM7.039 10.801a.227.227 0 01-.228-.227V8.11c-.037-.056-.26-.184-.607-.184-.346 0-.646.29-.649.293a.227.227 0 01-.32-.321c.017-.018.432-.426.97-.426.52 0 1.06.234 1.06.625v2.477a.227.227 0 01-.226.227z" fill="#F6A500"/><path d="M5.851 10.664a.973.973 0 01-.486-.114c-.159-.09-.353-.283-.376-.682-.028-.482.17-.746.341-.882.566-.45 1.593-.168 1.708-.134a.227.227 0 11-.128.436c-.25-.073-.973-.205-1.297.053-.129.103-.185.267-.17.501.011.213.09.281.148.314.288.165.978-.086 1.267-.233a.227.227 0 11.206.404c-.085.044-.678.337-1.213.337zM22.576 10.801a.227.227 0 01-.228-.227V8.11c-.037-.056-.26-.184-.607-.184-.346 0-.646.29-.648.294a.227.227 0 01-.32-.322c.017-.018.431-.426.968-.426.522 0 1.062.234 1.062.625v2.477a.227.227 0 01-.227.227z" fill="#F6A500"/><path d="M21.389 10.664a.975.975 0 01-.487-.114c-.159-.09-.353-.283-.376-.682-.028-.482.17-.746.342-.882.565-.45 1.592-.168 1.707-.134a.227.227 0 11-.127.436c-.251-.072-.974-.205-1.298.053-.128.103-.184.267-.17.501.012.213.09.281.148.314.276.159.924-.059 1.267-.233a.227.227 0 01.207.404c-.085.044-.679.337-1.213.337zM8.8 12.356h-.053c-.387-.008-1.184-.153-1.184-.55a.227.227 0 01.44-.079c.15.11.82.282 1.313.088.309-.121.467-.358.482-.724.024-.571-.38-.75-1.04-.992-.6-.222-1.348-.497-1.348-1.386 0-.691.432-1.139 1.185-1.228.575-.067 1.494.11 1.587.495a.227.227 0 01-.43.143C9.61 8 8.84 7.81 8.317 8.016c-.304.121-.452.35-.452.697 0 .545.4.72 1.051.96.613.225 1.376.506 1.337 1.437-.033.784-.575 1.246-1.451 1.246zM12.077 11.43h-.937a.227.227 0 01-.227-.227V7.7a.227.227 0 11.454 0v3.277h.71a.227.227 0 110 .454z" fill="#F6A500"/><path d="M11.859 9.07h-1.476a.227.227 0 010-.454h1.476a.227.227 0 110 .455zM15.502 10.866a.227.227 0 01-.227-.227v-2.94a.227.227 0 01.455 0v2.94a.227.227 0 01-.228.227z" fill="#F6A500"/><path d="M17.62 10.878a.227.227 0 01-.227-.227V8.597c0-.091-.107-.369-.373-.51-.307-.161-.72-.076-1.197.25a.227.227 0 01-.256-.376c.79-.538 1.341-.446 1.665-.275.425.225.616.668.616.911v2.054a.227.227 0 01-.227.227zM18.295 12.24a.227.227 0 01-.227-.228V7.699a.227.227 0 01.454 0v4.313a.227.227 0 01-.227.227z" fill="#F6A500"/><path d="M20.617 12.214a.225.225 0 01-.151-.059l-2.053-1.835a.227.227 0 01-.009-.33l1.566-1.566a.227.227 0 01.321.321l-1.396 1.397 1.874 1.675a.227.227 0 01-.152.397z" fill="#F6A500"/><path d="M17.836 15.882a.219.219 0 01-.219-.219v-3.398a.219.219 0 11.438 0v3.398a.219.219 0 01-.22.219z" fill="#008ED4"/><path d="M19.57 15.856a.218.218 0 01-.17-.081l-1.484-1.835a.219.219 0 01.02-.297l1.412-1.337a.22.22 0 01.302.318l-1.266 1.198L19.74 15.5a.22.22 0 01-.17.357zM.227 15.883a.22.22 0 01-.22-.22v-3.364a.22.22 0 01.44 0v3.364a.22.22 0 01-.22.22zM2.625 15.883a.22.22 0 01-.22-.22v-3.364a.22.22 0 01.44 0v3.364a.22.22 0 01-.22.22z" fill="#008ED4"/><path d="M2.469 14.1H.3a.22.22 0 010-.439H2.47a.22.22 0 110 .44zM5.694 15.88a.217.217 0 01-.2-.13l-1.038-2.383-.969 2.359a.217.217 0 11-.402-.165l1.163-2.834a.217.217 0 01.4-.004l1.246 2.853a.217.217 0 01-.2.304z" fill="#008ED4"/><path d="M5.009 14.671H3.935a.218.218 0 110-.435H5.01a.218.218 0 110 .435zM10.568 13.464H8.53a.22.22 0 010-.438h2.04a.218.218 0 010 .438z" fill="#008ED4"/><path d="M9.54 15.881a.219.219 0 01-.219-.218v-2.35a.219.219 0 01.437 0v2.35c0 .12-.098.218-.218.218zM12.684 15.883h-1.608a.22.22 0 01-.22-.22v-3.695a.22.22 0 01.22-.221h1.626a.22.22 0 110 .442h-1.405v3.253h1.387a.22.22 0 110 .441z" fill="#008ED4"/><path d="M12.619 14.042H11.28a.221.221 0 010-.442h1.338a.221.221 0 110 .442zM13.372 15.813a.22.22 0 01-.22-.219v-4.361a.22.22 0 01.44 0v4.361a.22.22 0 01-.22.22zM15.499 15.882a.22.22 0 01-.22-.219v-4.361a.22.22 0 01.439 0v4.361a.22.22 0 01-.22.22z" fill="#008ED4"/><path d="M15.315 13.523h-1.769a.22.22 0 110-.438h1.77a.219.219 0 110 .438zM16.983 13.679h-.921a.218.218 0 01-.218-.218v-2.228a.218.218 0 11.436 0v.831h.739c.036 0 .07.009.102.025.018.01.45.245.45.763 0 .512-.459.786-.478.797a.218.218 0 01-.11.03zm-.703-.435h.635c.074-.058.22-.197.22-.392a.444.444 0 00-.18-.352h-.675v.744zM22.628 15.89a.227.227 0 01-.216-.157l-1.065-3.255-1.015 3.233a.228.228 0 01-.433-.136l1.227-3.91a.227.227 0 01.215-.159h.002c.098 0 .185.064.216.157l1.285 3.93a.227.227 0 01-.216.297z" fill="#008ED4"/><path d="M21.993 14.223h-1.17a.227.227 0 010-.454h1.17a.227.227 0 110 .454zM7.758 16.009a2.22 2.22 0 01-1.513-.602c-.488-.447-.803-1.105-.788-1.642a2.329 2.329 0 01-.014-.292 3.146 3.146 0 01.263-1.268c.051-.115.11-.222.176-.321.361-.547.93-.895 1.645-1.006l.022-.002c.136-.008.271-.004.403.012a2.04 2.04 0 011.133.523.232.232 0 11-.315.344 1.579 1.579 0 00-.876-.404 1.694 1.694 0 00-.306-.011c-.577.092-1.032.369-1.318.8-.052.08-.1.165-.14.254a2.697 2.697 0 00-.222 1.08c-.001.085.004.17.014.254l.001.038c-.014.33.179.878.637 1.298.281.259.757.549 1.421.465.085-.018.17-.043.252-.077.176-.071.344-.178.5-.316a.233.233 0 11.31.347c-.196.175-.41.31-.635.4-.112.046-.227.08-.343.104l-.016.003a2.241 2.241 0 01-.291.018z" fill="#008ED4"/><path d="M18.433 16.911H4.01a.227.227 0 010-.454h14.422a.227.227 0 010 .454z" fill="#F6A500"/><path d="M19.12 17.216H6.07a.227.227 0 010-.454h13.05a.227.227 0 110 .454zM13.728 10.892c-.792 0-1.436-.765-1.436-1.706s.644-1.707 1.436-1.707c.819 0 1.436.695 1.436 1.617a.22.22 0 01-.22.22l-2.208.001c.053.637.477 1.136.992 1.136.29 0 .767-.139.923-.311a.22.22 0 11.325.294c-.269.298-.898.456-1.248.456zm0-2.974c-.466 0-.859.41-.967.96l1.948-.002c-.082-.559-.476-.958-.98-.958z" fill="#F6A500"/><path d="M12.995 2.38a.114.114 0 01-.113-.107L12.775.66a.114.114 0 11.229-.015l.106 1.612a.114.114 0 01-.107.121h-.008z" fill="#008ED4"/><path d="M13.249.388a.388.388 0 11-.776.001.388.388 0 01.776 0zM12.99 2.262a.115.115 0 01-.067-.207l1.224-.894a.115.115 0 01.135.185l-1.224.894a.115.115 0 01-.067.022z" fill="#008ED4"/><path d="M14.885 1.059a.37.37 0 11-.742 0 .37.37 0 01.742 0zM9.735 4.923c-.43 0-.89-.044-1.172-.185-.397-.198-.82-.648-.864-1.122-.038-.334-.017-.698.42-.844.398-.145.955-.063 1.334.05-.098-.598-.09-1.646.44-1.949L9.901.87c.44-.2 1.366-.101 1.636.393.235.436.17 1.12.118 1.67-.01.12-.021.234-.028.338l-.229-.015c.008-.106.018-.222.03-.344.048-.52.11-1.165-.092-1.54-.19-.348-.944-.47-1.335-.296-.424.25-.416 1.31-.3 1.841.237.12.32.295.295.422-.017.089-.085.15-.169.153-.066 0-.224-.033-.314-.392l-.005-.017c-.387-.142-.962-.222-1.314-.094-.24.08-.31.238-.268.605.035.39.407.774.738.94.415.208 1.388.185 1.915.104l.035.226a6.27 6.27 0 01-.88.06z" fill="#008ED4"/><path d="M11.121 3.635C10.13 4.735 9.461 5.75 9.63 5.9c.168.152 1.108-.617 2.1-1.717.993-1.1 1.66-2.115 1.492-2.267-.168-.151-1.11.618-2.1 1.718z" fill="#008ED4"/><path d="M12.82 6.606c-.433 0-.857-.122-1.091-.262-.313-.18-.642-.564-.906-.873a3.917 3.917 0 00-.367-.4.115.115 0 01.146-.176c.107.09.24.246.395.427.253.296.567.664.848.824.337.203 1.378.42 1.87-.072.36-.36.236-.759.13-.964-.185-.36-.567-.633-.877-.641a.999.999 0 01-.113.007.114.114 0 01-.02-.227.854.854 0 01.121-.01c.363-.047 1.218-.3 1.504-.657.07-.087.096-.169.077-.25-.085-.385-1.079-.293-1.613-.244a5.167 5.167 0 01-.412.03.114.114 0 010-.23c.09 0 .23-.013.391-.028.689-.063 1.729-.16 1.858.423.034.151-.008.3-.122.442-.234.292-.769.52-1.21.645.25.134.478.359.62.635.229.444.166.893-.172 1.23-.272.272-.668.37-1.057.37z" fill="#008ED4"/></svg><svg fill="none" viewBox="0 0 44 13" id="logo-potanina" xmlns="http://www.w3.org/2000/svg"><path fill-rule="evenodd" clip-rule="evenodd" d="M8.34 8.692H7.184l3.04-7.15-1.64.002.454-1.066h2.795L8.339 8.692zM4.72 7.778l.605-1.419-1.149-2.614L0 3.75c1.211 2.84 2.008 4.704 3.22 7.543l.601-1.409-2.146-5.028 1.796-.002L4.72 7.778z" fill="#37545D"/><path fill-rule="evenodd" clip-rule="evenodd" d="M7.836.478h1.202l-5.26 12.15-.558-1.336L7.836.478z" fill="#FF7103"/><path d="M13.206.657h1.31v.384h-.955v.527h.473c.13 0 .24.021.325.062.086.042.16.118.22.23.061.11.092.241.092.391 0 .154-.03.285-.092.395a.533.533 0 01-.21.224.75.75 0 01-.335.06h-.828V.658zm.355 1.89h.344c.11 0 .188-.008.232-.021a.222.222 0 00.117-.094.315.315 0 00.05-.181c0-.104-.03-.18-.087-.227-.058-.048-.157-.071-.296-.071h-.36v.593zm1.536-1.89h1.229V2.93h-.356V1.041h-.526v.97c0 .279-.008.473-.022.582a.464.464 0 01-.104.258c-.056.061-.143.092-.26.092-.042 0-.117-.005-.226-.015v-.356l.079.001c.073 0 .124-.012.149-.038.026-.026.038-.09.038-.19V.656zm3.245 2.273h-.383l-.151-.517h-.703l-.146.517h-.376l.681-2.273h.375l.703 2.273zm-.65-.901l-.243-.842-.237.842h.48zm.929-1.372h1.188v.384h-.833v1.89h-.355V.656zm1.338 1.15c0-.231.026-.426.08-.584.04-.116.094-.22.163-.312a.722.722 0 01.227-.205c.11-.06.235-.09.378-.09.26 0 .466.104.621.312.155.208.233.498.233.869 0 .368-.077.656-.231.863a.73.73 0 01-.618.312.736.736 0 01-.623-.31c-.153-.207-.23-.492-.23-.855zm.364-.015c0 .258.047.453.139.587.091.132.208.199.35.199.141 0 .257-.066.348-.198.09-.132.136-.33.136-.594 0-.261-.044-.456-.133-.584a.408.408 0 00-.352-.193.412.412 0 00-.353.195c-.09.13-.135.326-.135.588zm2.081 1.138V1.041h-.52V.657h1.392v.384h-.517v1.89h-.355zM23.578.657h.702c.139 0 .242.008.31.022a.41.41 0 01.183.094c.055.048.1.11.135.19a.634.634 0 01.054.265.645.645 0 01-.066.292.462.462 0 01-.18.2c.107.04.188.11.246.207a.666.666 0 01.086.343.843.843 0 01-.056.302.597.597 0 01-.152.235.438.438 0 01-.238.108 4.725 4.725 0 01-.427.015h-.597V.657zm.355.378v.524h.232c.138 0 .224-.003.257-.008a.213.213 0 00.143-.081.281.281 0 00.052-.177.299.299 0 00-.045-.17.187.187 0 00-.133-.08 3.109 3.109 0 00-.302-.008h-.203zm0 .902v.61h.329c.127 0 .208-.005.243-.014a.213.213 0 00.128-.092.337.337 0 00.05-.193.361.361 0 00-.038-.174.23.23 0 00-.111-.105c-.048-.021-.153-.032-.314-.032h-.287zm1.352-.13c0-.231.027-.426.08-.584.04-.116.095-.22.164-.312a.72.72 0 01.227-.205c.11-.06.235-.09.378-.09.259 0 .465.104.621.312.155.209.233.498.233.869 0 .368-.077.656-.231.863a.73.73 0 01-.618.312.736.736 0 01-.623-.31c-.153-.207-.23-.491-.23-.854zm.365-.015c0 .258.046.453.138.587.092.132.209.2.35.2.142 0 .258-.067.349-.199.09-.132.136-.33.136-.594 0-.261-.044-.456-.133-.584a.408.408 0 00-.352-.192.412.412 0 00-.354.194c-.089.13-.134.326-.134.588zm1.687 1.138V.657h.567c.215 0 .355.011.42.034.101.034.185.109.253.223a.86.86 0 01.102.443c0 .14-.02.256-.059.352a.61.61 0 01-.148.224.465.465 0 01-.184.107 1.564 1.564 0 01-.366.033h-.23v.857h-.355zm.355-1.889v.648h.193c.139 0 .232-.012.279-.036a.25.25 0 00.11-.112c.026-.05.04-.11.04-.177a.353.353 0 00-.056-.206.237.237 0 00-.142-.101 1.345 1.345 0 00-.254-.016h-.17zm1.355-.384h.331v1.514l.71-1.514h.353V2.93h-.33V1.441l-.71 1.49h-.354V.656zM31.27 2.93V1.041h-.52V.657h1.392v.384h-.517v1.89h-.355zm1.174 0V.657h1.299v.384H32.8v.505h.877v.384H32.8v.616h.977v.385h-1.333zM34.277.657h1.228V2.93h-.355V1.041h-.527v.97c0 .279-.007.473-.021.582a.464.464 0 01-.105.258c-.055.061-.142.092-.26.092-.042 0-.117-.005-.226-.015v-.356l.08.001c.073 0 .123-.012.148-.038.026-.026.039-.09.039-.19l-.001-.391V.657zm1.672 0h.355v.908h.473c.223 0 .384.068.484.203.1.136.15.298.15.488 0 .155-.03.287-.09.395a.51.51 0 01-.208.221.775.775 0 01-.337.059h-.827V.657zm.355 1.89h.344a.876.876 0 00.232-.021.23.23 0 00.116-.095c.034-.05.05-.11.05-.181 0-.104-.029-.18-.086-.228-.058-.048-.157-.073-.296-.073h-.36v.597zm1.47.383V.657h.356v.896h.69V.657h.356V2.93h-.355v-.993h-.691v.993h-.355zM39.627.657h.355v.908h.473c.124 0 .231.023.32.066a.52.52 0 01.225.236c.06.113.09.243.09.39a.806.806 0 01-.094.398.503.503 0 01-.208.221.8.8 0 01-.334.055h-.827V.657zm.355 1.89h.345c.11 0 .187-.008.23-.021a.23.23 0 00.117-.095.309.309 0 00.05-.18c0-.1-.027-.176-.082-.226-.056-.05-.156-.076-.3-.076h-.36v.597zm1.31-1.89h.356V2.93h-.355V.657zm.8 0h.331v1.514l.71-1.514h.353V2.93h-.33V1.441l-.711 1.49h-.353V.656zM42.998 0h.164a.564.564 0 01-.115.33.32.32 0 01-.258.12.32.32 0 01-.259-.12.563.563 0 01-.114-.33h.164a.272.272 0 00.06.166c.034.038.084.056.149.056.065 0 .115-.018.149-.056a.272.272 0 00.06-.166zM14.34 5.42v.266h-.38V5.42c-.305-.014-.52-.104-.646-.27a1.001 1.001 0 01-.189-.622c0-.262.066-.473.197-.631.132-.16.345-.245.639-.259v-.225h.379v.225c.304.014.519.103.645.267.127.164.19.373.19.625 0 .25-.063.457-.189.622-.126.165-.341.254-.646.268zm0-.385c.1 0 .188-.02.261-.06a.347.347 0 00.155-.162.75.75 0 00.046-.299c0-.327-.154-.491-.462-.491v1.012zm-.38 0V4.023c-.163 0-.28.043-.353.129-.072.086-.108.216-.108.39 0 .329.154.493.462.493zm1.522-.472c0-.231.03-.426.088-.584.043-.116.103-.22.178-.312a.766.766 0 01.247-.205c.12-.06.257-.09.412-.09.282 0 .508.104.677.312.17.208.254.498.254.869 0 .368-.085.655-.252.863a.82.82 0 01-.673.312.828.828 0 01-.679-.31c-.167-.207-.252-.492-.252-.855zm.398-.015c0 .258.05.453.15.586.1.133.228.2.382.2s.28-.066.38-.198c.098-.132.148-.33.148-.594 0-.261-.048-.456-.145-.584a.455.455 0 00-.383-.193.46.46 0 00-.385.195c-.098.13-.147.326-.147.588zm1.838 1.138V3.413h.387v.895h.752v-.895h.387v2.273h-.387v-.994h-.752v.994h-.387zm2.16-2.273h1.32v1.89h.168v.879h-.323v-.496h-1.199v.496h-.323v-.88h.163c.08-.194.132-.42.157-.676.026-.256.038-.58.038-.973v-.24zm.37.384c0 .688-.054 1.19-.16 1.505h.723V3.797h-.564z" fill="#FF7103"/><path d="M13.282 6.333h1.468v2.273h-.374V6.717h-.72v1.89h-.374V6.332zm1.848 1.15c0-.231.028-.426.084-.584.042-.116.1-.22.172-.312a.75.75 0 01.24-.205.853.853 0 01.398-.09.79.79 0 01.654.312c.163.208.245.498.245.869 0 .368-.082.655-.244.863a.783.783 0 01-.65.312.79.79 0 01-.656-.31c-.162-.207-.243-.492-.243-.855zm.384-.015c0 .258.049.453.146.586a.44.44 0 00.735.002c.096-.132.143-.33.143-.594 0-.261-.046-.456-.14-.584a.435.435 0 00-.37-.193.44.44 0 00-.372.195c-.095.13-.142.326-.142.588zm2.191 1.138V6.717h-.546v-.384h1.465v.384h-.544v1.89h-.375zm2.739 0h-.403l-.16-.517h-.74l-.154.517h-.396l.718-2.273h.395l.74 2.273zm-.684-.901l-.257-.842-.25.842h.507zm.959.901V6.333h.374v.895h.727v-.895h.375v2.273h-.375v-.994h-.727v.994h-.374zm1.944-2.273h.349v1.513l.748-1.513h.371v2.273h-.348V7.117l-.748 1.49h-.372V6.332zm1.926 2.273V6.333h.374v.895h.727v-.895h.374v2.273h-.374v-.994h-.727v.994h-.374zm3.603 0h-.403l-.16-.517h-.74l-.154.517h-.395l.717-2.273h.395l.74 2.273zm-.684-.901l-.256-.842-.25.842h.506zM22.572 3.413h.764c.152 0 .264.007.338.022a.464.464 0 01.2.094.591.591 0 01.205.455.602.602 0 01-.071.292.479.479 0 01-.196.2c.116.04.205.109.268.206a.624.624 0 01.093.344c0 .104-.02.204-.06.302a.596.596 0 01-.166.235.498.498 0 01-.259.108c-.064.008-.22.013-.465.015h-.651V3.413zm.387.378v.524h.252c.15 0 .244-.003.28-.008a.237.237 0 00.156-.081.265.265 0 00.056-.177.28.28 0 00-.049-.17.207.207 0 00-.145-.08 3.69 3.69 0 00-.329-.008h-.221zm0 .902v.61h.357c.14 0 .228-.005.265-.015a.233.233 0 00.14-.09.317.317 0 00.055-.194.337.337 0 00-.042-.174.242.242 0 00-.12-.105c-.053-.021-.168-.032-.344-.032h-.311zm1.69-1.28h1.34v2.273H25.6V3.797h-.574v.97c0 .279-.008.473-.023.582a.445.445 0 01-.114.258c-.06.061-.155.092-.284.092-.045 0-.127-.005-.246-.015v-.356l.086.001c.08 0 .135-.013.163-.039.028-.025.042-.089.042-.19l-.002-.39V3.412zm3.537 2.273h-.417l-.165-.517h-.767l-.159.517h-.409l.742-2.273h.409l.766 2.273zm-.708-.901l-.265-.842-.259.842h.524zm1.246-1.372h1.32v1.889h.167v.88h-.323v-.496H28.69v.496h-.323v-.88h.163c.079-.194.131-.42.157-.676.025-.256.037-.58.037-.973v-.24zm.369.384c0 .688-.054 1.19-.16 1.505h.723V3.797h-.563zm1.462-.384h.36v1.513l.775-1.513h.384v2.273h-.36V4.197l-.774 1.49h-.385V3.412zm1.987 2.273V3.413h.58l.342 1.55.339-1.55h.581v2.273h-.358l-.001-1.79-.377 1.79h-.372l-.375-1.79-.001 1.79h-.358zm2.313-2.273h.36v1.513l.775-1.513h.384v2.273h-.36V4.197l-.774 1.49h-.385V3.412zm1.992 2.273V3.413h.62c.234 0 .386.011.458.034.109.034.2.108.275.223.073.114.11.262.11.443 0 .14-.021.256-.063.351a.611.611 0 01-.162.225.52.52 0 01-.2.107 1.853 1.853 0 01-.4.033h-.25v.857h-.388zm.388-1.889v.648h.21c.152 0 .253-.012.304-.036a.262.262 0 00.12-.112.351.351 0 00.044-.178.333.333 0 00-.061-.205.26.26 0 00-.155-.101 1.595 1.595 0 00-.277-.016h-.185zm2.959 1.89h-.417l-.165-.518h-.766l-.16.517h-.408l.742-2.273h.408l.766 2.273zm-.707-.902l-.266-.842-.258.842h.524zM6.885 11.401h.4a.936.936 0 00-.096-.375c-.053-.1-.125-.15-.215-.15a.212.212 0 00-.174.091.56.56 0 00-.098.242l-.255-.093a.86.86 0 01.172-.43.429.429 0 01.347-.163c.185 0 .33.098.435.294.104.196.156.45.156.765 0 .213-.024.397-.073.55a.865.865 0 01-.2.359.416.416 0 01-.305.127c-.29 0-.469-.218-.536-.652l.259-.127a.643.643 0 00.098.323c.052.07.115.106.187.106.076 0 .14-.042.194-.126.053-.083.087-.216.103-.4h-.399v-.34zm1.666.943v.237h-.253v-.237c-.204-.012-.348-.092-.432-.239a1.107 1.107 0 01-.126-.554c0-.233.044-.42.132-.56.088-.142.23-.219.426-.23v-.2h.253v.2c.203.011.346.09.43.237.085.145.128.33.128.555a1.1 1.1 0 01-.127.553c-.084.147-.228.226-.431.238zm0-.342a.286.286 0 00.174-.053.289.289 0 00.103-.145c.021-.06.031-.148.031-.265 0-.291-.103-.437-.308-.437v.9zm-.253 0v-.9c-.11 0-.188.038-.236.115-.048.077-.073.192-.073.347 0 .292.103.438.309.438zm1.803.342v.237h-.253v-.237c-.204-.012-.348-.092-.432-.239a1.105 1.105 0 01-.126-.554c0-.233.044-.42.132-.56.088-.142.23-.219.426-.23v-.2h.253v.2c.203.011.346.09.43.237.085.145.128.33.128.555 0 .222-.043.406-.127.553-.084.147-.228.226-.431.238zm0-.342a.286.286 0 00.174-.053.29.29 0 00.104-.145c.02-.06.03-.148.03-.265 0-.291-.103-.437-.308-.437v.9zm-.253 0v-.9c-.11 0-.188.038-.236.115-.048.077-.072.192-.072.347 0 .292.102.438.308.438zm1.07.579v-2.02h.944v.34h-.687v.45h.638v.34h-.638v.548h.711v.342h-.969zm1.244-2.02h.258v.86c.058-.01.097-.032.117-.07.02-.038.051-.143.093-.315.054-.219.107-.355.161-.408.054-.054.14-.08.258-.08l.038-.002v.302l-.037-.001c-.053 0-.091.01-.116.03a.215.215 0 00-.059.095c-.015.043-.037.13-.066.261-.016.07-.033.129-.052.176a.347.347 0 01-.096.132.302.302 0 01.142.156c.037.078.078.188.122.33l.174.554h-.303l-.153-.52-.015-.043a3.47 3.47 0 01-.032-.095.691.691 0 00-.08-.187c-.02-.025-.053-.037-.096-.038v.883h-.258v-2.02zm1.468 2.02v-1.68h-.378v-.34h1.012v.34h-.376v1.68h-.258zm.857-2.02h.241v1.345l.517-1.346h.256v2.021h-.24v-1.324l-.517 1.324h-.257v-2.02zm1.33 0h.51c.102 0 .177.006.227.02.05.013.094.04.133.082.04.043.072.098.098.169.026.07.04.149.04.236a.684.684 0 01-.049.26.393.393 0 01-.13.177.373.373 0 01.178.184.7.7 0 01.063.305.896.896 0 01-.04.269.556.556 0 01-.112.209.297.297 0 01-.172.096 2.819 2.819 0 01-.311.013h-.434v-2.02zm.259.335v.466h.169c.1 0 .162-.002.186-.007a.151.151 0 00.104-.072.29.29 0 00.038-.157.309.309 0 00-.033-.152.134.134 0 00-.096-.07 1.856 1.856 0 00-.22-.008h-.148zm0 .802v.541h.239a.763.763 0 00.176-.012.159.159 0 00.094-.08.351.351 0 00.036-.173.38.38 0 00-.028-.155.185.185 0 00-.08-.092.566.566 0 00-.229-.03h-.208zm1.081.883v-2.02h.258v.795h.503v-.796h.258v2.021h-.258v-.883h-.503v.883h-.258zm2.489 0h-.278l-.11-.46h-.512l-.106.46h-.274l.496-2.02h.273l.51 2.02zm-.472-.801l-.178-.748-.172.748h.35zm1.425.801v-.844h-.052c-.082 0-.14.02-.173.058-.034.038-.09.153-.172.345l-.185.441h-.307l.155-.394c.061-.157.11-.266.147-.329a.7.7 0 01.136-.169.376.376 0 01-.256-.196.785.785 0 01-.08-.365c0-.123.02-.232.06-.327.039-.095.09-.16.155-.192a.66.66 0 01.288-.049h.542v2.021H20.6zm0-1.68h-.201c-.102 0-.17.005-.202.011-.032.008-.06.033-.083.075a.344.344 0 00-.035.166c0 .07.012.127.034.17.022.041.05.067.085.077.035.01.105.015.211.015h.19v-.513zm1.823 1.443v.237h-.253v-.237c-.204-.012-.348-.092-.432-.239a1.106 1.106 0 01-.126-.554c0-.233.044-.42.132-.56.088-.142.23-.219.426-.23v-.2h.253v.2c.203.011.346.09.431.237.085.145.127.33.127.555a1.1 1.1 0 01-.126.553c-.085.147-.228.226-.432.238zm0-.342a.287.287 0 00.174-.053.29.29 0 00.104-.145.87.87 0 00.03-.265c0-.291-.102-.437-.308-.437v.9zm-.253 0v-.9c-.109 0-.187.038-.236.115-.048.077-.072.192-.072.347 0 .292.102.438.308.438zm1.073-1.442h.24v1.345L24 10.56h.257v2.021h-.24v-1.324l-.517 1.324h-.257v-2.02zm1.422 0h.893v2.021H25.3v-1.68h-.383v.863c0 .247-.006.42-.016.517a.464.464 0 01-.076.23c-.04.054-.103.081-.19.081-.03 0-.084-.004-.164-.014v-.316l.058.002c.053 0 .09-.012.109-.035.018-.023.027-.08.027-.17V10.56zm2.36 2.021h-.278l-.11-.46h-.512l-.106.46h-.273l.495-2.02h.273l.511 2.02zm-.472-.801l-.177-.748-.173.748h.35zm.662.801v-2.02h.259v.795h.502v-.796h.258v2.021h-.258v-.883h-.502v.883h-.259zm1.627 0v-1.68h-.378v-.34h1.012v.34H29.1v1.68h-.258zm.854 0v-2.02h.413c.157 0 .258.01.306.03.073.03.134.096.184.197.049.102.074.233.074.394a.998.998 0 01-.043.313.564.564 0 01-.108.2.333.333 0 01-.134.095.938.938 0 01-.266.029h-.168v.762h-.258zm.258-1.68v.576h.14c.102 0 .17-.01.204-.032a.207.207 0 00.08-.1.394.394 0 00.029-.157.368.368 0 00-.04-.182.178.178 0 00-.104-.09.802.802 0 00-.185-.014h-.124zm.906.682c0-.206.02-.38.059-.52.029-.103.068-.195.119-.277a.484.484 0 01.44-.262c.188 0 .338.092.451.277.113.185.17.443.17.772 0 .327-.056.583-.168.768-.112.185-.262.277-.45.277-.19 0-.34-.092-.453-.276-.111-.183-.168-.436-.168-.76zm.266-.014c0 .23.033.403.1.521s.152.178.255.178c.103 0 .187-.06.253-.176.066-.118.1-.294.1-.529 0-.231-.033-.405-.097-.518-.064-.114-.15-.171-.256-.171-.107 0-.192.057-.258.173-.065.115-.097.29-.097.522zm1.23-1.009h1.014v2.021h-.258v-1.68h-.498v1.68h-.258v-2.02zm1.334 0h.24v1.345l.517-1.345h.256v2.021h-.24v-1.324l-.517 1.324h-.256v-2.02zm2.092 2.021v-.844h-.052c-.082 0-.14.02-.173.058-.033.038-.09.153-.171.345l-.185.441h-.308l.156-.394c.06-.157.11-.266.146-.329a.695.695 0 01.137-.169.376.376 0 01-.257-.196.785.785 0 01-.078-.365c0-.123.02-.232.058-.327.04-.095.091-.16.155-.192a.661.661 0 01.288-.049h.543v2.021h-.259zm0-1.68h-.2c-.103 0-.17.005-.202.011-.032.008-.06.033-.083.075a.344.344 0 00-.035.166c0 .07.011.127.033.17.023.041.051.067.086.077.034.01.104.015.21.015h.191v-.513z" fill="#37545D"/></svg><svg fill="none" viewBox="0 0 44 13" id="logo-potanina2" xmlns="http://www.w3.org/2000/svg"><path fill-rule="evenodd" clip-rule="evenodd" d="M8.34 8.692H7.183l3.04-7.15-1.64.002L9.037.48c1.16-.002 1.635 0 2.795 0L8.339 8.692zM4.72 7.778l.605-1.419-1.149-2.614L0 3.75c1.211 2.84 2.008 4.704 3.22 7.543l.601-1.409-2.146-5.028 1.796-.002L4.72 7.778z" fill="#272C41"/><path fill-rule="evenodd" clip-rule="evenodd" d="M7.836.478h1.202l-5.26 12.15-.558-1.336L7.836.478z" fill="#4BAAF3"/><path d="M13.206.657h1.31v.384h-.955v.528h.473c.13 0 .24.02.325.061.086.042.16.118.22.23.061.11.092.241.092.39 0 .154-.03.286-.093.396a.532.532 0 01-.21.224.751.751 0 01-.335.06h-.827V.657zm.355 1.89h.344a.89.89 0 00.232-.021.222.222 0 00.117-.094.315.315 0 00.05-.18c0-.105-.03-.18-.087-.228-.058-.047-.157-.071-.296-.071h-.36v.593zm1.536-1.89h1.229v2.274h-.356V1.04h-.526v.97c0 .279-.007.473-.022.582a.463.463 0 01-.104.258c-.056.061-.142.092-.26.092-.042 0-.117-.005-.227-.015v-.356l.08.001c.073 0 .124-.012.149-.038.026-.026.038-.09.038-.19l-.001-.391V.657zm3.245 2.274h-.383l-.15-.518h-.704l-.146.518h-.375l.68-2.274h.376l.702 2.274zm-.65-.902l-.243-.841-.237.84h.48zM18.62.657h1.188v.384h-.832v1.89h-.356V.657zm1.338 1.15c0-.231.027-.426.08-.584.04-.116.095-.22.164-.312a.721.721 0 01.227-.205c.11-.06.235-.09.378-.09.26 0 .466.104.621.312.155.209.233.498.233.869 0 .368-.077.656-.231.863a.73.73 0 01-.618.312.736.736 0 01-.623-.31c-.154-.207-.23-.491-.23-.854zm.365-.015c0 .258.047.453.139.587.091.132.208.2.35.2.141 0 .257-.067.348-.199.09-.132.136-.33.136-.594 0-.26-.044-.456-.133-.584a.407.407 0 00-.352-.192.412.412 0 00-.353.194c-.09.13-.134.326-.134.588zm2.081 1.139V1.04h-.52V.657h1.392v.384h-.517v1.89h-.355zM23.578.657h.701c.14 0 .243.008.311.023a.41.41 0 01.183.093c.054.048.1.11.135.19a.634.634 0 01.054.265.647.647 0 01-.066.292.463.463 0 01-.18.2c.107.04.188.11.246.207a.666.666 0 01.086.343.845.845 0 01-.056.302.597.597 0 01-.152.235.439.439 0 01-.238.108 4.743 4.743 0 01-.427.016h-.597V.657zm.355.378v.524h.232c.138 0 .223-.003.257-.008a.212.212 0 00.143-.081.281.281 0 00.052-.177.299.299 0 00-.045-.17.186.186 0 00-.133-.08 3.115 3.115 0 00-.302-.008h-.204zm0 .902v.61h.329c.127 0 .208-.005.243-.014a.213.213 0 00.128-.091.338.338 0 00.05-.194.361.361 0 00-.038-.174.23.23 0 00-.111-.104c-.048-.022-.153-.033-.314-.033h-.287zm1.352-.13c0-.231.027-.426.08-.584.04-.116.095-.22.164-.312a.72.72 0 01.227-.205c.109-.06.235-.09.378-.09.259 0 .465.104.62.312.156.209.234.498.234.869 0 .368-.078.656-.232.863a.73.73 0 01-.617.312.736.736 0 01-.623-.31c-.154-.207-.23-.491-.23-.854zm.365-.015c0 .258.046.453.138.587.092.132.209.2.35.2.142 0 .258-.067.349-.199.09-.132.136-.33.136-.594 0-.26-.044-.456-.133-.584a.407.407 0 00-.352-.192.412.412 0 00-.353.194c-.09.13-.135.326-.135.588zm1.686 1.139V.657h.568c.215 0 .355.011.42.034.101.035.185.109.253.223a.86.86 0 01.102.443c0 .14-.02.256-.059.352a.61.61 0 01-.148.224.467.467 0 01-.184.107 1.56 1.56 0 01-.366.033h-.23v.857h-.356zm.356-1.89v.648h.193c.139 0 .232-.012.278-.036a.25.25 0 00.11-.112c.027-.05.04-.11.04-.177a.354.354 0 00-.055-.206.238.238 0 00-.142-.101 1.348 1.348 0 00-.254-.016h-.17zm1.355-.384h.331v1.514l.71-1.514h.353v2.274h-.33V1.44l-.71 1.49h-.354V.657zm2.223 2.274V1.04h-.52V.657h1.392v.384h-.517v1.89h-.355zm1.174 0V.657h1.298v.384H32.8v.505h.877v.384H32.8v.616h.977v.385h-1.333zM34.277.657h1.228v2.274h-.355V1.04h-.527v.97c0 .279-.007.473-.021.582a.464.464 0 01-.105.258c-.055.061-.142.092-.26.092-.042 0-.117-.005-.226-.015v-.356l.079.001c.074 0 .124-.012.15-.038.025-.026.038-.09.038-.19l-.002-.391V.657zm1.672 0h.355v.908h.473c.223 0 .384.068.484.204.1.135.15.298.15.487 0 .155-.03.287-.09.395a.51.51 0 01-.208.221.776.776 0 01-.337.059h-.827V.657zm.355 1.89h.344a.872.872 0 00.232-.021.23.23 0 00.115-.095c.034-.05.051-.11.051-.181 0-.104-.029-.18-.086-.228-.058-.048-.157-.073-.296-.073h-.36v.597zm1.47.384V.657h.356v.896h.69V.657h.356v2.274h-.355v-.994h-.691v.994h-.355zM39.627.657h.355v.908h.473a.72.72 0 01.32.066.52.52 0 01.225.236c.06.113.089.243.089.39a.807.807 0 01-.093.398.503.503 0 01-.208.221.798.798 0 01-.334.055h-.827V.657zm.355 1.89h.345c.11 0 .187-.008.23-.021a.23.23 0 00.117-.095.31.31 0 00.05-.18c0-.1-.027-.176-.083-.226-.055-.05-.155-.076-.3-.076h-.359v.597zm1.31-1.89h.356v2.274h-.356V.657zm.8 0h.33v1.514l.711-1.514h.353v2.274h-.33V1.44l-.711 1.49h-.353V.657zM42.998 0h.164a.563.563 0 01-.115.33.32.32 0 01-.258.12.321.321 0 01-.259-.12.564.564 0 01-.114-.33h.164a.271.271 0 00.06.166c.034.038.084.056.149.056.065 0 .115-.018.149-.056a.273.273 0 00.06-.166zM14.34 5.42v.266h-.38V5.42c-.305-.014-.52-.104-.646-.27a1.001 1.001 0 01-.189-.622c0-.262.066-.473.197-.631.132-.16.345-.245.639-.259v-.225h.379v.225c.304.014.519.103.645.267.127.164.19.373.19.624 0 .25-.063.458-.189.623-.126.165-.341.254-.646.268zm0-.385c.1 0 .188-.02.261-.06a.347.347 0 00.155-.162.752.752 0 00.046-.299c0-.327-.154-.491-.462-.491v1.012zm-.38 0V4.023c-.163 0-.28.043-.353.129-.072.086-.108.216-.108.39 0 .329.154.493.462.493zm1.522-.472c0-.231.03-.426.088-.584.043-.116.103-.22.178-.312a.767.767 0 01.247-.205.91.91 0 01.412-.09c.282 0 .507.104.677.312.169.208.254.498.254.869 0 .368-.085.656-.252.863a.82.82 0 01-.673.312.828.828 0 01-.679-.31c-.168-.207-.252-.492-.252-.854zm.398-.015c0 .258.05.453.15.586.1.133.228.2.382.2s.28-.066.38-.198c.098-.132.148-.33.148-.594 0-.261-.048-.456-.145-.584a.455.455 0 00-.383-.193.46.46 0 00-.386.195c-.097.13-.146.326-.146.588zm1.838 1.138V3.413h.387v.895h.753v-.895h.386v2.273h-.386v-.993h-.753v.993h-.387zm2.16-2.273h1.32v1.89h.168v.879h-.323v-.496h-1.199v.496h-.323v-.88h.163c.079-.194.132-.42.157-.675.025-.257.038-.582.038-.974v-.24zm.37.384c0 .688-.054 1.19-.16 1.505h.723V3.797h-.564z" fill="#4BAAF3"/><path d="M13.282 6.333h1.468v2.273h-.374V6.717h-.72v1.89h-.374V6.332zm1.848 1.15c0-.231.028-.426.085-.584.041-.116.099-.22.171-.312a.748.748 0 01.24-.205.854.854 0 01.398-.09.79.79 0 01.654.312c.163.208.245.498.245.869 0 .368-.081.656-.243.863a.783.783 0 01-.651.312.79.79 0 01-.656-.31c-.162-.207-.243-.492-.243-.855zm.384-.015c0 .258.049.453.146.586a.44.44 0 00.735.002c.096-.132.143-.33.143-.594 0-.261-.046-.456-.14-.584a.435.435 0 00-.37-.193.44.44 0 00-.372.195c-.094.13-.142.326-.142.588zm2.191 1.138V6.717h-.547v-.384h1.466v.384h-.544v1.89h-.375zm2.739 0h-.403l-.16-.517h-.74l-.154.517h-.396l.717-2.273h.396l.74 2.273zm-.684-.901l-.257-.842-.25.842h.507zm.959.901V6.333h.374v.895h.728v-.895h.374v2.273h-.374v-.994h-.728v.994h-.374zm1.944-2.273h.349v1.513l.748-1.513h.371v2.273h-.348V7.117l-.748 1.49h-.372V6.332zm1.926 2.273V6.333h.374v.895h.727v-.895h.375v2.273h-.375v-.994h-.727v.994h-.374zm3.603 0h-.403l-.16-.517h-.74l-.154.517h-.395l.717-2.273h.395l.74 2.273zm-.683-.901l-.257-.842-.25.842h.507zM22.572 3.413h.764c.152 0 .264.007.338.022a.464.464 0 01.2.094.591.591 0 01.205.455.603.603 0 01-.071.292.478.478 0 01-.196.2c.116.04.205.11.268.207a.623.623 0 01.093.343c0 .104-.02.204-.06.302a.596.596 0 01-.166.235.498.498 0 01-.26.108c-.063.008-.219.013-.465.015h-.65V3.413zm.387.378v.524h.252a2.8 2.8 0 00.28-.008.236.236 0 00.156-.081.265.265 0 00.056-.177.28.28 0 00-.049-.17.207.207 0 00-.145-.08 3.7 3.7 0 00-.329-.008h-.221zm0 .902v.61h.358c.138 0 .227-.005.264-.014a.233.233 0 00.14-.092.316.316 0 00.055-.193.337.337 0 00-.042-.174.243.243 0 00-.12-.105c-.053-.021-.168-.032-.343-.032h-.312zm1.69-1.28h1.34v2.273H25.6V3.797h-.574v.97c0 .278-.008.473-.024.582a.444.444 0 01-.113.258c-.06.061-.155.092-.284.092-.045 0-.127-.005-.246-.015v-.357l.086.002c.08 0 .135-.013.163-.039.028-.025.042-.089.042-.19l-.002-.39V3.412zm3.537 2.273h-.417l-.165-.517h-.767l-.159.517h-.41l.743-2.273h.409l.765 2.273zm-.708-.901l-.265-.842-.259.842h.524zm1.246-1.372h1.319v1.89h.168v.879h-.323v-.496H28.69v.496h-.323v-.88h.162c.08-.194.132-.42.157-.676.026-.256.038-.58.038-.973v-.24zm.369.384c0 .688-.053 1.19-.16 1.505h.723V3.797h-.563zm1.462-.384h.36v1.513l.775-1.513h.384v2.273h-.36V4.197l-.774 1.49h-.385V3.412zm1.987 2.273V3.413h.58l.342 1.55.339-1.55h.581v2.273h-.358l-.001-1.79-.377 1.79h-.372l-.375-1.79-.001 1.79h-.358zm2.313-2.273h.36v1.513l.775-1.513h.384v2.273h-.36V4.197l-.774 1.49h-.385V3.412zm1.992 2.273V3.413h.62c.234 0 .386.011.458.034.109.034.2.108.275.223.073.114.11.262.11.442 0 .14-.021.257-.064.352a.609.609 0 01-.161.225.522.522 0 01-.2.107 1.848 1.848 0 01-.4.033h-.25v.857h-.388zm.388-1.889v.648h.21c.152 0 .253-.012.304-.036a.262.262 0 00.12-.112.351.351 0 00.044-.178.333.333 0 00-.061-.205.26.26 0 00-.155-.102 1.6 1.6 0 00-.277-.015h-.185zm2.959 1.89h-.417l-.165-.518h-.767l-.158.517h-.41l.742-2.273h.41l.765 2.273zm-.707-.902l-.266-.842-.258.842h.524zM6.885 11.401h.399a.935.935 0 00-.095-.375c-.053-.1-.125-.15-.215-.15a.212.212 0 00-.174.091.562.562 0 00-.099.242l-.254-.093a.859.859 0 01.172-.43.428.428 0 01.347-.162c.185 0 .33.097.435.293.104.196.156.45.156.765 0 .213-.024.397-.073.55a.865.865 0 01-.2.359.416.416 0 01-.305.127c-.29 0-.469-.218-.536-.652l.258-.127a.642.642 0 00.099.323c.052.07.115.106.187.106.076 0 .14-.042.194-.126.053-.083.087-.216.103-.4h-.399v-.34zm1.666.943v.237h-.253v-.237c-.204-.012-.348-.092-.432-.24a1.106 1.106 0 01-.126-.553c0-.233.044-.42.132-.56.088-.142.23-.219.426-.23v-.2h.253v.2c.203.011.346.09.431.237.085.146.127.33.127.555a1.1 1.1 0 01-.127.553c-.084.147-.228.226-.431.238zm0-.342a.287.287 0 00.174-.053.289.289 0 00.104-.145c.02-.06.03-.148.03-.265 0-.291-.102-.437-.308-.437v.9zm-.253 0v-.9c-.11 0-.188.038-.236.115-.048.076-.072.192-.072.347 0 .292.102.438.308.438zm1.803.342v.237h-.253v-.237c-.204-.012-.348-.092-.432-.24a1.105 1.105 0 01-.126-.553c0-.233.044-.42.132-.56.088-.142.23-.219.426-.23v-.2h.253v.2c.203.011.346.09.431.237.085.146.127.33.127.555a1.1 1.1 0 01-.126.553c-.085.147-.228.226-.432.238zm0-.342a.288.288 0 00.174-.053.29.29 0 00.104-.145.87.87 0 00.03-.265c0-.291-.103-.437-.308-.437v.9zm-.253 0v-.9c-.11 0-.187.038-.236.115-.048.076-.072.192-.072.347 0 .292.102.438.308.438zm1.07.579v-2.02h.944v.34h-.686v.45h.637v.341h-.637v.547h.71v.342h-.969zm1.244-2.02h.258v.86c.058-.01.097-.032.117-.07.02-.038.051-.143.094-.315.053-.219.107-.355.16-.408.054-.054.14-.08.258-.08l.038-.002v.302l-.037-.001c-.053 0-.091.01-.116.03a.217.217 0 00-.059.095 2.66 2.66 0 00-.066.261c-.016.07-.033.129-.052.176a.346.346 0 01-.096.132.301.301 0 01.141.156c.038.078.079.188.123.33l.174.554h-.303l-.153-.52a3.055 3.055 0 01-.047-.138.69.69 0 00-.08-.187c-.021-.025-.053-.037-.096-.038v.883h-.258v-2.02zm1.468 2.02V10.9h-.378v-.34h1.012v.34h-.376v1.68h-.258zm.857-2.02h.241v1.345l.517-1.346h.257v2.02h-.241v-1.323l-.517 1.324h-.256v-2.02zm1.33 0h.51c.102 0 .177.006.227.019.05.014.094.041.133.083.04.043.072.099.098.169.026.07.04.149.04.236a.684.684 0 01-.049.26.393.393 0 01-.13.177.373.373 0 01.178.183.698.698 0 01.063.306.895.895 0 01-.04.268.555.555 0 01-.112.21.297.297 0 01-.172.095 2.836 2.836 0 01-.311.014h-.435v-2.02zm.259.335v.466h.168c.1 0 .163-.003.187-.007a.151.151 0 00.104-.072.29.29 0 00.038-.157.31.31 0 00-.033-.152.134.134 0 00-.096-.071 1.881 1.881 0 00-.22-.007h-.148zm0 .801v.542h.239a.763.763 0 00.176-.012.16.16 0 00.094-.08.352.352 0 00.036-.173.381.381 0 00-.028-.155.186.186 0 00-.08-.092.566.566 0 00-.229-.03h-.208zm1.081.884v-2.02h.258v.795h.503v-.796h.258v2.02h-.258v-.883h-.503v.884h-.258zm2.489 0h-.278l-.11-.46h-.512l-.106.46h-.273l.495-2.02h.273l.511 2.02zm-.472-.802l-.178-.748-.172.748h.35zm1.425.802v-.844h-.052c-.082 0-.14.02-.173.058-.034.038-.09.153-.172.345l-.184.44h-.308l.155-.393c.062-.157.11-.266.147-.33a.704.704 0 01.137-.168.377.377 0 01-.257-.196.785.785 0 01-.079-.365c0-.123.02-.232.059-.327.04-.095.09-.16.155-.192a.66.66 0 01.288-.049h.542v2.02H20.6zm0-1.68h-.201c-.102 0-.17.004-.202.011-.032.008-.06.033-.083.075a.344.344 0 00-.035.166c0 .07.012.127.034.169.022.042.05.068.085.078a.93.93 0 00.211.015h.19v-.513zm1.823 1.443v.237h-.253v-.237c-.204-.012-.348-.092-.432-.24a1.105 1.105 0 01-.126-.553c0-.233.044-.42.132-.561.088-.141.23-.218.426-.23v-.2h.253v.2c.203.012.347.091.431.238.085.145.127.33.127.555a1.1 1.1 0 01-.126.553c-.085.146-.228.226-.432.238zm0-.342a.287.287 0 00.175-.054.288.288 0 00.103-.144c.02-.06.03-.149.03-.265 0-.291-.102-.437-.308-.437v.9zm-.253 0v-.9c-.109 0-.187.038-.236.115-.048.076-.072.192-.072.347 0 .292.102.438.308.438zm1.073-1.442h.24v1.345L24 10.56h.257v2.02h-.24v-1.323l-.518 1.324h-.256v-2.02zm1.422 0h.893v2.02H25.3v-1.678h-.383v.862c0 .247-.006.42-.016.517a.467.467 0 01-.076.229c-.04.055-.103.082-.19.082-.03 0-.084-.005-.164-.014v-.316l.058.001c.054 0 .09-.011.109-.034.018-.023.028-.08.028-.17l-.001-.347V10.56zm2.36 2.02h-.278l-.11-.46h-.512l-.106.46h-.273l.495-2.02h.273l.511 2.02zm-.472-.8l-.177-.749-.173.748h.35zm.662.8v-2.02h.259v.796h.502v-.796h.258v2.02h-.258v-.883h-.502v.884h-.259zm1.627 0v-1.678h-.378v-.342h1.012v.341h-.376v1.68h-.258zm.854 0v-2.02h.413c.157 0 .258.01.306.03.073.03.134.097.183.198.05.102.074.233.074.394a.996.996 0 01-.042.313.566.566 0 01-.108.2.333.333 0 01-.134.095.939.939 0 01-.266.029h-.168v.762h-.258zm.258-1.678v.575h.14c.102 0 .17-.01.204-.032a.207.207 0 00.08-.1.395.395 0 00.029-.157.367.367 0 00-.04-.183.178.178 0 00-.104-.09.808.808 0 00-.185-.013h-.124zm.906.68c0-.206.02-.379.059-.519.029-.103.068-.196.119-.277a.484.484 0 01.44-.262c.188 0 .338.092.451.277.113.185.17.442.17.772 0 .327-.057.583-.168.767-.113.185-.262.277-.45.277-.19 0-.34-.091-.453-.275-.112-.184-.168-.437-.168-.76zm.266-.013c0 .23.033.403.1.521s.152.177.255.177c.103 0 .187-.058.253-.176.066-.117.1-.293.1-.528 0-.232-.033-.405-.097-.519-.064-.114-.15-.17-.256-.17-.107 0-.192.057-.258.172-.065.116-.097.29-.097.523zm1.23-1.009h1.014v2.02h-.258v-1.678h-.498v1.679h-.258v-2.02zm1.334 0h.24v1.345l.517-1.345h.256v2.02h-.24v-1.323l-.517 1.324h-.257v-2.02zm2.092 2.02v-.843h-.052c-.082 0-.14.019-.172.058-.034.038-.091.153-.172.345l-.185.44h-.308l.156-.393c.061-.157.11-.267.146-.33a.704.704 0 01.137-.168.377.377 0 01-.256-.197.785.785 0 01-.08-.364c0-.123.02-.233.06-.328.039-.095.09-.158.154-.191a.66.66 0 01.288-.049h.543v2.02h-.258zm0-1.678h-.2c-.103 0-.17.003-.202.01-.032.008-.06.033-.083.075a.344.344 0 00-.035.166c0 .07.011.127.033.169.023.042.051.068.086.078.034.01.104.015.21.015h.191v-.514z" fill="#272C41"/></svg></svg>